<svg id="SvgjsSvg1001" width="550" height="550" xmlns="http://www.w3.org/2000/svg" version="1.1" xmlns:xlink="http://www.w3.org/1999/xlink" xmlns:svgjs="http://svgjs.com/svgjs"><defs id="SvgjsDefs1002"></defs><g id="SvgjsG1008"><svg xmlns="http://www.w3.org/2000/svg" xmlns:xlink="http://www.w3.org/1999/xlink" viewBox="0 0 1287.013 1018.42" width="550" height="550"><defs><linearGradient id="a" x1="533.462" x2="752.984" y1="570.99" y2="568.642" gradientUnits="userSpaceOnUse"><stop offset="0" stop-color="#d59445" class="stopColord59445 svgShape"></stop><stop offset="1" stop-color="#ffe0a2" class="stopColorffe0a2 svgShape"></stop></linearGradient><linearGradient id="g" x1="535.899" x2="755.421" y1="798.937" y2="796.59" xlink:href="#a"></linearGradient><linearGradient id="b" x1="833.125" x2="754.864" y1="855.99" y2="686.946" gradientUnits="userSpaceOnUse"><stop offset="0" stop-color="#f22003" class="stopColorf22003 svgShape"></stop><stop offset="1" stop-color="#ff6130" class="stopColorff6130 svgShape"></stop></linearGradient><linearGradient id="h" x1="426.178" x2="630.438" y1="638.71" y2="643.406" xlink:href="#b"></linearGradient><linearGradient id="i" x1="360.897" x2="149.593" y1="454.469" y2="402.817" xlink:href="#a"></linearGradient><linearGradient id="c" x1="4408.281" x2="4413.521" y1="878.795" y2="877.116" gradientTransform="scale(-1 1) rotate(-7.193 376.274 39145.25)" gradientUnits="userSpaceOnUse"><stop offset="0" stop-color="#671243" class="stopColor671243 svgShape"></stop><stop offset="1" stop-color="#2c0f1f" class="stopColor2c0f1f svgShape"></stop></linearGradient><linearGradient id="j" x1="4394.579" x2="4412.966" y1="876.297" y2="876.297" xlink:href="#c"></linearGradient><linearGradient id="k" x1="512.735" x2="439.781" y1="404.203" y2="251.951" gradientTransform="rotate(-3.032 5242.729 2309.286)" xlink:href="#b"></linearGradient><linearGradient id="l" x1="5502.235" x2="5507.475" y1="1553.586" y2="1551.907" gradientTransform="scale(-1 1) rotate(-12.849 -1304.924 27012.497)" xlink:href="#c"></linearGradient><linearGradient id="m" x1="5488.534" x2="5506.921" y1="1551.088" y2="1551.088" gradientTransform="scale(-1 1) rotate(-12.849 -1304.924 27012.497)" xlink:href="#c"></linearGradient><linearGradient id="d" x1="561.588" x2="597.099" y1="-7.83" y2="37.826" gradientTransform="rotate(-5.486 5227.26 2315.736)" gradientUnits="userSpaceOnUse"><stop offset="0" stop-color="#226cc8" class="stopColor226cc8 svgShape"></stop><stop offset="1" stop-color="#5ea8ff" class="stopColor5ea8ff svgShape"></stop></linearGradient><linearGradient id="n" x1="474.98" x2="402.027" y1="422.291" y2="270.042" gradientTransform="rotate(-3.032 5242.729 2309.286)" xlink:href="#b"></linearGradient><linearGradient id="o" x1="743.033" x2="762.508" y1="-439.351" y2="-338.901" gradientTransform="rotate(-10.726 5214.506 2312.67)" xlink:href="#d"></linearGradient><linearGradient id="e" x1="5117.548" x2="5106.515" y1="-448.542" y2="-460.06" gradientTransform="scale(-1 1) rotate(10.726 -2268.428 -29036.767)" gradientUnits="userSpaceOnUse"><stop offset="0" stop-color="#ffd3b7" class="stopColorffd3b7 svgShape"></stop><stop offset="1" stop-color="#ffa277" class="stopColorffa277 svgShape"></stop></linearGradient><linearGradient id="p" x1="329.522" x2="340.763" y1="440.941" y2="470.263" xlink:href="#e"></linearGradient><linearGradient id="q" x1="5107.721" x2="5112.364" y1="-465.988" y2="-479.454" xlink:href="#e"></linearGradient><linearGradient id="r" x1="373.081" x2="161.776" y1="404.625" y2="352.973" xlink:href="#a"></linearGradient><linearGradient id="s" x1="5114.116" x2="5118.76" y1="-463.783" y2="-477.248" xlink:href="#e"></linearGradient><linearGradient id="t" x1="335.957" x2="357.949" y1="516.495" y2="284.114" xlink:href="#d"></linearGradient><linearGradient id="u" x1="13933.274" x2="13956.665" y1="7815.483" y2="7746.46" gradientTransform="scale(-1 1) rotate(-45.211 -2454.62 21829.02)" xlink:href="#b"></linearGradient><linearGradient id="v" x1="-3591.56" x2="-3593.704" y1="-1298.165" y2="-1306.741" gradientTransform="rotate(-9.073 8236.248 -28939.308)" xlink:href="#e"></linearGradient><linearGradient id="f" x1="-4014.409" x2="-4014.409" y1="352.333" y2="487.159" gradientTransform="translate(4934.109)" gradientUnits="userSpaceOnUse"><stop offset="0" stop-color="#09111d" class="stopColor09111d svgShape"></stop><stop offset="1" stop-color="#313945" class="stopColor313945 svgShape"></stop></linearGradient><linearGradient id="w" x1="-3984.306" x2="-3984.306" y1="352.868" y2="490.449" xlink:href="#f"></linearGradient><linearGradient id="x" x1="-4000.831" x2="-4000.831" y1="352.869" y2="490.449" xlink:href="#f"></linearGradient><linearGradient id="y" x1="-3589.995" x2="-3589.995" y1="-1208.877" y2="-1288.31" gradientTransform="rotate(-9.073 8236.248 -28939.308)" xlink:href="#b"></linearGradient><linearGradient id="z" x1="-3536.638" x2="-3536.638" y1="-1208.878" y2="-1288.311" gradientTransform="rotate(-9.073 8236.248 -28939.308)" xlink:href="#b"></linearGradient><linearGradient id="A" x1="-3609.994" x2="-3599.369" y1="-1345.565" y2="-1324.505" gradientTransform="rotate(-9.073 8236.248 -28939.308)" xlink:href="#f"></linearGradient><linearGradient id="B" x1="-3589.882" x2="-3591.719" y1="-1313.73" y2="-1322.164" gradientTransform="rotate(-9.073 8236.248 -28939.308)" xlink:href="#e"></linearGradient><linearGradient id="a" x1="533.462" x2="752.984" y1="570.99" y2="568.642" gradientUnits="userSpaceOnUse"><stop offset="0" stop-color="#d59445" class="stopColord59445 svgShape"></stop><stop offset="1" stop-color="#ffe0a2" class="stopColorffe0a2 svgShape"></stop></linearGradient><linearGradient id="g" x1="535.899" x2="755.421" y1="798.937" y2="796.59" xlink:href="#a"></linearGradient><linearGradient id="b" x1="833.125" x2="754.864" y1="855.99" y2="686.946" gradientUnits="userSpaceOnUse"><stop offset="0" stop-color="#f22003" class="stopColorf22003 svgShape"></stop><stop offset="1" stop-color="#ff6130" class="stopColorff6130 svgShape"></stop></linearGradient><linearGradient id="h" x1="426.178" x2="630.438" y1="638.71" y2="643.406" xlink:href="#b"></linearGradient><linearGradient id="i" x1="360.897" x2="149.593" y1="454.469" y2="402.817" xlink:href="#a"></linearGradient><linearGradient id="c" x1="4408.281" x2="4413.521" y1="878.795" y2="877.116" gradientTransform="scale(-1 1) rotate(-7.193 376.274 39145.25)" gradientUnits="userSpaceOnUse"><stop offset="0" stop-color="#671243" class="stopColor671243 svgShape"></stop><stop offset="1" stop-color="#2c0f1f" class="stopColor2c0f1f svgShape"></stop></linearGradient><linearGradient id="j" x1="4394.579" x2="4412.966" y1="876.297" y2="876.297" xlink:href="#c"></linearGradient><linearGradient id="k" x1="512.735" x2="439.781" y1="404.203" y2="251.951" gradientTransform="rotate(-3.032 5242.729 2309.286)" xlink:href="#b"></linearGradient><linearGradient id="l" x1="5502.235" x2="5507.475" y1="1553.586" y2="1551.907" gradientTransform="scale(-1 1) rotate(-12.849 -1304.924 27012.497)" xlink:href="#c"></linearGradient><linearGradient id="m" x1="5488.534" x2="5506.921" y1="1551.088" y2="1551.088" gradientTransform="scale(-1 1) rotate(-12.849 -1304.924 27012.497)" xlink:href="#c"></linearGradient><linearGradient id="d" x1="561.588" x2="597.099" y1="-7.83" y2="37.826" gradientTransform="rotate(-5.486 5227.26 2315.736)" gradientUnits="userSpaceOnUse"><stop offset="0" stop-color="#226cc8" class="stopColor226cc8 svgShape"></stop><stop offset="1" stop-color="#5ea8ff" class="stopColor5ea8ff svgShape"></stop></linearGradient><linearGradient id="n" x1="474.98" x2="402.027" y1="422.291" y2="270.042" gradientTransform="rotate(-3.032 5242.729 2309.286)" xlink:href="#b"></linearGradient><linearGradient id="o" x1="743.033" x2="762.508" y1="-439.351" y2="-338.901" gradientTransform="rotate(-10.726 5214.506 2312.67)" xlink:href="#d"></linearGradient><linearGradient id="e" x1="5117.548" x2="5106.515" y1="-448.542" y2="-460.06" gradientTransform="scale(-1 1) rotate(10.726 -2268.428 -29036.767)" gradientUnits="userSpaceOnUse"><stop offset="0" stop-color="#ffd3b7" class="stopColorffd3b7 svgShape"></stop><stop offset="1" stop-color="#ffa277" class="stopColorffa277 svgShape"></stop></linearGradient><linearGradient id="p" x1="329.522" x2="340.763" y1="440.941" y2="470.263" xlink:href="#e"></linearGradient><linearGradient id="q" x1="5107.721" x2="5112.364" y1="-465.988" y2="-479.454" xlink:href="#e"></linearGradient><linearGradient id="r" x1="373.081" x2="161.776" y1="404.625" y2="352.973" xlink:href="#a"></linearGradient><linearGradient id="s" x1="5114.116" x2="5118.76" y1="-463.783" y2="-477.248" xlink:href="#e"></linearGradient><linearGradient id="t" x1="335.957" x2="357.949" y1="516.495" y2="284.114" xlink:href="#d"></linearGradient><linearGradient id="u" x1="13933.274" x2="13956.665" y1="7815.483" y2="7746.46" gradientTransform="scale(-1 1) rotate(-45.211 -2454.62 21829.02)" xlink:href="#b"></linearGradient><linearGradient id="v" x1="-3591.56" x2="-3593.704" y1="-1298.165" y2="-1306.741" gradientTransform="rotate(-9.073 8236.248 -28939.308)" xlink:href="#e"></linearGradient><linearGradient id="f" x1="-4014.409" x2="-4014.409" y1="352.333" y2="487.159" gradientTransform="translate(4934.109)" gradientUnits="userSpaceOnUse"><stop offset="0" stop-color="#09111d" class="stopColor09111d svgShape"></stop><stop offset="1" stop-color="#313945" class="stopColor313945 svgShape"></stop></linearGradient><linearGradient id="w" x1="-3984.306" x2="-3984.306" y1="352.868" y2="490.449" xlink:href="#f"></linearGradient><linearGradient id="x" x1="-4000.831" x2="-4000.831" y1="352.869" y2="490.449" xlink:href="#f"></linearGradient><linearGradient id="y" x1="-3589.995" x2="-3589.995" y1="-1208.877" y2="-1288.31" gradientTransform="rotate(-9.073 8236.248 -28939.308)" xlink:href="#b"></linearGradient><linearGradient id="z" x1="-3536.638" x2="-3536.638" y1="-1208.878" y2="-1288.311" gradientTransform="rotate(-9.073 8236.248 -28939.308)" xlink:href="#b"></linearGradient><linearGradient id="A" x1="-3609.994" x2="-3599.369" y1="-1345.565" y2="-1324.505" gradientTransform="rotate(-9.073 8236.248 -28939.308)" xlink:href="#f"></linearGradient><linearGradient id="B" x1="-3589.882" x2="-3591.719" y1="-1313.73" y2="-1322.164" gradientTransform="rotate(-9.073 8236.248 -28939.308)" xlink:href="#e"></linearGradient></defs><path fill="#A0A9AF" d="m205.98 573.964-9.161-22.752 25.757 7.444Zm-6.62-20.456 7.2 17.88 13.043-12.03ZM223.27 578.354a4.55 4.55 0 0 1-.31-9.09 4.55 4.55 0 1 1 .625 9.08q-.159.01-.315.01Zm-.206-7.593ZM797.945 224.884l-14.29-15.127 24.155-5.211Zm-11.371-14.222 10.97 11.612 7.573-15.613ZM788.788 196.285l-13.626-1.81 11.359-7.866Zm-9.582-2.786 7.626 1.013-1.269-5.415ZM1116.191 414.044l-5.356-8.358-7.308 4.684-.81-1.262 8.571-5.494 4.968 7.751 7.88-11.077 1.878 13.512-1.486.206-1.358-9.772-6.979 9.81zM275.748 273.303a10.792 10.792 0 1 1 10.72-9.622 10.808 10.808 0 0 1-10.72 9.622Zm-.016-20.085a9.292 9.292 0 1 0 9.244 10.3 9.297 9.297 0 0 0-9.244-10.3ZM288.51 251.153a4.84 4.84 0 0 1-.524-.029 4.803 4.803 0 1 1 .524.029Zm-.006-8.112a3.31 3.31 0 1 0 .361.02 3.31 3.31 0 0 0-.36-.02Z" class="colora0a9af svgShape"></path><path fill="#A1B2AA" d="m946.056 824.57-19.203-37.566a131.44 131.44 0 0 1-38.809-2.147l-25.664 32.605-1.179-.928 26.24-33.335.455.095a129.927 129.927 0 0 0 39.32 2.169l.508-.05 19.096 37.356 42.42-12.916-5.203-43.69.401-.253a130.139 130.139 0 0 0 28.616-24.42l.326-.37 40.886 13.224 20.862-39.129-33.877-26.666.124-.475a130.02 130.02 0 0 0 4.087-38.99l-.023-.482 36.418-18.617-12.916-42.42-39.439 4.696-.244-.442a129.869 129.869 0 0 0-26.827-33.826l-.36-.326 11.361-35.128-39.128-20.863-22.09 28.063-.488-.144a129.753 129.753 0 0 0-46.97-4.981l-.498.038-15.185-29.704-42.42 12.915 3.886 32.63-1.49.178-4.035-33.877 44.823-13.647 15.302 29.934a131.216 131.216 0 0 1 46.525 4.932l22.237-28.251 41.344 22.044-11.449 35.399a131.357 131.357 0 0 1 26.53 33.447l39.685-4.725 13.647 44.822-36.676 18.748a131.513 131.513 0 0 1-4.032 38.48l34.093 26.836-22.045 41.345-41.142-13.308a131.65 131.65 0 0 1-28.217 24.076l5.24 43.997Zm-28.21-85.381a79.894 79.894 0 0 1-37.634-9.458l.705-1.324a78.791 78.791 0 1 0-29.778-111.324l-1.272-.795a80.242 80.242 0 1 1 67.979 122.9Z" class="colora1b2aa svgShape"></path><path fill="#A1B2AA" d="m919.573 704.466-.053-1.499q.987-.034 1.963-.112l.119 1.496q-1.009.08-2.03.115Zm-6.093-.187q-1.017-.099-2.02-.242l.211-1.485q.971.138 1.954.234Zm14.15-.814-.316-1.466q.963-.208 1.911-.458l.383 1.45q-.98.259-1.977.474Zm-22.134-.69q-.982-.277-1.945-.597l.473-1.424q.931.31 1.88.578Zm29.887-1.73-.573-1.386q.908-.376 1.795-.79l.634 1.36q-.917.427-1.856.816Zm-37.475-1.174q-.915-.448-1.806-.935l.719-1.316q.862.47 1.746.904Zm44.665-2.584-.81-1.262q.826-.531 1.628-1.098l.866 1.225q-.829.585-1.684 1.135Zm6.414-4.975-1.02-1.099q.72-.669 1.41-1.369l1.069 1.053q-.713.724-1.459 1.415Zm5.44-6.03-1.198-.901q.59-.786 1.148-1.598l1.237.848q-.575.84-1.187 1.652Zm4.29-6.898-1.339-.676q.443-.878.848-1.778l1.368.615q-.418.93-.877 1.839Zm2.997-7.557-1.438-.425q.277-.94.515-1.897l1.456.36q-.245.99-.533 1.962Zm1.597-7.962-1.49-.163q.106-.973.17-1.959l1.497.097q-.067 1.019-.177 2.025Zm-89.5-5.007h-1.5q0-1.02.044-2.031l1.498.065q-.043.978-.043 1.966Zm88.171-3.01q-.066-.984-.176-1.957l1.491-.168q.113 1.006.182 2.025Zm-87.48-4.813-1.477-.264q.18-1.004.402-1.993l1.464.33q-.216.956-.39 1.927Zm86.259-2.944q-.24-.956-.52-1.895l1.436-.43q.29.971.539 1.96Zm-84.19-4.636-1.405-.523q.356-.957.754-1.893l1.38.586q-.383.905-.728 1.83Zm81.605-2.779q-.406-.895-.849-1.769l1.338-.679q.458.903.877 1.83Zm-78.212-4.311-1.29-.766q.52-.876 1.077-1.726l1.255.822q-.54.822-1.042 1.67Zm74.351-2.52q-.557-.81-1.15-1.593l1.197-.905q.612.81 1.189 1.647Zm-69.756-3.855-1.134-.981q.665-.77 1.364-1.508l1.09 1.031q-.676.714-1.32 1.458Zm64.746-2.191q-.692-.699-1.414-1.366l1.017-1.102q.747.69 1.463 1.412Zm-59.101-3.27-.943-1.166q.789-.639 1.606-1.243l.891 1.207q-.79.584-1.554 1.202Zm53.1-1.8q-.804-.566-1.634-1.096l.807-1.264q.858.548 1.69 1.133Zm-46.583-2.578-.723-1.315q.889-.487 1.8-.937l.663 1.346q-.882.434-1.74.906ZM936.5 618.8q-.893-.414-1.805-.789l.57-1.388q.943.388 1.866.816ZM903.91 617l-.476-1.422q.961-.322 1.942-.603l.412 1.443q-.948.27-1.878.582Zm25.191-.857q-.948-.247-1.913-.452l.313-1.467q.997.212 1.978.467Zm-17.552-.961-.215-1.485q1.002-.145 2.018-.247l.149 1.493q-.982.098-1.952.239Zm9.806-.33q-.976-.075-1.963-.107l.048-1.5q1.02.033 2.03.11ZM348.478 911.77l-48.816-18.92 9.505-48.715a147.424 147.424 0 0 1-29.598-29.312l-47.069 11.45-21.14-47.896 40.315-27.15a147.304 147.304 0 0 1-1.314-43.428l-39.415-23.99 18.92-48.816 43.941 8.574a147.122 147.122 0 0 1 32.487-35.241l-9.851-40.494 47.897-21.142 22.497 33.407a146.97 146.97 0 0 1 52.49-1.65l19.579-32.17 48.818 18.92-7.309 37.45-1.472-.287 7.068-36.218-46.477-18.012-19.444 31.948-.494-.075a145.5 145.5 0 0 0-52.939 1.667l-.497.108-22.364-33.208-45.6 20.127 9.785 40.218-.384.298a145.64 145.64 0 0 0-32.81 35.596l-.276.423-43.7-8.526-18.012 46.475 39.167 23.84-.058.48a145.803 145.803 0 0 0 1.33 43.939l.089.483-40.088 26.997 20.127 45.6 46.806-11.388.297.395a145.948 145.948 0 0 0 29.97 29.684l.382.281-9.447 48.414 46.476 18.011 24.45-40.173.504.087a145.696 145.696 0 0 0 44.15.842l.46-.061 26.525 39.386-1.244.838-26.005-38.615a147.22 147.22 0 0 1-43.638-.826Zm45.242-92.81a89.915 89.915 0 1 1 79.51-131.815l-1.327.699a88.39 88.39 0 1 0-42.567 122.062l.605 1.373a89.678 89.678 0 0 1-36.22 7.68Z" class="colora1b2aa svgShape"></path><path fill="#A1B2AA" d="M393.745 780.078q-.455 0-.912-.009l.026-1.5q.99.018 1.972-.003l.033 1.5q-.558.012-1.119.012Zm-6.979-.473q-1.009-.137-2.004-.313l.26-1.477q.967.17 1.947.304Zm14.164-.035-.21-1.485q.977-.139 1.944-.316l.27 1.475q-.996.183-2.004.326Zm-22.086-1.69q-.974-.295-1.93-.628l.492-1.417q.928.323 1.873.61Zm30-.091-.445-1.432q.942-.294 1.87-.623l.501 1.413q-.955.34-1.926.642Zm-37.548-2.874q-.911-.445-1.801-.924l.711-1.321q.864.465 1.748.897Zm45.077-.146-.668-1.343q.883-.439 1.747-.912l.72 1.316q-.889.487-1.8.94Zm-52.05-3.978q-.829-.584-1.633-1.2l.912-1.19q.78.596 1.585 1.164Zm-6.235-5.178q-.726-.708-1.424-1.444l1.088-1.032q.678.714 1.383 1.401Zm-5.342-6.098q-.606-.814-1.18-1.652l1.236-.848q.558.813 1.146 1.603Zm-4.318-6.867q-.47-.899-.905-1.818l1.355-.642q.423.892.88 1.765Zm-3.176-7.466q-.322-.963-.606-1.942l1.44-.418q.277.95.589 1.885Zm-1.947-7.881q-.163-.999-.288-2.01l1.49-.182q.12.98.278 1.95Zm101.299-4.494-1.496-.111q.073-.987.107-1.968l1.5.053q-.036 1.01-.111 2.026Zm-101.965-3.585v-.145q0-.94.034-1.886l1.499.055q-.034.918-.033 1.831v.137Zm100.434-4.398q-.083-.984-.204-1.959l1.49-.184q.124 1.003.209 2.018Zm-98.34-3.459-1.482-.23q.157-1.006.351-1.998l1.472.288q-.189.963-.34 1.94Zm97.058-4.31q-.239-.96-.515-1.906l1.44-.42q.285.975.53 1.964Zm-95.237-3.346-1.427-.463q.314-.967.664-1.917l1.407.519q-.34.921-.644 1.86Zm92.73-4.122q-.388-.908-.811-1.798l1.355-.643q.435.916.836 1.852Zm-89.712-3.147-1.335-.683q.461-.903.959-1.784l1.306.737q-.482.854-.93 1.73Zm86.052-3.825q-.526-.834-1.085-1.646l1.236-.85q.575.836 1.117 1.695Zm-81.921-2.864-1.21-.887q.6-.818 1.231-1.61l1.174.934q-.613.769-1.195 1.563Zm77.207-3.442q-.65-.74-1.33-1.453l1.087-1.034q.7.735 1.369 1.497Zm-72.066-2.514-1.055-1.067q.722-.713 1.47-1.397l1.012 1.108q-.726.664-1.427 1.356Zm66.42-2.969q-.758-.627-1.54-1.224l.91-1.193q.806.616 1.586 1.262Zm-60.403-2.105-.873-1.22q.825-.59 1.674-1.148l.824 1.253q-.824.542-1.625 1.115Zm53.965-2.415q-.845-.498-1.713-.964l.71-1.321q.893.48 1.765.993Zm-47.22-1.648-.67-1.342q.908-.454 1.836-.871l.615 1.368q-.9.405-1.782.845Zm40.147-1.792q-.915-.357-1.849-.68l.49-1.418q.962.332 1.905.701Zm-32.843-1.152-.448-1.431q.969-.303 1.953-.569l.39 1.449q-.955.257-1.895.551Zm25.308-1.118q-.96-.207-1.933-.377l.258-1.478q1.003.176 1.992.39Zm-17.625-.624-.214-1.484q1.002-.144 2.015-.249l.153 1.492q-.982.101-1.954.241Zm9.824-.425q-.988-.055-1.97-.07l.024-1.5q1.011.016 2.029.072Z" class="colora1b2aa svgShape"></path><path fill="#A0A9AF" d="m1082.108 928.934-1.47-.3c4.026-19.764 11.837-37.253 19.391-54.167 9.727-21.78 18.915-42.35 20.699-67.343.757-10.612-1.742-21.272-4.159-31.581-.886-3.782-1.803-7.692-2.548-11.553-6.004-31.075-1.744-63.13 2.375-94.129 1.884-14.17 3.831-28.824 4.775-43.202a318.461 318.461 0 0 0-7.353-91.992c-7.251-31.67-19.44-51.697-37.262-61.228-2.137-1.143-4.654-2.248-7.115-1.776a5.65 5.65 0 0 0-3.972 2.673c-2.752 4.476-.884 13.1.474 17.843 7.897 27.567-4.491 50.802-16.47 73.27-2.715 5.09-5.277 9.897-7.613 14.763l-1.352-.65c2.35-4.894 4.92-9.714 7.64-14.818 11.84-22.206 24.083-45.168 16.354-72.152-1.743-6.083-3.211-14.325-.31-19.041a7.165 7.165 0 0 1 4.967-3.362c2.939-.563 5.874.735 8.104 1.927 18.228 9.747 30.663 30.099 38.017 62.217a319.944 319.944 0 0 1 7.388 92.424c-.947 14.428-2.898 29.106-4.785 43.302-4.103 30.88-8.347 62.811-2.39 93.647.74 3.831 1.654 7.727 2.537 11.494 2.442 10.418 4.967 21.191 4.194 32.03-1.803 25.257-11.043 45.945-20.825 67.848-7.521 16.84-15.299 34.253-19.291 53.856Z" class="colora0a9af svgShape"></path><path fill="#A0A9AF" d="m1133.17 932.475-1.104-1.015c22.779-24.797 27.763-48.484 33.04-73.56a293.342 293.342 0 0 1 7.192-29.121c10.808-33.864 2.608-65.21-3.38-88.097-1.54-5.889-2.995-11.45-3.931-16.317-1.863-9.688.64-30.32 3.06-50.271 2.202-18.147 4.698-38.714 1.86-40.335a3.094 3.094 0 0 0-2.513.043c-8.07 2.75-27.78 25.467-44.458 65.496l-1.385-.577c15.263-36.63 35.428-62.955 45.36-66.34a4.477 4.477 0 0 1 3.74.075c3.524 2.014 1.872 17.203-1.114 41.818-2.295 18.914-4.896 40.35-3.077 49.808.926 4.818 2.375 10.356 3.91 16.22 6.033 23.065 14.297 54.654 3.357 88.933a292.199 292.199 0 0 0-7.153 28.973c-5.086 24.172-10.346 49.166-33.404 74.267ZM1055.435 928.247c-26.357-28.552-35.927-74.354-39.315-107.748a392.232 392.232 0 0 1-1.058-66.224l1.494.133a390.647 390.647 0 0 0 1.059 65.966c3.366 33.158 12.851 78.613 38.922 106.856ZM1070.082 918.476s-.237-.661-.654-1.92l1.423-.472c.408 1.23.641 1.88.643 1.886Zm-2.46-7.676q-.274-.913-.569-1.926l1.44-.418q.293 1.006.566 1.915Zm-2.189-7.725q-.254-.945-.514-1.94l1.451-.379q.26.99.512 1.93Zm-1.981-7.777q-.232-.959-.465-1.95l1.46-.344q.232.987.463 1.942Zm-1.79-7.821q-.21-.969-.419-1.961l1.468-.309q.208.989.417 1.953Zm-1.603-7.86q-.188-.977-.372-1.972l1.475-.273q.183.99.37 1.962Zm-1.416-7.897q-.164-.982-.325-1.98l1.481-.237q.16.992.323 1.97Zm-1.225-7.928q-.14-.987-.276-1.986l1.486-.202q.135.994.275 1.977Zm-1.03-7.956q-.116-.992-.226-1.993l1.49-.164q.11.996.226 1.983Zm-.827-7.98q-.09-.995-.175-1.998l1.495-.126q.084.998.174 1.989Zm-.617-8q-.063-.997-.12-2.001l1.498-.085q.056.999.12 1.992Zm-.395-8.013q-.036-1-.064-2.005l1.5-.042q.028 1 .063 1.994Zm-.165-8.022-.004-1.481v-.523l1.5.002v.52l.004 1.473Zm1.578-7.98-1.5-.039q.026-1 .06-2.002l1.498.05q-.033.997-.058 1.99Zm.332-7.964-1.498-.086q.059-1 .126-2l1.496.1q-.066.994-.124 1.987Zm.6-7.946-1.494-.139q.093-.997.195-1.995l1.492.152q-.1.992-.193 1.982Zm.882-7.919-1.487-.194q.129-.992.268-1.986l1.485.207q-.137.987-.266 1.973Zm1.18-7.88-1.48-.25q.168-.988.346-1.976l1.477.266q-.177.98-.343 1.96Zm1.491-7.824-1.467-.311q.208-.98.427-1.96l1.464.326q-.217.972-.424 1.945Zm1.82-7.753-1.452-.375q.25-.97.512-1.94l1.448.39q-.26.962-.508 1.925ZM1002.01 925.197c-.422-.273-42.027-27.68-31.332-67.084l.178-.654.668.11c44.156 7.264 58.266 60.635 58.404 61.173l-1.454.371c-.134-.526-13.866-52.417-56.522-59.95-9.766 37.988 30.461 64.509 30.871 64.774ZM147.265 921.093c-2.001-2.261-3.887-4.38-4.963-5.457-17.517-17.517-29.713-61.198-18.872-101.224 2.912-10.756 8.454-32.738 10.842-42.558 3.146-12.941-5.893-25.552-14.029-33.852-1.824-1.861-3.755-3.726-5.623-5.53-7.552-7.29-15.36-14.827-19-24.762-6.028-16.459 1.063-34.796 6.76-49.53 5.977-15.454 11.763-33.213 4.726-48.393a64.85 64.85 0 0 0-3.54-6.332 50.314 50.314 0 0 1-4.493-8.578c-1.953-5.283-1.8-12.65 3.15-16.338 3.647-2.718 8.565-2.45 11.947-2.012a56.636 56.636 0 0 1 34.844 18.574c13.541 15.438 15.114 36.64 16.634 57.144 1.485 20.02 3.02 40.72 15.76 55.838 6.26 7.43 15.024 16.35 22.757 24.223 2.08 2.116 4.074 4.146 5.911 6.037a40.759 40.759 0 0 1 8.626 14.138l-1.403.53a39.286 39.286 0 0 0-8.298-13.622c-1.836-1.89-3.828-3.918-5.906-6.032-7.752-7.891-16.538-16.834-22.835-24.307-13.053-15.49-14.606-36.437-16.108-56.694-1.502-20.258-3.055-41.205-16.266-56.266a55.118 55.118 0 0 0-33.909-18.076c-4.963-.643-8.414-.094-10.858 1.727-4.332 3.229-4.404 9.84-2.639 14.616a49.211 49.211 0 0 0 4.367 8.318 65.986 65.986 0 0 1 3.62 6.482c7.284 15.713 1.4 33.822-4.687 49.563-5.607 14.5-12.585 32.546-6.75 48.474 3.52 9.61 11.202 17.027 18.632 24.2 1.875 1.81 3.814 3.682 5.653 5.558 8.402 8.571 17.723 21.646 14.414 35.256-2.389 9.828-7.936 31.829-10.852 42.596-10.7 39.508 1.264 82.55 18.486 99.772 1.107 1.107 2.931 3.156 5.026 5.523ZM261.428 928.712l-1.107-1.012c.322-.353 31.875-35.46 18.42-71.575-15.198 4.328-26.032 12.321-32.206 23.765-11.174 20.714-3.226 45.954-3.144 46.207l-1.428.46c-.083-.258-8.223-26.108 3.252-47.379 6.464-11.983 17.831-20.287 33.784-24.683l.654-.18.245.632c14.41 37.213-18.14 73.404-18.47 73.765Z" class="colora0a9af svgShape"></path><path fill="#A0A9AF" d="M211.825 934.692c-29.198-20.934-36.05-54.28-36.658-78.567a174.396 174.396 0 0 1 5.714-48.074l.266-.897.817.454c37.914 21.063 53.082 83.382 53.23 84.01l-1.459.346c-.146-.616-14.944-61.39-51.67-82.574a174.913 174.913 0 0 0-5.397 46.738c.604 23.933 7.346 56.779 36.03 77.345ZM176.911 767.576q-.263-.924-.579-1.884l1.426-.468q.324.988.596 1.941Zm-2.688-7.438q-.382-.9-.795-1.82l1.369-.614q.419.933.807 1.848Zm-3.374-7.207q-.445-.88-.91-1.773l1.33-.693q.47.9.919 1.789Zm-3.758-7.037q-.484-.866-.981-1.739l1.303-.742q.5.878.987 1.749Zm-3.999-6.917-1.026-1.714 1.285-.774 1.03 1.72Zm-4.154-6.833-1.055-1.698 1.272-.794 1.058 1.702Zm-4.253-6.779-1.07-1.686 1.265-.805 1.072 1.688Zm-4.303-6.749-1.079-1.686 1.264-.808 1.079 1.686Zm-4.314-6.752-1.074-1.69 1.267-.804 1.073 1.69Zm-4.274-6.785-1.054-1.706 1.278-.785 1.05 1.7Zm-4.16-6.869q-.516-.882-1.007-1.738l1.302-.746q.486.85 1 1.726Zm-3.9-7.046q-.474-.93-.897-1.812l1.353-.648q.414.864.88 1.778Zm-3.175-7.496a26.932 26.932 0 0 1-.49-1.998l1.469-.304c.138.667.293 1.301.462 1.886Zm-1.281-8.041q-.072-.985-.12-2.017l1.499-.07q.046 1.012.117 1.977Zm1.279-8.045-1.5-.011q.007-.992.028-2.01l1.5.03q-.02 1.008-.028 1.991Zm.232-7.97-1.498-.069q.046-.994.098-2.002l1.498.078q-.052 1.003-.098 1.993Zm.45-7.976-1.498-.096.13-2.001 1.497.098Zm.53-7.987-1.496-.1.133-1.995 1.497.099Zm.508-7.992-1.498-.087.11-1.994 1.499.08q-.053.995-.111 2Zm.371-8.014-1.499-.047q.032-1.006.055-1.993l1.5.033q-.023.994-.056 2.007Zm-1.421-8.01q-.019-1.01-.056-1.986l1.5-.056q.037.99.055 2.014Zm-.508-7.902q-.126-1.005-.286-1.946l1.478-.252q.167.972.296 2.011Zm-1.856-7.525a11.322 11.322 0 0 0-.895-1.644l1.248-.832a12.815 12.815 0 0 1 1.017 1.863ZM479.656 299.131h-1.5v-2h1.5Zm0-8h-1.5v-2h1.5Zm0-8h-1.5v-2h1.5Zm0-8h-1.5v-2h1.5Zm0-8h-1.5v-2h1.5Zm0-8h-1.5v-2h1.5Zm0-8h-1.5v-2h1.5Zm0-8h-1.5v-2h1.5Zm0-8h-1.5v-2h1.5Zm0-8h-1.5v-2h1.5Zm0-8h-1.5v-2h1.5Zm0-8h-1.5v-2h1.5Zm0-8h-1.5v-2h1.5Zm0-8h-1.5v-2h1.5Zm0-8h-1.5v-2h1.5Zm0-8h-1.5v-2h1.5Zm0-8h-1.5v-.95h1.5Z" class="colora0a9af svgShape"></path><path fill="#A0A9AF" d="M446.098 361.725h-1.5V191.707h-38.413l75.11-90.987 75.11 90.987h-38.414v64.353h-1.5v-65.853h36.731l-71.927-87.131-71.927 87.131h36.73v171.518zM380.367 358.512h-1.5V257.561h-10.588l20.663-25.029 20.662 25.029h-10.588v36.473h-1.5v-37.973h8.905l-17.479-21.173-17.48 21.173h8.905v102.451z" class="colora0a9af svgShape"></path><path fill="#103050" d="M78.923 933.685h1129.056v1.5H78.923z" class="color103050 svgShape"></path><path fill="url(&quot;#a&quot;)" d="M654.154 760.304a64.43 64.43 0 0 1 50.479 24.332V407.543c0-23.015-18.659-52.239-41.674-52.239v-1.174c-23.016 0-41.674 30.398-41.674 53.413v361.758a64.247 64.247 0 0 1 32.87-8.997Z"></path><path fill="url(&quot;#g&quot;)" d="M659.676 755.609a62.217 62.217 0 0 0-62.217 62.217v21.13h124.435v-21.13a62.217 62.217 0 0 0-62.218-62.217Z"></path><path fill="url(&quot;#b&quot;)" d="m733.637 821.881 145.166-43.136s-5.899-19.83-14.215-35.863c-18.415-36.846-135.393-49.465-135.393-223.611 0-28.583-9.745-53.304-23.908-65.127v307.117s23.694 16.435 28.35 60.62Z"></path><path fill="url(&quot;#h&quot;)" d="M585.931 826.577 440.765 783.44s5.9-19.83 14.216-35.862c18.415-36.847 135.393-49.466 135.393-223.612 0-28.582 9.745-53.304 23.908-65.126v307.117s-23.694 16.434-28.35 60.62Z"></path><path fill="#103050" d="M712.436 870.254H597.239v-26.18h1.5v24.68h112.197v-23.213h1.5v24.713zM558.94 624.155h-1.5V359.783a361.667 361.667 0 0 1 16.989-110.39c12.993-40.606 51.297-129.621 80.478-129.621 12.4 0 27.28 15.195 44.23 45.164 18.1 32 30.938 67.26 34.442 77.306a360.809 360.809 0 0 1 19.873 119.146V620.94h-1.5V361.387a359.31 359.31 0 0 0-19.79-118.651c-17.03-48.825-51.658-121.464-77.255-121.464-26.788 0-64.703 83.743-79.05 128.578a360.17 360.17 0 0 0-16.918 109.933ZM557.337 818.186h1.5v43.482h-1.5zM495.854 800.09h1.5v61.578h-1.5zM497.354 695.995h-1.5V385.199h57.442v1.5h-55.942v309.296z" class="color103050 svgShape"></path><path fill="#103050" d="M554.044 374.24h-58.19v-21.215c0-26.068 21.347-59.276 31.49-59.276 10.145 0 31.493 33.208 31.493 59.276v13.494h-1.5v-13.495c0-26.308-21.52-57.775-29.992-57.775-8.472 0-29.991 31.467-29.991 57.775v19.715h56.69ZM580.142 818.905l-145.884-43.35.214-.72c.059-.199 6.014-20.082 14.267-35.994 5.112-10.228 17.414-18.433 32.989-28.821 40.746-27.177 102.32-68.247 102.32-194.445 0-28.074 9.263-53.249 24.174-65.7l.961 1.152c-14.578 12.173-23.634 36.906-23.634 64.548 0 127-61.977 168.338-102.989 195.692-15.39 10.265-27.545 18.373-32.484 28.255-7.308 14.089-12.805 31.327-13.947 35.023l144.44 42.922ZM813.062 800.09h1.5v61.578h-1.5zM751.579 823.669h1.5v40.564h-1.5zM731.851 818.905l-.427-1.438 144.441-42.921c-1.143-3.697-6.64-20.934-13.943-35.014-4.944-9.892-17.1-18-32.489-28.265-41.011-27.354-102.988-68.692-102.988-195.692 0-27.644-9.058-52.379-23.639-64.55l.962-1.152c14.913 12.449 24.177 37.625 24.177 65.702 0 126.198 61.575 167.268 102.32 194.444 15.575 10.389 27.877 18.594 32.994 28.832 8.248 15.903 14.204 35.785 14.263 35.984l.214.72ZM613.962 761.743h-1.5V421.786c0-40.054 18.63-72.248 42.412-73.294.147 0 .26.005.373.012l.212.01a2.593 2.593 0 0 1 .622.027c11.438.509 22.115 8.387 30.07 22.19 7.917 13.737 12.277 31.868 12.277 51.055v37.997h-1.5v-37.997c0-38.614-18.382-70.8-40.977-71.75l-.154-.022a1.132 1.132 0 0 0-.22-.004l-.118.004a6.515 6.515 0 0 1-.3-.012c-.084-.006-.167-.01-.252-.01-10.9.48-21.165 8.109-28.869 21.482-7.787 13.519-12.076 31.386-12.076 50.312Z" class="color103050 svgShape"></path><path fill="#103050" d="M696.928 459.783h1.5v294.559h-1.5zM722.392 837.964H588.499v-20.05c0-32.887 28.06-58.973 55.188-65.195l.335 1.462C617.467 760.271 590 785.775 590 817.914v18.55h130.893v-18.55c0-34.843-33.112-63.07-62.717-65.027l.099-1.497c30.266 2.002 64.118 30.877 64.118 66.524ZM577.024 904.706h-99.483l18.755-38.524h61.973Zm-97.084-1.5h94.686l-17.295-35.524h-60.097ZM833.244 904.706H733.106l18.754-38.524h62.629Zm-97.74-1.5h95.342l-17.295-35.524h-60.753Z" class="color103050 svgShape"></path><path fill="#103050" d="M746.49 903.956h1.5v28.012h-1.5zM819.797 903.956h1.5v28.012h-1.5zM491.253 903.956h1.5v28.012h-1.5zM564.56 903.956h1.5v28.012h-1.5zM683.877 431.229l-1.183-1.263a37.316 37.316 0 0 0-54.497 0l-1.184 1.263-.112-1.727a28.82 28.82 0 0 1-.068-1.873 28.612 28.612 0 0 1 57.225 0c0 .63-.028 1.253-.068 1.873Zm-28.431-14.584a38.995 38.995 0 0 1 27.112 11.04v-.056a27.112 27.112 0 0 0-54.225 0v.056a38.996 38.996 0 0 1 27.113-11.04ZM620.1 385.692l-.895-1.204a60.843 60.843 0 0 1 70.867-1.16l-.855 1.233a59.344 59.344 0 0 0-69.117 1.13ZM703.287 554.742h26.698v1.5h-26.698zM703.287 569.125h28.068v1.5h-28.068zM580.425 569.125h28.277v1.5h-28.277zM582.239 554.742h26.463v1.5h-26.463zM621.198 598.498h11.712v1.5h-11.712zM621.198 613.222h11.712v1.5h-11.712zM621.198 627.945h11.712v1.5h-11.712zM621.198 642.669h11.712v1.5h-11.712zM621.198 657.393h11.712v1.5h-11.712zM680.753 598.498h11.712v1.5h-11.712zM680.753 613.222h11.712v1.5h-11.712zM680.753 627.945h11.712v1.5h-11.712zM680.753 642.669h11.712v1.5h-11.712zM680.753 657.393h11.712v1.5h-11.712zM636.694 575.298a3.6 3.6 0 1 1 3.6-3.6 3.604 3.604 0 0 1-3.6 3.6Zm0-5.7a2.1 2.1 0 1 0 2.1 2.1 2.103 2.103 0 0 0-2.1-2.1ZM636.694 682.004a3.6 3.6 0 1 1 3.6-3.6 3.604 3.604 0 0 1-3.6 3.6Zm0-5.7a2.1 2.1 0 1 0 2.1 2.1 2.103 2.103 0 0 0-2.1-2.1Z" class="color103050 svgShape"></path><path fill="#103050" d="M635.944 574.548h1.5v101.349h-1.5zM674.071 575.298a3.6 3.6 0 1 1 3.6-3.6 3.604 3.604 0 0 1-3.6 3.6Zm0-5.7a2.1 2.1 0 1 0 2.1 2.1 2.102 2.102 0 0 0-2.1-2.1ZM674.071 682.004a3.6 3.6 0 1 1 3.6-3.6 3.604 3.604 0 0 1-3.6 3.6Zm0-5.7a2.1 2.1 0 1 0 2.1 2.1 2.102 2.102 0 0 0-2.1-2.1Z" class="color103050 svgShape"></path><path fill="#103050" d="M673.321 574.548h1.5v101.349h-1.5zM740.52 276.415c-92.08-22.119-168.642-.233-169.404-.01l-.423-1.439c.766-.225 77.692-22.226 170.178-.01ZM577.404 255.23l-.422-1.44s.669-.196 1.957-.532l.378 1.451a73.253 73.253 0 0 0-1.913.52Zm152.308-1.042q-.975-.22-1.948-.432l.32-1.466q.978.214 1.958.435Zm-144.581-.878-.328-1.463q.929-.209 1.961-.43l.315 1.466q-1.025.22-1.948.427Zm136.774-.779q-.981-.196-1.958-.384l.284-1.473q.982.19 1.967.386Zm-128.959-.835-.28-1.473q.96-.183 1.972-.368l.27 1.475q-1.008.184-1.962.366Zm121.113-.631q-.985-.172-1.967-.337l.249-1.479q.985.166 1.975.338Zm-113.251-.75-.24-1.482q.973-.157 1.981-.314l.23 1.483q-1.003.155-1.971.312Zm105.372-.526q-.99-.148-1.975-.29l.213-1.484q.99.142 1.984.29Zm-97.475-.65-.203-1.486q.981-.133 1.988-.264l.193 1.488q-1.002.13-1.978.263Zm89.567-.438q-.993-.124-1.98-.242l.177-1.49q.992.119 1.99.244Zm-81.644-.54-.166-1.491q.987-.11 1.994-.217l.157 1.492q-1.003.106-1.985.215Zm73.712-.36q-.995-.101-1.986-.196l.143-1.493q.995.095 1.995.197Zm-65.766-.432-.132-1.494q.99-.087 1.998-.17l.122 1.496q-1.003.082-1.988.168Zm57.816-.283q-.998-.077-1.99-.15l.108-1.495q.996.072 1.998.15Zm-49.855-.323-.097-1.497q.994-.064 2.001-.124l.088 1.498q-1.003.059-1.992.123Zm41.89-.206q-1-.055-1.994-.104l.074-1.498q.998.049 2.002.104Zm-33.917-.218-.062-1.5q.995-.04 2.003-.077l.054 1.499q-1.003.036-1.995.078Zm25.941-.129q-1-.032-1.995-.058l.04-1.5q.997.027 2.003.059Zm-17.96-.115-.029-1.5q.997-.019 2.004-.032l.02 1.5q-1.002.013-1.995.032Zm9.98-.05q-1.003-.008-1.997-.012l.006-1.5q.997.004 2.004.013ZM747.857 314.207c-102.066-24.517-184.182-.26-184.999-.011l-.435-1.436c.821-.249 83.304-24.628 185.784-.011ZM742.939 334.72l-1.178-.28.346-1.46 1.182.282Zm-175.163-.01-.435-1.436s.666-.202 1.952-.55l.392 1.447a73.816 73.816 0 0 0-1.909.538Zm168.147-1.603q-.976-.214-1.95-.423l.314-1.467q.978.21 1.958.425Zm-160.438-.39-.343-1.46q.927-.218 1.957-.45l.33 1.463q-1.023.23-1.944.447Zm152.623-1.24q-.982-.194-1.96-.382l.283-1.473q.982.189 1.967.383Zm-144.824-.455-.296-1.47q.957-.193 1.967-.39l.287 1.473q-1.006.195-1.958.387Zm136.975-1.008q-.985-.173-1.967-.34l.252-1.479q.985.168 1.974.341Zm-129.128-.462-.258-1.478q.971-.169 1.977-.338l.248 1.48q-1.001.168-1.967.336Zm121.25-.835q-.989-.151-1.974-.297l.22-1.484q.99.146 1.982.299Zm-113.368-.437-.221-1.483q.978-.146 1.984-.29l.212 1.485q-1 .143-1.975.288Zm105.464-.692q-.991-.131-1.98-.256l.19-1.488q.991.125 1.987.257Zm-97.553-.394-.187-1.488q.984-.124 1.99-.244l.178 1.489q-1 .12-1.981.243Zm89.627-.57q-.994-.11-1.984-.214l.157-1.492q.994.105 1.992.216Zm-81.693-.338-.155-1.492q.989-.102 1.995-.2l.146 1.492q-1.002.098-1.986.2Zm73.749-.459q-.997-.09-1.989-.173l.126-1.495q.996.085 1.997.175Zm-65.798-.277-.122-1.495q.992-.08 1.998-.158l.115 1.496q-1.002.076-1.99.157Zm57.838-.354q-.999-.07-1.991-.132l.095-1.497q.997.063 2 .132Zm-49.872-.212-.09-1.498q.994-.06 2-.116l.083 1.498q-1.003.056-1.993.116Zm41.902-.255-1.995-.09.065-1.5 2.001.092Zm-33.926-.145-.06-1.499q.997-.04 2.003-.074l.052 1.5Zm25.947-.156q-1.002-.028-1.996-.05l.033-1.5q.999.022 2.004.05Zm-17.965-.077-.028-1.5 2.003-.033.021 1.5Zm9.981-.06q-1.002-.008-1.996-.01l.002-1.5q.998.002 2.004.01Z" class="color103050 svgShape"></path><path fill="#103050" d="m573.004 308.871-1.297-.753 22.388-38.597 19.286 30.438-1.267.802-17.962-28.348-21.148 36.458zM661.031 303.291l-1.272-.795 22.395-35.819 20.957 32.568-1.261.812-19.678-30.579-21.141 33.813zM615.086 304.985l-1.291-.763 22.393-37.908 20.972 33.291-1.269.799-19.662-31.211-21.143 35.792zM705.031 304.706l-1.232-.854 22.345-32.236 13.931 17.665-1.178.929-12.675-16.073-21.191 30.569zM496.604 364.832h61.483v1.5h-61.483zM503.831 373.988h1.5v10.964h-1.5z" class="color103050 svgShape"></path><path fill="#103050" d="M510.497 708.473h1.5v146.478h-1.5z" transform="rotate(-74.155 511.247 781.711)" class="color103050 svgShape"></path><path fill="#103050" d="M727.682 780.961H874.16v1.5H727.682z" transform="rotate(-15.847 800.92 781.711)" class="color103050 svgShape"></path><path fill="#103050" d="M607.167 735.76h-2v-1.5h2Zm-8 0h-2v-1.5h2Zm-8 0h-2v-1.5h2Zm-8 0h-2v-1.5h2Zm-8 0h-2v-1.5h2Zm-8 0h-2v-1.5h2Zm-8 0h-2v-1.5h2Zm-8 0h-2v-1.5h2Zm-8 0h-2v-1.5h2Zm-8 0h-2v-1.5h2Zm-8 0h-2v-1.5h2Zm-8 0h-2v-1.5h2Zm-8 0h-2v-1.5h2Zm-8 0h-2v-1.5h2Zm-8 0h-2v-1.5h2Zm-8 0h-2v-1.5h2Zm-8 0h-2v-1.5h2Zm-8 0h-2v-1.5h2Zm-8 0h-2v-1.5h2Zm-8 0h-2v-1.5h2ZM854.604 735.76h-2v-1.5h2Zm-8 0h-2v-1.5h2Zm-8 0h-2v-1.5h2Zm-8 0h-2v-1.5h2Zm-8 0h-2v-1.5h2Zm-8 0h-2v-1.5h2Zm-8 0h-2v-1.5h2Zm-8 0h-2v-1.5h2Zm-8 0h-2v-1.5h2Zm-8 0h-2v-1.5h2Zm-8 0h-2v-1.5h2Zm-8 0h-2v-1.5h2Zm-8 0h-2v-1.5h2Zm-8 0h-2v-1.5h2Zm-8 0h-2v-1.5h2Zm-8 0h-2v-1.5h2Zm-8 0h-2v-1.5h2Zm-8 0h-2v-1.5h2Zm-8 0h-2v-1.5h2Zm-8 0h-2v-1.5h2ZM669.041 388.567h-.42v-1.5h.42Zm-6.42 0h-2v-1.5h2Zm-8 0h-2v-1.5h2Zm-8 0h-2v-1.5h2ZM649.356 457.461h14.951v1.5h-14.951zM618.792 156.544l-.254-1.478 36.871-6.328 35.195 6.329-.266 1.476-34.935-6.282-36.611 6.283zM503.584 429.802h50.459v1.5h-50.459zM503.584 511.658h50.459v1.5h-50.459zM503.584 446.622h50.459v1.5h-50.459zM818.277 695.995h-1.5V386.699h-55.943v-1.5h57.443v310.796zM818.277 374.24h-58.19v-1.5h56.69v-19.715c0-26.309-21.52-57.776-29.992-57.776s-29.992 31.467-29.992 57.776v13.494h-1.5v-13.495c0-26.067 21.348-59.275 31.492-59.275 10.145 0 31.492 33.208 31.492 59.275Z" class="color103050 svgShape"></path><path fill="#103050" d="M756.043 364.832h61.483v1.5h-61.483zM760.087 429.802h50.459v1.5h-50.459zM760.087 511.658h50.459v1.5h-50.459zM760.087 446.622h50.459v1.5h-50.459zM551.801 722.845a13.084 13.084 0 1 1 13.085-13.085 13.1 13.1 0 0 1-13.085 13.085Zm0-24.67a11.584 11.584 0 1 0 11.585 11.585 11.598 11.598 0 0 0-11.585-11.584ZM528.876 863.01a6.357 6.357 0 1 1 6.357-6.357 6.364 6.364 0 0 1-6.357 6.357Zm0-11.214a4.857 4.857 0 1 0 4.857 4.857 4.862 4.862 0 0 0-4.857-4.857ZM767.844 719.48h-36.26v-18.319h36.26Zm-34.76-1.5h33.26v-15.319h-33.26Z" class="color103050 svgShape"></path><path fill="#103050" d="M524.596 812.548h1.5v39.869h-1.5zM531.366 812.548h1.5v39.869h-1.5zM499.473 875.713h55.692v1.5h-55.692zM783.79 863.01a6.357 6.357 0 1 1 6.356-6.357 6.364 6.364 0 0 1-6.356 6.357Zm0-11.214a4.857 4.857 0 1 0 4.856 4.857 4.862 4.862 0 0 0-4.856-4.857Z" class="color103050 svgShape"></path><path fill="#103050" d="M779.509 812.548h1.5v39.869h-1.5zM786.279 812.548h1.5v39.869h-1.5zM754.386 875.713h55.692v1.5h-55.692z" class="color103050 svgShape"></path><g fill="#000000" class="color000 svgShape"><path fill="url(&quot;#i&quot;)" d="M359.322 475.822c.755-.511 39.834-14.75 33.464-32.163-1.995-5.453-8.059-3.907-9.85-8.805s11.104-9.204 7.59-18.81c-5.753-15.723-25.356-14.572-25.356-14.572s8.604-11.898-1.546-24.002-19.192-3.244-19.192-3.244-15.76-19.837-48.729-2.566c-31.337 16.416-14.934 37.562-10.357 45.91 2.502 4.563 3.066 10.975-13.408 17.002-7.717 2.823-17.237 2.1-27.18 5.737s-18.378 12.782-14.957 22.132 12.459 12.437 12.459 12.437-19.351 5.06-13.379 21.386 34.942 13.636 54.235 6.577 48.802-30.812 48.802-30.812Z"></path><path fill="#FFD3B7" d="m421.428 460.786 7.68-4.308 2.365 1.11-7.653 5.6Z" class="colorffd3b7 svgShape"></path><path fill="#FFD3B7" d="m429.062 457.635.047-1.157 6.904-1.349.52.927-5.06 1.533-2.411.046z" class="colorffd3b7 svgShape"></path><path fill="#103050" d="m445.64 535.885-53.315-17.206 40.541-69.018 57.318 5.737Zm-51.075-18.06 50.361 16.254 42.843-77.416-54.096-5.414Z" class="color103050 svgShape"></path><path fill="#FFD3B7" d="m410.458 661.06 3.38 4.412 1.131 4.097-3.146-1.401-2.065-3.211.7-3.897z" class="colorffd3b7 svgShape"></path><path fill="url(&quot;#c&quot;)" d="m412.657 672.802-2.12-2.165.359 5.3 3.005.436 1.051-2.18-2.295-1.391z"></path><path fill="#FFD3B7" d="M414.816 671.737a12.867 12.867 0 0 1-3.64-3.019c.982-1.816 5.509.222 8.967 3.208.526.453 1.04.86 1.538 1.228-1.565.328-4.173-.163-6.865-1.417Z" class="colorffd3b7 svgShape"></path><path fill="url(&quot;#j&quot;)" d="M411.445 668.312a16.1 16.1 0 0 0 4.224 2.77c2.693 1.253 3.784 1.893 5.348 1.565 3.496 2.584 7.643 3.069 7.072 4.297-.653 1.402-3.947.982-9.48-.82-5.816-1.894-8.097-4.365-8.14-5.911a1.997 1.997 0 0 1 .976-1.901Z"></path><path fill="url(&quot;#k&quot;)" d="m312.355 509.918 26.557 1.6s60.453 31.842 67.534 58.496c7.782 27.284 7.813 96.02 7.813 96.02l-4.107.218s-14.1-26.185-17.515-45.259c-3.314-18.51-.918-45.53-.918-45.53s-47.925 3.947-69.496-30.414c-12.877-20.512-9.868-35.13-9.868-35.13Z"></path><path fill="#FFD3B7" d="m330.25 664.433 1.894 3.209-1.443 4.554-2.802-1.595.185-3.885 2.166-2.283z" class="colorffd3b7 svgShape"></path><path fill="url(&quot;#l&quot;)" d="m328.408 674.876-1.896-2.362-.166 5.309 2.949.73 1.26-2.066-2.147-1.611z"></path><path fill="#FFD3B7" d="M330.661 674.03a12.868 12.868 0 0 1-3.324-3.363c1.156-1.711 5.46.763 8.607 4.075.478.503.95.96 1.41 1.374-1.59.172-4.137-.574-6.693-2.086Z" class="colorffd3b7 svgShape"></path><path fill="url(&quot;#m&quot;)" d="M327.644 670.29a16.097 16.097 0 0 0 3.931 3.172c2.556 1.512 3.578 2.257 5.168 2.084 3.224 2.916 7.303 3.807 6.613 4.973-.787 1.331-4.024.588-9.352-1.75-5.601-2.458-7.628-5.141-7.519-6.685a1.997 1.997 0 0 1 1.16-1.795Z"></path><path fill="#FFD3B7" d="m426.874 460.953 2.643-.178 2.12-1.189s1.168.998.668 1.192-2.649 1.486-2.649 1.486l-3.706 2.082-2.13-1.159Z" class="colorffd3b7 svgShape"></path><path fill="#FFD3B7" d="M425.95 464.346s-2.547-.502-5.935 1.892-3.291-1.424-3.291-1.424a27.443 27.443 0 0 1 4.704-4.028c1.939-1.087 4.522 3.56 4.522 3.56Z" class="colorffd3b7 svgShape"></path><path fill="url(&quot;#d&quot;)" d="M348.783 437.09s20.489 14.207 31.054 38.243c12.213-8.084 40.089-13.782 40.089-13.782l2.315 3.93s-28.224 25.162-46.698 25.196c-18.768-8.128-43.279-22.136-43.279-22.136Z"></path><path fill="url(&quot;#n&quot;)" d="m340.137 516.674-1.484 10.986s40.873 34.218 34.718 53.65-41.421 87.619-41.421 87.619l-4.126-.561s-1.012-27.082 4.84-48.286 23.384-41.065 23.384-41.065-66.376-12.34-60.286-45.391c3.003-24.102 17.035-28.581 17.035-28.581Z"></path><path fill="url(&quot;#o&quot;)" d="M345.462 513.25a87.08 87.08 0 0 1 5.936-25.04c5.26-13.242 8.486-30.571 3.616-42.235-6.177-14.792-22.598-16.297-40.097-12.982s-29.618 24.955-27.91 44.225c1.557 17.55 10.568 45.63 10.568 45.63s30.405 4.34 47.887-9.598Z"></path><path fill="url(&quot;#e&quot;)" d="M335.46 412.581s-5.857 11.883-1.195 24.901-14.467 2.613-14.467 2.613-2.606-18.143 10.785-29.469 4.877 1.955 4.877 1.955Z"></path><path fill="url(&quot;#p&quot;)" d="M337.586 437.333c3.566 5.617 5.396 12.42.446 15.562s-12.177.019-15.742-5.598-3.569-12.27 1.381-15.413 10.35-.168 13.915 5.449Z"></path><path fill="url(&quot;#q&quot;)" d="M330.983 409.61c2.221 6.021 7.158 9.745 11.025 8.318s5.202-7.465 2.98-13.486-7.157-9.744-11.025-8.317-5.202 7.464-2.98 13.485Z"></path><path fill="url(&quot;#r&quot;)" d="M317.094 395.915c.902 4.76 7.278 8.507 14.024 7.229s11.31-7.098 10.408-11.857-7.102-7.582-13.848-6.304-11.485 6.173-10.584 10.932Z"></path><path fill="url(&quot;#s&quot;)" d="M327.995 406.469c.247 1.306 1.207 2.221 2.144 2.044s1.496-1.38 1.248-2.687-1.207-2.221-2.144-2.044-1.496 1.38-1.248 2.687Z"></path><path fill="#103050" d="M372.628 571.964c-3.397-12.204-10.976-22.1-16.735-28.252l1.095-1.025c5.874 6.275 13.606 16.378 17.085 28.875Z" class="color103050 svgShape"></path><path fill="#FFD3B7" d="m389.174 520.494 8.606-1.869 1.033-2.4-9.442.886Z" class="colorffd3b7 svgShape"></path><path fill="#FFD3B7" d="m396.977 517.79.803.835 6.061-3.569-.225-1.039-4.803 2.209-1.836 1.564zM390.197 514.83s-1.573 2.066-5.696 2.52-1.52 3.25-1.52 3.25a27.447 27.447 0 0 0 6.193-.106c2.172-.471 1.023-5.663 1.023-5.663Z" class="colorffd3b7 svgShape"></path><path fill="url(&quot;#t&quot;)" d="m291.584 463.422-1.892 11.865a196.364 196.364 0 0 0 41.98 48.088c23.064 7.245 53.864-.677 53.864-.677l-.526-5.895s-27.85-7.065-44.619-8.957c-3.72-20.915-15.305-39.82-15.305-39.82Z"></path><path fill="#103050" d="M345.721 509.282a19.012 19.012 0 0 0-4.727-.899l-.595-.034-.101-.588c-2.62-15.325-15.171-37.27-15.298-37.49l1.3-.747c.127.22 12.503 21.855 15.374 37.409a18.675 18.675 0 0 1 4.595.953Z" class="color103050 svgShape"></path><path fill="#FFD3B7" d="m393.14 516.758 2.096-1.62 2.374-.515s.213-1.523-.29-1.336-2.968.645-2.968.645l-4.155.899-.825 2.28Z" class="colorffd3b7 svgShape"></path><path fill="#103050" d="m434.108 525.627-14.89-25.227 22.288-4.035-4.025-15.521 1.452-.376 4.431 17.085-21.759 3.939 13.795 23.372-1.292.763zM440.548 478.669l-.121-1.495 21.237-1.719-4.488-13.127 1.419-.486 5.113 14.953-23.16 1.874z" class="color103050 svgShape"></path><path fill="#103050" d="M437.425 481.382a3.46 3.46 0 1 1 .187-.005 3.522 3.522 0 0 1-.187.005Zm.007-5.404c-.035 0-.07 0-.105.003a1.952 1.952 0 1 0 2.052 1.846 1.952 1.952 0 0 0-1.947-1.85Z" class="color103050 svgShape"></path><path fill="#FFD3B7" d="m828.24 345.908-7.1 4.732-2.366-.898 6.978-5.976 2.152.851Z" class="colorffd3b7 svgShape"></path><path fill="#FFD3B7" d="m821.099 349.518.041 1.122-6.57 1.814-.571-.857 4.775-1.855 2.325-.224zM822.967 346.15l-2.54.369-1.959 1.305s-1.204-.877-.734-1.102 2.448-1.631 2.448-1.631l3.37-1.891 2.2.566ZM828.24 345.908l4.163-2.497-1.281-3.127-4.705 4.355 1.823 1.269z" class="colorffd3b7 svgShape"></path><path fill="url(&quot;#u&quot;)" d="m909.025 235.8 6.03 7.968s-6.703 45.743-39.216 74.5c-7.59 13.289-47.674 28.032-47.674 28.032l-3.971-3.445s23.218-24.135 34.975-35.806c3.813-18.17 8.204-60.325 8.844-59.681s41.012-11.568 41.012-11.568Z"></path><path fill="#FFD3B7" d="m995.035 371.947 1.346 8.426-1.802 1.777-2.528-8.833Z" class="colorffd3b7 svgShape"></path><path fill="#FFD3B7" d="m995.344 379.943 1.037.43-1.086 6.728-1.016.163.3-5.114.765-2.207zM993.06 376.842l-.723 2.463.371 2.325s-1.299.729-1.307.209-.464-2.906-.464-2.906l-.653-4.067 1.767-1.549ZM914.279 502.13l-.614 3.96.956 14.736 2.386.984 1.082-2.908-.588-14.188-3.222-2.584z" class="colorffd3b7 svgShape"></path><path fill="#46082B" d="m916.123 519.208-1.948-.116s-7.06.704-10.767 2.703a.75.75 0 0 0 .369 1.402h14.312v-4.745Z" class="color46082b svgShape"></path><path fill="#FFD3B7" d="m945.934 505.82-.613 3.959.955 14.736 2.387.985 1.082-2.909-.588-14.188-3.223-2.583z" class="colorffd3b7 svgShape"></path><path fill="#46082B" d="m947.779 522.898-1.949-.116s-7.059.704-10.766 2.702a.75.75 0 0 0 .369 1.403h14.312v-4.745Z" class="color46082b svgShape"></path><path fill="url(&quot;#v&quot;)" d="m911.747 232.36 13.472-2.152c-1.757-6.036-5.018-16.653-8.77-26.017l-6.67 1.066a97.014 97.014 0 0 1 1.968 27.103Z"></path><path fill="url(&quot;#f&quot;)" d="m910.817 326.106-3.34 101.433s5.248 68.06 5.248 79.18h5.962s4.412-49.024 1.43-75.642c5.009-32.682 11.806-98.4 11.806-98.4Z"></path><path fill="url(&quot;#w&quot;)" d="M938.509 329.732v101.497s5.246 68.06 5.246 79.178h5.963s4.412-49.023 1.43-75.64c5.009-32.683 9.95-112.367 9.95-112.367Z"></path><path fill="url(&quot;#x&quot;)" d="M921.408 339.34s5.874 7.027 19.966 11.194 5.721-37.058 5.721-37.058l-30.102 3.403Z"></path><path fill="url(&quot;#y&quot;)" d="M868.013 247.368s-.276-14.559 48.76-24.227 54.901 7.267 54.901 7.267 12.05 77.423-14.552 94.947-44.863 8.08-49.647 5.837-38.807-63.885-39.462-83.824Z"></path><path fill="url(&quot;#z&quot;)" d="m960.802 229.894 9.529-1.522s33.764 33.813 28.041 85.374c3.926 14.79-2.682 59.644-2.682 59.644l-6.145 1.75s-8.436-38.43-8.259-54.995c-10.042-15.616-21.153-58.542-20.245-58.532s-.24-31.719-.24-31.719Z"></path><path fill="#FFD3B7" d="M913.798 223.616a275.088 275.088 0 0 0-7.808 1.64c-.001.044-.242 13.43 9.135 11.933 9.386-1.499 13.819-15.93 13.825-15.949-4.557.518-9.589 1.29-15.152 2.376Z" class="colorffd3b7 svgShape"></path><path fill="url(&quot;#A&quot;)" d="M889.124 171.697s-1.022-7.124 4.054-7.935 6.585 3.575 7.288 7.974-1.1 13.593 6.19 12.429 14.008 2.505 15.395 11.19-41.1 15.702-45.17-9.79c-1.531-9.586 1.561-17.02 5.734-17.687s6.51 3.819 6.51 3.819Z"></path><path fill="url(&quot;#B&quot;)" d="M919.05 196.642a1.275 1.275 0 0 0-.555.245 11.526 11.526 0 0 0-1.874-3.638 14.502 14.502 0 0 1-11.38 6.054 16.98 16.98 0 0 0-.21 2.51c-.049 6.108 3.093 11.085 7.017 11.116s7.144-4.896 7.192-11.005c.002-.223-.013-.44-.02-.66a1.27 1.27 0 0 0 .577.052c.925-.148 1.509-1.314 1.302-2.605s-1.123-2.216-2.049-2.069Z"></path><path fill="#C02800" d="M970.649 298.231a329.562 329.562 0 0 1-10.218-35.923l-.116-.506 1.451-.378c.014.052.057.24.128.552a328.06 328.06 0 0 0 10.167 35.75ZM913.7 238.058a6.838 6.838 0 0 1-5.418-2.476l1.139-.976a5.64 5.64 0 0 0 5.586 1.843c6.29-1.005 10.295-8.281 12.124-12.53l1.377.593c-1.95 4.532-6.266 12.3-13.264 13.418a9.794 9.794 0 0 1-1.544.127Z" class="colorc02800 svgShape"></path></g></svg></g></svg>