<svg width="33" height="32" viewBox="0 0 33 32" fill="none" xmlns="http://www.w3.org/2000/svg">
<path d="M16.4428 18.8574C12.5616 18.8574 9.28674 19.4916 9.28674 21.9394C9.28674 24.3881 12.5827 25 16.4428 25C20.324 25 23.5989 24.3658 23.5989 21.9181C23.5989 19.4693 20.3029 18.8574 16.4428 18.8574Z" fill="#4E2593"/>
<path d="M16.4427 16.5254C19.0708 16.5254 21.1782 14.4059 21.1782 11.7627C21.1782 9.11845 19.0708 7 16.4427 7C13.8146 7 11.7073 9.11845 11.7073 11.7627C11.7073 14.4059 13.8146 16.5254 16.4427 16.5254Z" fill="#4E2593"/>
<path d="M26.7241 12.8717C27.4041 10.197 25.4106 7.79492 22.8721 7.79492C22.5961 7.79492 22.3322 7.82532 22.0743 7.87699C22.0401 7.88509 22.0018 7.90231 21.9816 7.93271C21.9585 7.97121 21.9756 8.02288 22.0008 8.05631C22.7633 9.13225 23.2015 10.4422 23.2015 11.8484C23.2015 13.1959 22.7996 14.4522 22.0945 15.4947C22.0219 15.6021 22.0864 15.7469 22.2143 15.7692C22.3916 15.8006 22.5729 15.8169 22.7583 15.8219C24.6067 15.8705 26.2658 14.674 26.7241 12.8717Z" fill="#63A29D"/>
<path d="M28.6603 19.169C28.3219 18.4436 27.5049 17.9462 26.2629 17.702C25.6766 17.5581 24.0901 17.3555 22.6144 17.3829C22.5922 17.3859 22.5801 17.4011 22.5781 17.4112C22.5751 17.4254 22.5811 17.4497 22.6103 17.4649C23.2923 17.8043 25.9285 19.2805 25.5971 22.3938C25.583 22.5285 25.6907 22.6451 25.8247 22.6248C26.4734 22.5316 28.1426 22.1709 28.6603 21.0474C28.9464 20.4537 28.9464 19.7637 28.6603 19.169Z" fill="#63A29D"/>
<path d="M10.9255 7.87723C10.6686 7.82455 10.4037 7.79517 10.1277 7.79517C7.5892 7.79517 5.59569 10.1973 6.27665 12.8719C6.73397 14.6743 8.39304 15.8708 10.2415 15.8222C10.4268 15.8171 10.6092 15.7999 10.7854 15.7695C10.9134 15.7472 10.9778 15.6023 10.9053 15.4949C10.2002 14.4514 9.79827 13.1961 9.79827 11.8487C9.79827 10.4415 10.2375 9.13148 11 8.05655C11.0242 8.02312 11.0423 7.97145 11.0181 7.93295C10.998 7.90154 10.9607 7.88533 10.9255 7.87723Z" fill="#63A29D"/>
<path d="M6.73681 17.7017C5.49478 17.9458 4.67884 18.4433 4.34038 19.1687C4.05329 19.7634 4.05329 20.4533 4.34038 21.048C4.85814 22.1706 6.52729 22.5322 7.17601 22.6244C7.30998 22.6447 7.41676 22.5292 7.40265 22.3934C7.07124 19.2811 9.70742 17.805 10.3904 17.4656C10.4186 17.4494 10.4246 17.4261 10.4216 17.4109C10.4196 17.4008 10.4085 17.3856 10.3864 17.3835C8.90962 17.3552 7.32408 17.5578 6.73681 17.7017Z" fill="#63A29D"/>
</svg>
