<svg width="32" height="32" viewBox="0 0 32 32" fill="none" xmlns="http://www.w3.org/2000/svg">
<path d="M13.1437 24.7821V21.7152C13.1437 20.9381 13.7757 20.3067 14.5584 20.3018H17.4326C18.2189 20.3018 18.8563 20.9346 18.8563 21.7152V24.7732C18.8562 25.4473 19.404 25.9951 20.0829 26H22.0438C22.9596 26.0023 23.8388 25.6428 24.4872 25.0007C25.1356 24.3586 25.5 23.4868 25.5 22.5775V13.8658C25.5 13.1314 25.1721 12.4347 24.6046 11.9635L17.943 6.67427C16.7785 5.74912 15.1154 5.77901 13.9854 6.74538L7.46701 11.9635C6.87274 12.4208 6.51755 13.1196 6.5 13.8658V22.5686C6.5 24.4637 8.04738 26 9.95617 26H11.8723C12.1992 26.0023 12.5135 25.8751 12.7455 25.6464C12.9775 25.4178 13.1079 25.1067 13.1079 24.7821H13.1437Z" fill="#4E2593"/>
<path d="M14 23C14 22.4477 14.4477 22 15 22H17C17.5523 22 18 22.4477 18 23V25C18 25.5523 17.5523 26 17 26H15C14.4477 26 14 25.5523 14 25V23Z" fill="#63A29D"/>
</svg>
