<svg width="25" height="25" viewBox="0 0 25 25" fill="none" xmlns="http://www.w3.org/2000/svg">
<g clip-path="url(#clip0_3_862)">
<path d="M15.463 11.2631C16.1877 11.5078 16.9664 11.5444 17.7108 11.3686C18.4552 11.1929 19.1353 10.812 19.674 10.269L23.952 5.99105C24.0557 5.87955 24.112 5.7322 24.1092 5.58001C24.1064 5.42781 24.0447 5.28263 23.9371 5.17499C23.8295 5.06736 23.6843 5.00566 23.5321 5.00288C23.3799 5.00009 23.2325 5.05643 23.121 5.16006L19.38 8.90105L17.717 7.23804L21.458 3.49705C21.5617 3.38554 21.618 3.2382 21.6152 3.08601C21.6124 2.93381 21.5507 2.78863 21.4431 2.68099C21.3355 2.57336 21.1903 2.51166 21.0381 2.50887C20.8859 2.50609 20.7385 2.56243 20.627 2.66605L16.886 6.40705L15.223 4.74406L18.964 1.00304C19.0677 0.891539 19.124 0.744197 19.1212 0.592002C19.1184 0.439808 19.0567 0.294624 18.9491 0.186988C18.8415 0.0793528 18.6963 0.0176563 18.5441 0.0148692C18.3919 0.012082 18.2445 0.0684275 18.133 0.17205L13.855 4.45005C13.3126 4.98908 12.932 5.66925 12.7563 6.41351C12.5806 7.15776 12.6169 7.93635 12.861 8.66105L12.885 8.73005L12.099 9.46805L10.52 7.98804L10.543 7.91904C10.7874 7.19421 10.8238 6.41542 10.6481 5.67097C10.4724 4.92651 10.0917 4.24617 9.54904 3.70705L7.76503 1.92306C6.99325 1.15128 5.94651 0.717689 4.85504 0.717689C3.76358 0.717689 2.71682 1.15128 1.94504 1.92306C1.17326 2.69484 0.739673 3.74158 0.739673 4.83305C0.739673 5.92451 1.17326 6.97127 1.94504 7.74305L3.72904 9.52705C4.26796 10.07 4.94831 10.4509 5.69284 10.6266C6.43737 10.8023 7.21625 10.7657 7.94104 10.521L8.01004 10.4981L9.41004 11.9891L0.722034 20.15C0.491469 20.3673 0.308263 20.6298 0.183902 20.9212C0.059541 21.2125 -0.00328199 21.5264 -0.000653204 21.8432C0.00197559 22.1599 0.0700121 22.4727 0.199191 22.762C0.32837 23.0512 0.515895 23.3107 0.750033 23.5241C1.16374 23.8978 1.70251 24.103 2.26004 24.0991C2.59323 24.0981 2.92267 24.0289 3.22811 23.8958C3.53354 23.7627 3.80851 23.5684 4.03604 23.3251L12.048 14.796L19.431 22.6551C19.6461 22.8836 19.9056 23.0658 20.1937 23.1903C20.4817 23.3148 20.7922 23.379 21.106 23.3791H21.124C21.441 23.3759 21.754 23.3075 22.0433 23.1782C22.3327 23.0488 22.5923 22.8612 22.806 22.6271C23.208 22.1615 23.4122 21.5573 23.3748 20.9434C23.3374 20.3294 23.0615 19.7544 22.606 19.3411L14.728 11.941L15.389 11.241L15.463 11.2631ZM3.18303 22.5221C2.97932 22.7505 2.69559 22.892 2.39052 22.9171C2.08545 22.9422 1.78239 22.8491 1.54404 22.6571C1.42947 22.553 1.33768 22.4263 1.27443 22.285C1.21119 22.1437 1.17785 21.9909 1.17653 21.8361C1.17522 21.6813 1.20595 21.5279 1.26679 21.3856C1.32762 21.2433 1.41725 21.1151 1.53003 21.0091L10.218 12.8471L11.245 13.9401L3.18303 22.5221ZM21.938 21.837C21.8343 21.9521 21.7078 22.0443 21.5664 22.1077C21.425 22.1711 21.272 22.2042 21.117 22.2051C20.9626 22.2047 20.8099 22.1731 20.6679 22.1123C20.526 22.0515 20.3978 21.9626 20.291 21.8511L8.61003 9.41904C8.53306 9.33713 8.43423 9.27899 8.32523 9.25152C8.21623 9.22405 8.10165 9.22839 7.99504 9.26404L7.56903 9.40604C7.05133 9.58072 6.49502 9.60669 5.96329 9.48101C5.43156 9.35533 4.94575 9.08302 4.56104 8.69504L2.77704 6.91105C2.22579 6.3598 1.91609 5.61215 1.91609 4.83256C1.91609 4.05297 2.22579 3.3053 2.77704 2.75405C3.32829 2.2028 4.07594 1.8931 4.85553 1.8931C5.63512 1.8931 6.38279 2.2028 6.93404 2.75405L8.71804 4.53805C9.10583 4.92309 9.37792 5.40913 9.50342 5.941C9.62892 6.47287 9.60281 7.02927 9.42804 7.54705L9.28604 7.97304C9.2506 8.07959 9.24645 8.19406 9.2741 8.30289C9.30175 8.41172 9.36003 8.51034 9.44203 8.58704L13.498 12.3971L21.798 20.197C22.0263 20.4007 22.1675 20.6844 22.1925 20.9893C22.2174 21.2942 22.1242 21.597 21.932 21.835L21.938 21.837ZM14.794 10.1601L13.876 11.1381L12.956 10.2741L13.962 9.32905C14.0438 9.2522 14.102 9.15358 14.1296 9.04481C14.1572 8.93603 14.1532 8.82162 14.118 8.71505L13.976 8.28805C13.8243 7.83754 13.7847 7.35683 13.8607 6.88758C13.9367 6.41833 14.1259 5.97468 14.412 5.59505L18.528 9.71105C18.1489 9.99771 17.7054 10.1874 17.2363 10.2635C16.7671 10.3397 16.2864 10.3 15.836 10.148L15.41 10.006C15.3034 9.97027 15.1888 9.96586 15.0798 9.99334C14.9708 10.0208 14.8719 10.079 14.795 10.161L14.794 10.1601Z" fill="#3A4750"/>
</g>
<defs>
<clipPath id="clip0_3_862">
<rect width="24.123" height="24.101" fill="white"/>
</clipPath>
</defs>
</svg>
