<svg width="33" height="32" viewBox="0 0 33 32" fill="none" xmlns="http://www.w3.org/2000/svg">
<path d="M25.1633 20.3147L24.3944 14.1201C23.926 11.9096 22.6003 11 21.3365 11H11.1817C9.90022 11 8.53034 11.846 8.13264 14.1201L7.3549 20.3147C6.71858 24.8629 9.06062 26 12.1185 26H20.4085C23.4575 26 25.7289 24.3535 25.1633 20.3147Z" fill="#4E2593"/>
<path d="M21.2239 10.7743C21.227 10.8519 21.2121 10.9291 21.1803 11H19.7432C19.7154 10.9279 19.7006 10.8515 19.6997 10.7743C19.6997 8.85682 18.1399 7.30238 16.2157 7.30238C14.2916 7.30238 12.7318 8.85682 12.7318 10.7743C12.745 10.849 12.745 10.9253 12.7318 11H11.2599C11.2467 10.9253 11.2467 10.849 11.2599 10.7743C11.3717 8.10591 13.575 6 16.2549 6C18.9349 6 21.1382 8.10591 21.25 10.7743H21.2239Z" fill="#63A29D"/>
<path d="M13.25 18C12.1454 18 11.25 17.1046 11.25 16C11.25 14.8954 12.1454 14 13.25 14C14.3546 14 15.25 14.8954 15.25 16C15.25 17.1046 14.3546 18 13.25 18Z" fill="#63A29D"/>
<path d="M19.25 18C18.1454 18 17.25 17.1046 17.25 16C17.25 14.8954 18.1454 14 19.25 14C20.3546 14 21.25 14.8954 21.25 16C21.25 17.1046 20.3546 18 19.25 18Z" fill="#63A29D"/>
</svg>
