<svg width="33" height="32" viewBox="0 0 33 32" fill="none" xmlns="http://www.w3.org/2000/svg">
<g clip-path="url(#clip0_65_1049)">
<path d="M10.7917 23.8334L24.7084 9.91675C24.0834 9.29175 23.5 8.62508 22.8334 8.04175L8.95837 21.9167C9.58337 22.5417 10.2084 23.1667 10.7917 23.8334Z" fill="#63A29D"/>
<path d="M10.3334 17.8333C9.70837 17.2083 8.70837 17.2083 8.08337 17.8333C7.45837 18.4583 7.45837 19.4583 8.08337 20.0833L12.6667 24.6666C13.2917 25.2916 14.2917 25.2916 14.9167 24.6666C15.5417 24.0416 15.5417 23.0416 14.9167 22.4166L10.3334 17.8333ZM25.4167 11.9166L20.8334 7.33325C20.2084 6.70825 19.2084 6.70825 18.5834 7.33325C17.9584 7.95825 17.9584 8.95825 18.5834 9.58325L23.1667 14.1666C23.7917 14.7916 24.7917 14.7916 25.4167 14.1666C26.0417 13.5416 26.0417 12.5416 25.4167 11.9166Z" fill="#4E2593"/>
<path d="M8.62504 20.5833C8.20837 20.1666 7.50004 20.1666 7.08337 20.5833C6.66671 20.9999 6.66671 21.7083 7.08337 22.1249L10.625 25.6666C11.0417 26.0833 11.75 26.0833 12.1667 25.6666C12.5834 25.2499 12.5834 24.5416 12.1667 24.1249L8.62504 20.5833ZM26.4167 9.87492L22.875 6.33325C22.4584 5.91659 21.75 5.91659 21.3334 6.33325C20.9167 6.74992 20.9167 7.45825 21.3334 7.87492L24.875 11.4166C25.2917 11.8333 26 11.8333 26.4167 11.4166C26.875 10.9999 26.875 10.2916 26.4167 9.87492Z" fill="#7E49D3"/>
</g>
<defs>
<clipPath id="clip0_65_1049">
<rect width="20" height="20" fill="white" transform="translate(6.75 6)"/>
</clipPath>
</defs>
</svg>
