<svg width="33" height="32" viewBox="0 0 33 32" fill="none" xmlns="http://www.w3.org/2000/svg">
<path fill-rule="evenodd" clip-rule="evenodd" d="M16.4697 16.8492H16.5005C19.3818 16.8492 21.7245 14.5054 21.7245 11.6253C21.7245 8.74521 19.3818 6.40137 16.5005 6.40137C13.6205 6.40137 11.2778 8.74521 11.2778 11.6219C11.272 13.0133 11.8083 14.3236 12.7893 15.3103C13.768 16.2981 15.0748 16.8446 16.4697 16.8492ZM12.9928 11.6253C12.9928 9.69076 14.566 8.11638 16.5005 8.11638C18.4351 8.11638 20.0094 9.69076 20.0094 11.6253C20.0094 13.561 18.4351 15.1342 16.5005 15.1342H16.472C15.539 15.1308 14.6632 14.7638 14.0058 14.1018C13.3484 13.4398 12.9893 12.5628 12.9928 11.6253Z" fill="#76777A"/>
<path d="M22.5123 14.977C22.5729 15.4057 22.9399 15.7156 23.3607 15.7156C23.3995 15.7156 23.4395 15.7133 23.4796 15.7076C25.509 15.4229 27.0422 13.6622 27.0468 11.6099C27.0468 9.57128 25.5867 7.8517 23.5767 7.52128C23.1068 7.44696 22.6689 7.76023 22.5912 8.22786C22.5146 8.69549 22.8313 9.13682 23.2978 9.21342C24.4766 9.40664 25.3318 10.4151 25.3318 11.6076C25.3295 12.8104 24.432 13.8417 23.2429 14.0086C22.773 14.0738 22.4471 14.5071 22.5123 14.977Z" fill="#76777A"/>
<path d="M25.9601 22.4632C26.0905 22.805 26.4163 23.0154 26.7616 23.0154C26.8634 23.0154 26.9663 22.9971 27.0669 22.9594C28.7019 22.3363 28.9465 21.2009 28.9465 20.579C28.9465 19.5602 28.3646 18.2591 25.5943 17.8441C25.1221 17.7835 24.6876 18.0956 24.6179 18.5644C24.5481 19.0343 24.8717 19.4699 25.3393 19.5408C26.5947 19.7283 27.2315 20.0782 27.2315 20.579C27.2315 20.7356 27.2315 21.0615 26.4564 21.3564C26.0139 21.5245 25.7909 22.0207 25.9601 22.4632Z" fill="#76777A"/>
<path fill-rule="evenodd" clip-rule="evenodd" d="M16.5005 25.5991C14.6037 25.5991 8.82984 25.5991 8.82984 21.9462C8.82984 18.308 14.6037 18.308 16.5005 18.308C18.3973 18.308 24.17 18.308 24.17 21.9656C24.17 25.5991 18.5985 25.5991 16.5005 25.5991ZM16.5005 20.0231C13.7839 20.0231 10.5448 20.3569 10.5448 21.9462C10.5448 23.548 13.7839 23.8841 16.5005 23.8841C19.2171 23.8841 22.455 23.5514 22.455 21.9656C22.455 20.3603 19.2171 20.0231 16.5005 20.0231Z" fill="#76777A"/>
<path d="M9.63931 15.7155C9.60043 15.7155 9.56041 15.7132 9.5204 15.7075C7.49097 15.4228 5.95889 13.6621 5.95432 11.6121C5.95432 9.57122 7.41437 7.85164 9.42436 7.52121C9.9057 7.44575 10.3322 7.76246 10.4099 8.2278C10.4865 8.69542 10.1698 9.13675 9.70333 9.21336C8.52455 9.40658 7.66933 10.415 7.66933 11.6098C7.67162 12.8103 8.56914 13.8427 9.75707 14.0085C10.227 14.0737 10.5528 14.507 10.4877 14.9769C10.4271 15.4057 10.0601 15.7155 9.63931 15.7155Z" fill="#76777A"/>
<path d="M5.9342 22.9594C6.03481 22.9972 6.13771 23.0155 6.23947 23.0155C6.58476 23.0155 6.91061 22.8051 7.04095 22.4632C7.21017 22.0208 6.98722 21.5245 6.54474 21.3565C5.76842 21.0603 5.76842 20.7356 5.76842 20.579C5.76842 20.0782 6.40526 19.7284 7.66064 19.5408C8.12827 19.47 8.45183 19.0343 8.38209 18.5644C8.3112 18.0957 7.87902 17.7847 7.40682 17.8441C4.63537 18.2592 4.05341 19.5614 4.05341 20.579C4.05341 21.1998 4.29808 22.3352 5.9342 22.9594Z" fill="#76777A"/>
</svg>
