<svg width="32" height="32" viewBox="0 0 32 32" fill="none" xmlns="http://www.w3.org/2000/svg">
<mask id="mask0_65_1042" style="mask-type:luminance" maskUnits="userSpaceOnUse" x="5" y="5" width="22" height="22">
<path fill-rule="evenodd" clip-rule="evenodd" d="M5.75012 5.24756H26.2499V26.7526H5.75012V5.24756Z" fill="white"/>
</mask>
<g mask="url(#mask0_65_1042)">
<path fill-rule="evenodd" clip-rule="evenodd" d="M17.4669 19.5386C18.6709 19.5386 19.6509 20.5116 19.6509 21.7076V24.7836C19.6509 25.0406 19.8569 25.2466 20.1209 25.2526H22.0269C23.5289 25.2526 24.7499 24.0466 24.7499 22.5646V13.8406C24.7429 13.3306 24.4999 12.8506 24.0829 12.5316L17.4899 7.27356C16.6049 6.57256 15.3669 6.57256 14.4789 7.27556L7.93088 12.5296C7.49788 12.8586 7.25488 13.3386 7.24988 13.8576V22.5646C7.24988 24.0466 8.47088 25.2526 9.97288 25.2526H11.8969C12.1679 25.2526 12.3879 25.0376 12.3879 24.7736C12.3879 24.7156 12.3949 24.6576 12.4069 24.6026V21.7076C12.4069 20.5186 13.3809 19.5466 14.5759 19.5386H17.4669ZM22.0269 26.7526H20.1029C19.0009 26.7266 18.1509 25.8616 18.1509 24.7836V21.7076C18.1509 21.3386 17.8439 21.0386 17.4669 21.0386H14.5809C14.2119 21.0406 13.9069 21.3416 13.9069 21.7076V24.7736C13.9069 24.8486 13.8969 24.9206 13.8759 24.9886C13.7679 25.9786 12.9219 26.7526 11.8969 26.7526H9.97288C7.64388 26.7526 5.74988 24.8736 5.74988 22.5646V13.8506C5.75988 12.8566 6.21788 11.9466 7.00888 11.3476L13.5439 6.10256C14.9829 4.96256 16.9879 4.96256 18.4239 6.10056L25.0059 11.3506C25.7789 11.9396 26.2369 12.8476 26.2499 13.8296V22.5646C26.2499 24.8736 24.3559 26.7526 22.0269 26.7526Z" fill="#76777A"/>
</g>
</svg>
