<svg width="32" height="32" viewBox="0 0 32 32" fill="none" xmlns="http://www.w3.org/2000/svg">
<path fill-rule="evenodd" clip-rule="evenodd" d="M15.9692 16.6805H16.001C18.9154 16.6805 21.2853 14.3106 21.2853 11.3962C21.2853 8.48177 18.9154 6.11084 16.001 6.11084C13.0856 6.11084 10.7147 8.48177 10.7147 11.3932C10.7048 14.2996 13.0608 16.6715 15.9692 16.6805ZM12.1361 11.3962C12.1361 9.26511 13.87 7.5322 16.001 7.5322C18.1311 7.5322 19.864 9.26511 19.864 11.3962C19.864 13.5262 18.1311 15.2601 16.001 15.2601H15.9722C13.8501 15.2522 12.1291 13.5202 12.1361 11.3962Z" fill="#76777A"/>
<path fill-rule="evenodd" clip-rule="evenodd" d="M8.11682 22.209C8.11682 25.8888 14.0511 25.8888 16.001 25.8888C19.3842 25.8888 23.8832 25.5096 23.8832 22.2289C23.8832 18.5491 17.9509 18.5491 16.001 18.5491C12.6168 18.5491 8.11682 18.9283 8.11682 22.209ZM9.60985 22.209C9.60985 20.7707 11.7598 20.0421 16.001 20.0421C20.2412 20.0421 22.3902 20.7777 22.3902 22.2289C22.3902 23.6672 20.2412 24.3958 16.001 24.3958C11.7598 24.3958 9.60985 23.6602 9.60985 22.209Z" fill="#76777A"/>
</svg>
