<svg width="25" height="24" viewBox="0 0 25 24" fill="none" xmlns="http://www.w3.org/2000/svg">
<path fill-rule="evenodd" clip-rule="evenodd" d="M16.7637 21.4998H8.41592C5.34955 21.4998 2.99715 20.3922 3.66534 15.9346L4.44338 9.89339C4.85528 7.66913 6.27404 6.81787 7.51889 6.81787H17.6974C18.9605 6.81787 20.2969 7.7332 20.7729 9.89339L21.5509 15.9346C22.1184 19.8888 19.8301 21.4998 16.7637 21.4998Z" stroke="#76777A" stroke-width="1.5" stroke-linecap="round" stroke-linejoin="round"/>
<path d="M16.901 6.59824C16.901 4.21216 14.9668 2.27787 12.5807 2.27787V2.27787C11.4317 2.273 10.3281 2.72603 9.51388 3.53679C8.69969 4.34754 8.24199 5.44923 8.242 6.59824V6.59824" stroke="#76777A" stroke-width="1.5" stroke-linecap="round" stroke-linejoin="round"/>
<path d="M15.5463 11.1017H15.5006" stroke="#76777A" stroke-width="1.5" stroke-linecap="round" stroke-linejoin="round"/>
<path d="M9.71572 11.1017H9.66995" stroke="#76777A" stroke-width="1.5" stroke-linecap="round" stroke-linejoin="round"/>
</svg>
