<svg width="33" height="32" viewBox="0 0 33 32" fill="none" xmlns="http://www.w3.org/2000/svg">
<g clip-path="url(#clip0_65_2873)">
<path d="M10.7917 23.8332L24.7084 9.9165C24.0834 9.2915 23.5 8.62484 22.8334 8.0415L8.95837 21.9165C9.58337 22.5415 10.2084 23.1665 10.7917 23.8332Z" fill="#76777A"/>
<path d="M10.3334 17.8335C9.70837 17.2085 8.70837 17.2085 8.08337 17.8335C7.45837 18.4585 7.45837 19.4585 8.08337 20.0835L12.6667 24.6668C13.2917 25.2918 14.2917 25.2918 14.9167 24.6668C15.5417 24.0418 15.5417 23.0418 14.9167 22.4168L10.3334 17.8335ZM25.4167 11.9168L20.8334 7.3335C20.2084 6.7085 19.2084 6.7085 18.5834 7.3335C17.9584 7.9585 17.9584 8.9585 18.5834 9.5835L23.1667 14.1668C23.7917 14.7918 24.7917 14.7918 25.4167 14.1668C26.0417 13.5418 26.0417 12.5418 25.4167 11.9168Z" fill="#76777A"/>
<path d="M8.62504 20.5835C8.20837 20.1668 7.50004 20.1668 7.08337 20.5835C6.66671 21.0002 6.66671 21.7085 7.08337 22.1252L10.625 25.6668C11.0417 26.0835 11.75 26.0835 12.1667 25.6668C12.5834 25.2502 12.5834 24.5418 12.1667 24.1252L8.62504 20.5835ZM26.4167 9.87516L22.875 6.3335C22.4584 5.91683 21.75 5.91683 21.3334 6.3335C20.9167 6.75016 20.9167 7.4585 21.3334 7.87516L24.875 11.4168C25.2917 11.8335 26 11.8335 26.4167 11.4168C26.875 11.0002 26.875 10.2918 26.4167 9.87516Z" fill="#76777A"/>
</g>
<defs>
<clipPath id="clip0_65_2873">
<rect width="20" height="20" fill="white" transform="translate(6.75 6)"/>
</clipPath>
</defs>
</svg>
