<svg width="22" height="25" viewBox="0 0 22 25" fill="none" xmlns="http://www.w3.org/2000/svg">
<path d="M14.6771 3.98724C15.1496 3.44262 15.5099 2.81003 15.7373 2.12578C15.9646 1.44153 16.0546 0.719112 16.002 0C14.5513 0.117101 13.2047 0.799392 12.2522 1.89987C11.7961 2.42731 11.4505 3.0409 11.2358 3.70431C11.0211 4.36772 10.9417 5.06747 11.0023 5.76212C11.71 5.76801 12.4095 5.611 13.0467 5.30322C13.6839 4.99544 14.2418 4.54517 14.6771 3.98724ZM17.8269 13.2866C17.8353 12.3289 18.0875 11.389 18.5599 10.5558C19.0323 9.72259 19.7092 9.02347 20.5267 8.52443C20.0108 7.78103 19.3287 7.16807 18.5346 6.73415C17.7406 6.30023 16.8563 6.05729 15.952 6.0246C14.0021 5.82461 12.2022 7.16202 11.1648 7.16202C10.1274 7.16202 8.66498 6.0496 7.04009 6.0746C5.97782 6.10959 4.94275 6.4193 4.03585 6.97352C3.12894 7.52774 2.38116 8.30755 1.86543 9.23689C-0.334421 13.0616 1.30297 18.7488 3.50282 21.836C4.50276 23.3484 5.75267 25.0608 7.40257 24.9983C9.05245 24.9358 9.58992 23.9734 11.5023 23.9734C13.4147 23.9734 14.0021 24.9983 15.627 24.9608C17.2519 24.9233 18.4018 23.4109 19.4518 21.8985C20.1955 20.8005 20.7765 19.6007 21.1766 18.3363C20.1861 17.9138 19.3409 17.2105 18.7456 16.3131C18.1503 15.4156 17.8309 14.3635 17.8269 13.2866Z" fill="white"/>
</svg>
