<svg width="8" height="6" viewBox="0 0 8 6" fill="none" xmlns="http://www.w3.org/2000/svg">
<path d="M4.754 5.77847C4.79267 5.74457 4.958 5.61656 5.094 5.49732C5.94933 4.79825 7.34933 2.97457 7.77667 2.02007C7.84533 1.87511 7.99067 1.50862 8 1.31281C8 1.12518 7.952 0.946322 7.85467 0.775645C7.71867 0.562883 7.50467 0.392207 7.252 0.298685C7.07667 0.23848 6.552 0.144958 6.54267 0.144958C5.96867 0.0514369 5.036 0 4.00533 0C3.02333 0 2.12867 0.0514369 1.546 0.128008C1.53667 0.136775 0.884667 0.230297 0.661333 0.332586C0.253333 0.520214 0 0.886702 0 1.27891V1.31281C0.01 1.56824 0.263333 2.10541 0.272667 2.10541C0.700667 3.00848 2.032 4.79006 2.91667 5.50609C2.91667 5.50609 3.144 5.70774 3.286 5.79542C3.49 5.9322 3.74267 6 3.99533 6C4.27733 6 4.54 5.92343 4.754 5.77847Z" fill="#76777A"/>
</svg>
