<svg width="6" height="8" viewBox="0 0 6 8" fill="none" xmlns="http://www.w3.org/2000/svg">
<path d="M5.77847 3.246C5.74457 3.20733 5.61656 3.042 5.49732 2.906C4.79825 2.05067 2.97457 0.650666 2.02007 0.223334C1.87511 0.154667 1.50862 0.00933333 1.31281 2.04884e-07C1.12518 2.13085e-07 0.946322 0.0480001 0.775645 0.145334C0.562883 0.281334 0.392206 0.495333 0.298685 0.748C0.23848 0.923333 0.144958 1.448 0.144958 1.45733C0.0514366 2.03133 -2.20131e-07 2.964 -1.75079e-07 3.99467C-1.32154e-07 4.97667 0.0514368 5.87133 0.128008 6.454C0.136775 6.46333 0.230297 7.11533 0.332586 7.33867C0.520214 7.74667 0.886702 8 1.27891 8L1.31281 8C1.56824 7.99 2.10541 7.73667 2.10541 7.72733C3.00848 7.29933 4.79006 5.968 5.50609 5.08333C5.50609 5.08333 5.70774 4.856 5.79542 4.714C5.9322 4.51 6 4.25733 6 4.00467C6 3.72267 5.92343 3.46 5.77847 3.246Z" fill="#76777A"/>
</svg>
