<svg width="24" height="25" viewBox="0 0 24 25" fill="none" xmlns="http://www.w3.org/2000/svg">
<path opacity="0.4" d="M15.7975 11.3097L19.4967 10.9825C20.3269 10.9825 21 11.6622 21 12.5004C21 13.3387 20.3269 14.0183 19.4967 14.0183L15.7975 13.6912C15.1463 13.6912 14.6183 13.1581 14.6183 12.5004C14.6183 11.8417 15.1463 11.3097 15.7975 11.3097Z" fill="black"/>
<path d="M3.37526 11.3698C3.43308 11.3115 3.64908 11.0647 3.85198 10.8598C5.03561 9.57656 8.12611 7.47815 9.74282 6.83596C9.98827 6.73352 10.609 6.51542 10.9417 6.5C11.2592 6.5 11.5624 6.5738 11.8515 6.7192C12.2126 6.92299 12.5006 7.24463 12.6599 7.62355C12.7613 7.88572 12.9206 8.67331 12.9206 8.68763C13.0788 9.54792 13.165 10.9469 13.165 12.4934C13.165 13.965 13.0788 15.3067 12.949 16.1813C12.9348 16.1967 12.7755 17.1738 12.6021 17.5086C12.2846 18.1211 11.6639 18.5 10.9995 18.5H10.9417C10.5086 18.4857 9.59882 18.1057 9.59882 18.0924C8.0683 17.4502 5.05088 15.4532 3.8378 14.1258C3.8378 14.1258 3.49526 13.7844 3.3469 13.5718C3.11563 13.2656 3 12.8866 3 12.5077C3 12.0847 3.12981 11.6915 3.37526 11.3698Z" fill="black"/>
</svg>
