<svg width="10" height="11" viewBox="0 0 10 11" fill="none" xmlns="http://www.w3.org/2000/svg">
<path d="M4.38103 1.17399C4.8112 1.59283 5.14625 2.09929 5.36348 2.65901C5.58071 3.21873 5.67503 3.81862 5.64003 4.418C5.63782 4.6016 5.70147 4.77991 5.81943 4.92062C5.93739 5.06133 6.10185 5.15512 6.28302 5.18499C6.32298 5.19635 6.36453 5.20108 6.40602 5.19899C6.60743 5.20033 6.80117 5.12187 6.9449 4.98077C7.08863 4.83966 7.17064 4.6474 7.17302 4.446V4.33599C7.17302 4.28099 7.17303 4.15799 7.18703 4.02099C7.18657 3.99381 7.19421 3.96711 7.20898 3.94428C7.22376 3.92146 7.24499 3.90354 7.26997 3.89282C7.29496 3.8821 7.32257 3.87905 7.34929 3.88407C7.37601 3.88908 7.40064 3.90194 7.42003 3.92099C8.1451 4.69892 8.55499 5.71867 8.57002 6.78199C8.55447 7.25502 8.44476 7.72019 8.2473 8.15031C8.04984 8.58043 7.7686 8.96686 7.42003 9.28699C6.71455 9.98238 5.76847 10.3795 4.77803 10.396C3.78893 10.3732 2.84507 9.97698 2.13602 9.28699C1.78744 8.96686 1.50621 8.58043 1.30875 8.15031C1.11129 7.72019 1.00157 7.25502 0.986023 6.78199C1.09064 5.53418 1.66843 4.3736 2.60103 3.53799C3.28653 2.88387 3.77204 2.04843 4.00102 1.12899C4.00367 1.1049 4.01295 1.08202 4.02783 1.06289C4.04271 1.04376 4.0626 1.02913 4.0853 1.02063C4.10799 1.01214 4.1326 1.0101 4.15639 1.01476C4.18017 1.01941 4.2022 1.03057 4.22002 1.04699L4.38103 1.17399ZM3.54602 0.0249937C3.49989 0.0237914 3.45424 0.0344742 3.41344 0.0560148C3.37263 0.0775555 3.33805 0.109231 3.31302 0.147995C3.25802 0.247995 3.34002 0.447992 3.43602 0.708992C3.62802 1.29799 3.03603 2.24199 2.20403 3.18699C1.17885 4.12291 0.551774 5.41645 0.452026 6.80099C0.497048 7.92174 0.973932 8.98161 1.78282 9.75866C2.59171 10.5357 3.66987 10.9697 4.79152 10.9697C5.91317 10.9697 6.99134 10.5357 7.80023 9.75866C8.60912 8.98161 9.08601 7.92174 9.13103 6.80099C9.12145 6.09916 8.95986 5.40774 8.65741 4.77435C8.35496 4.14095 7.91882 3.58064 7.37903 3.13199L7.24202 3.022C7.18119 2.96932 7.10349 2.94022 7.02303 2.93999C6.95984 2.9397 6.89792 2.95766 6.8447 2.99173C6.79148 3.02579 6.74922 3.07449 6.72302 3.13199C6.67296 3.53614 6.64558 3.94278 6.64102 4.34999V4.44999C6.64143 4.47886 6.63605 4.50753 6.62518 4.53428C6.61432 4.56103 6.59819 4.58533 6.57777 4.60575C6.55736 4.62617 6.53305 4.64228 6.5063 4.65314C6.47955 4.66401 6.4509 4.6694 6.42203 4.66899H6.38103C6.32675 4.6589 6.27777 4.63001 6.24266 4.58741C6.20755 4.5448 6.18856 4.4912 6.18903 4.43599C6.22726 3.75917 6.11863 3.0821 5.87059 2.45121C5.62255 1.82032 5.24097 1.25055 4.75203 0.780994C4.43441 0.417891 4.01713 0.156055 3.55202 0.0279921L3.54602 0.0249937Z" fill="#00ADB5"/>
</svg>
