<svg width="18" height="23" viewBox="0 0 18 23" fill="none" xmlns="http://www.w3.org/2000/svg">
<path d="M8.05103 2.35697C8.93225 3.21476 9.61878 4.25196 10.0641 5.39828C10.5094 6.5446 10.7031 7.77325 10.632 9.00097C10.6277 9.37712 10.7583 9.74237 11.0001 10.0306C11.2419 10.3187 11.5789 10.5108 11.95 10.572C12.0319 10.595 12.1171 10.6045 12.202 10.6C12.6146 10.6024 13.0113 10.4415 13.3057 10.1524C13.6 9.8633 13.768 9.4695 13.773 9.05697V8.83297C13.773 8.72097 13.773 8.46797 13.801 8.18797C13.8013 8.13283 13.8178 8.07899 13.8484 8.03315C13.8791 7.98731 13.9225 7.9515 13.9734 7.93018C14.0242 7.90886 14.0802 7.90297 14.1344 7.91325C14.1886 7.92353 14.2385 7.94951 14.278 7.98797C15.7636 9.58231 16.6033 11.672 16.634 13.851C16.6019 14.8202 16.3771 15.7732 15.9725 16.6546C15.568 17.5359 14.992 18.3278 14.278 18.984C12.8323 20.4087 10.8936 21.2223 8.86403 21.256C6.83724 21.2093 4.90313 20.3977 3.45003 18.984C2.73608 18.3278 2.16002 17.5359 1.75551 16.6546C1.35099 15.7732 1.12612 14.8202 1.09402 13.851C1.09402 10.962 2.86102 8.94197 4.40402 7.20297C6.17102 5.21097 7.09703 3.58397 7.26503 2.26597C7.27063 2.21667 7.28975 2.16988 7.32028 2.13077C7.35082 2.09166 7.39158 2.06176 7.43805 2.04437C7.48452 2.02699 7.53488 2.02279 7.58359 2.03225C7.63229 2.04171 7.67745 2.06446 7.71404 2.09797L8.05103 2.35697ZM6.34003 0.00097308C6.24558 -0.00143873 6.15211 0.020472 6.06857 0.0646022C5.98504 0.108732 5.91426 0.173599 5.86302 0.252972C5.75102 0.452972 5.91902 0.869974 6.11502 1.40297C6.50802 2.60897 5.30203 4.54497 3.59003 6.47997C1.99003 8.30297 -0.000976562 10.547 -0.000976562 13.886C-0.000976562 18.374 4.23502 22.442 8.89102 22.442C13.547 22.442 17.783 18.375 17.783 13.886C17.7632 12.4478 17.432 11.031 16.812 9.73314C16.1921 8.43529 15.2983 7.28721 14.192 6.36797L13.911 6.14397C13.7863 6.03596 13.627 5.97633 13.462 5.97597C13.3322 5.97501 13.2049 6.01159 13.0955 6.08132C12.986 6.15105 12.899 6.25095 12.845 6.36897C12.7423 7.19851 12.6862 8.03315 12.677 8.86897V9.06897C12.6778 9.12816 12.6668 9.18691 12.6445 9.24175C12.6222 9.29659 12.5892 9.34641 12.5473 9.38826C12.5055 9.43012 12.4556 9.46316 12.4008 9.48544C12.346 9.50772 12.2872 9.51878 12.228 9.51797H12.144C12.0331 9.49693 11.933 9.4377 11.8613 9.35056C11.7895 9.26342 11.7504 9.15388 11.751 9.04097C11.723 5.67497 10.713 3.31897 8.80603 1.55097C8.15422 0.803187 7.29649 0.264066 6.34003 0.00097308Z" fill="black"/>
</svg>
