<svg width="18" height="18" viewBox="0 0 18 18" fill="none" xmlns="http://www.w3.org/2000/svg">
<path d="M16.5 1.81799H15V1.21199C15 0.893733 14.8736 0.588509 14.6485 0.363465C14.4235 0.138421 14.1183 0.0119934 13.8 0.0119934C13.4818 0.0119934 13.1765 0.138421 12.9515 0.363465C12.7264 0.588509 12.6 0.893733 12.6 1.21199V1.81799H10.2V1.21199C10.2 0.893733 10.0736 0.588509 9.84854 0.363465C9.6235 0.138421 9.31828 0.0119934 9.00002 0.0119934C8.68176 0.0119934 8.37653 0.138421 8.15149 0.363465C7.92644 0.588509 7.80002 0.893733 7.80002 1.21199V1.81799H5.40002V1.21199C5.40002 0.893733 5.27359 0.588509 5.04854 0.363465C4.8235 0.138421 4.51828 0.0119934 4.20002 0.0119934C3.88176 0.0119934 3.57653 0.138421 3.35149 0.363465C3.12644 0.588509 3.00002 0.893733 3.00002 1.21199V1.81799H1.50002C1.10024 1.82011 0.717668 1.98088 0.436391 2.26497C0.155114 2.54906 -0.00184498 2.93322 1.63679e-05 3.33299V15.454C-0.00184498 15.8538 0.155114 16.2379 0.436391 16.522C0.717668 16.8061 1.10024 16.9669 1.50002 16.969H9.90002C9.98038 16.969 10.0574 16.9371 10.1143 16.8802C10.1711 16.8234 10.203 16.7464 10.203 16.666C10.203 16.5856 10.1711 16.5086 10.1143 16.4517C10.0574 16.3949 9.98038 16.363 9.90002 16.363H1.50002C1.26033 16.3611 1.03113 16.2645 0.862486 16.0942C0.693844 15.9238 0.599481 15.6937 0.600016 15.454V6.05999H17.4V11.211C17.4 11.2906 17.4316 11.3669 17.4879 11.4231C17.5441 11.4794 17.6205 11.511 17.7 11.511C17.7796 11.511 17.8559 11.4794 17.9121 11.4231C17.9684 11.3669 18 11.2906 18 11.211V3.33299C18.0019 2.93322 17.8449 2.54906 17.5636 2.26497C17.2824 1.98088 16.8998 1.82011 16.5 1.81799ZM13.2 1.21199C13.2 1.05286 13.2632 0.900251 13.3758 0.787729C13.4883 0.675207 13.6409 0.611993 13.8 0.611993C13.9591 0.611993 14.1118 0.675207 14.2243 0.787729C14.3368 0.900251 14.4 1.05286 14.4 1.21199V3.02999C14.4 3.18912 14.3368 3.34174 14.2243 3.45426C14.1118 3.56678 13.9591 3.62999 13.8 3.62999C13.6409 3.62999 13.4883 3.56678 13.3758 3.45426C13.2632 3.34174 13.2 3.18912 13.2 3.02999V1.21199ZM8.40002 1.21199C8.40002 1.05286 8.46323 0.900251 8.57575 0.787729C8.68827 0.675207 8.84089 0.611993 9.00002 0.611993C9.15915 0.611993 9.31176 0.675207 9.42428 0.787729C9.5368 0.900251 9.60002 1.05286 9.60002 1.21199V3.02999C9.60002 3.18912 9.5368 3.34174 9.42428 3.45426C9.31176 3.56678 9.15915 3.62999 9.00002 3.62999C8.84089 3.62999 8.68827 3.56678 8.57575 3.45426C8.46323 3.34174 8.40002 3.18912 8.40002 3.02999V1.21199ZM3.60002 1.21199C3.60002 1.05286 3.66323 0.900251 3.77575 0.787729C3.88827 0.675207 4.04089 0.611993 4.20002 0.611993C4.35915 0.611993 4.51176 0.675207 4.62428 0.787729C4.7368 0.900251 4.80002 1.05286 4.80002 1.21199V3.02999C4.80002 3.18912 4.7368 3.34174 4.62428 3.45426C4.51176 3.56678 4.35915 3.62999 4.20002 3.62999C4.04089 3.62999 3.88827 3.56678 3.77575 3.45426C3.66323 3.34174 3.60002 3.18912 3.60002 3.02999V1.21199ZM17.4 5.45399H0.600016V3.33299C0.599481 3.0933 0.693844 2.86315 0.862486 2.69282C1.03113 2.52249 1.26033 2.42584 1.50002 2.42399H3.00002V3.02999C3.00002 3.34825 3.12644 3.65348 3.35149 3.87852C3.57653 4.10357 3.88176 4.22999 4.20002 4.22999C4.51828 4.22999 4.8235 4.10357 5.04854 3.87852C5.27359 3.65348 5.40002 3.34825 5.40002 3.02999V2.42399H7.80002V3.02999C7.80002 3.34825 7.92644 3.65348 8.15149 3.87852C8.37653 4.10357 8.68176 4.22999 9.00002 4.22999C9.31828 4.22999 9.6235 4.10357 9.84854 3.87852C10.0736 3.65348 10.2 3.34825 10.2 3.02999V2.42399H12.6V3.02999C12.6 3.34825 12.7264 3.65348 12.9515 3.87852C13.1765 4.10357 13.4818 4.22999 13.8 4.22999C14.1183 4.22999 14.4235 4.10357 14.6485 3.87852C14.8736 3.65348 15 3.34825 15 3.02999V2.42399H16.5C16.7397 2.42584 16.9689 2.52249 17.1375 2.69282C17.3062 2.86315 17.4006 3.0933 17.4 3.33299V5.45399Z" fill="black"/>
<path d="M8.19191 8.15501C8.19191 8.0873 8.17856 8.02025 8.15262 7.9577C8.12667 7.89515 8.08865 7.83834 8.04072 7.7905C7.99279 7.74267 7.9359 7.70475 7.8733 7.67893C7.8107 7.65311 7.74363 7.63988 7.67591 7.64002H6.64491C6.50833 7.64002 6.37734 7.69428 6.28075 7.79086C6.18417 7.88744 6.12991 8.01843 6.12991 8.15501V8.92802C6.12991 9.0646 6.18417 9.1956 6.28075 9.29218C6.37734 9.38876 6.50833 9.44302 6.64491 9.44302H7.67591C7.8125 9.44302 7.94349 9.38876 8.04007 9.29218C8.13665 9.1956 8.19091 9.0646 8.19091 8.92802L8.19191 8.15501ZM6.64591 8.92802V8.15501H7.67691V8.92802H6.64591Z" fill="black"/>
<path d="M4.12401 8.15498C4.12401 8.08727 4.11066 8.02022 4.08471 7.95767C4.05877 7.89512 4.02075 7.83831 3.97282 7.79047C3.92489 7.74264 3.868 7.70472 3.8054 7.6789C3.7428 7.65308 3.67573 7.63985 3.60801 7.63999H2.57701C2.50938 7.63999 2.44241 7.65331 2.37993 7.67919C2.31745 7.70507 2.26067 7.743 2.21285 7.79083C2.16503 7.83865 2.12709 7.89542 2.10121 7.9579C2.07533 8.02039 2.06201 8.08735 2.06201 8.15498V8.92799C2.06201 8.99562 2.07533 9.06258 2.10121 9.12507C2.12709 9.18755 2.16503 9.24432 2.21285 9.29215C2.26067 9.33997 2.31745 9.3779 2.37993 9.40378C2.44241 9.42966 2.50938 9.44298 2.57701 9.44298H3.60801C3.67564 9.44298 3.74261 9.42966 3.80509 9.40378C3.86758 9.3779 3.92435 9.33997 3.97217 9.29215C4.01999 9.24432 4.05793 9.18755 4.08381 9.12507C4.10969 9.06258 4.12301 8.99562 4.12301 8.92799L4.12401 8.15498ZM2.57801 8.92799V8.15498H3.60901V8.92799H2.57801Z" fill="black"/>
<path d="M15.423 9.43998C15.5596 9.43998 15.6906 9.38573 15.7872 9.28914C15.8838 9.19256 15.938 9.06157 15.938 8.92498V8.15198C15.9372 8.01592 15.8826 7.8857 15.7861 7.78976C15.6896 7.69383 15.5591 7.63998 15.423 7.63998H14.392C14.2554 7.63998 14.1244 7.69424 14.0279 7.79082C13.9313 7.88741 13.877 8.0184 13.877 8.15498V8.92798C13.877 9.06457 13.9313 9.19556 14.0279 9.29214C14.1244 9.38873 14.2554 9.44298 14.392 9.44298L15.423 9.43998ZM14.392 8.15198H15.423V8.92498H14.392V8.15198Z" fill="black"/>
<path d="M8.19191 10.905C8.19191 10.8373 8.17856 10.7703 8.15262 10.7077C8.12667 10.6452 8.08865 10.5883 8.04072 10.5405C7.99279 10.4927 7.9359 10.4548 7.8733 10.4289C7.8107 10.4031 7.74363 10.3899 7.67591 10.39H6.64491C6.50833 10.39 6.37734 10.4443 6.28075 10.5409C6.18417 10.6374 6.12991 10.7684 6.12991 10.905V11.678C6.12991 11.8146 6.18417 11.9456 6.28075 12.0422C6.37734 12.1388 6.50833 12.193 6.64491 12.193H7.67591C7.8125 12.193 7.94349 12.1388 8.04007 12.0422C8.13665 11.9456 8.19091 11.8146 8.19091 11.678L8.19191 10.905ZM6.64591 11.678V10.905H7.67691V11.678H6.64591Z" fill="black"/>
<path d="M4.12401 10.905C4.12401 10.8373 4.11066 10.7702 4.08471 10.7077C4.05877 10.6451 4.02075 10.5883 3.97282 10.5405C3.92489 10.4926 3.868 10.4547 3.8054 10.4289C3.7428 10.4031 3.67573 10.3899 3.60801 10.39H2.57701C2.50938 10.39 2.44241 10.4033 2.37993 10.4292C2.31745 10.4551 2.26067 10.493 2.21285 10.5408C2.16503 10.5886 2.12709 10.6454 2.10121 10.7079C2.07533 10.7704 2.06201 10.8374 2.06201 10.905V11.678C2.06201 11.7456 2.07533 11.8126 2.10121 11.8751C2.12709 11.9375 2.16503 11.9943 2.21285 12.0421C2.26067 12.09 2.31745 12.1279 2.37993 12.1538C2.44241 12.1797 2.50938 12.193 2.57701 12.193H3.60801C3.67564 12.193 3.74261 12.1797 3.80509 12.1538C3.86758 12.1279 3.92435 12.09 3.97217 12.0421C4.01999 11.9943 4.05793 11.9375 4.08381 11.8751C4.10969 11.8126 4.12301 11.7456 4.12301 11.678L4.12401 10.905ZM2.57801 11.678V10.905H3.60901V11.678H2.57801Z" fill="black"/>
<path d="M7.67591 13.14H6.64491C6.50833 13.14 6.37734 13.1943 6.28075 13.2909C6.18417 13.3874 6.12991 13.5184 6.12991 13.655V14.428C6.12991 14.5646 6.18417 14.6956 6.28075 14.7922C6.37734 14.8888 6.50833 14.943 6.64491 14.943H7.67591C7.8125 14.943 7.94349 14.8888 8.04007 14.7922C8.13665 14.6956 8.19091 14.5646 8.19091 14.428V13.655C8.19091 13.5184 8.13665 13.3874 8.04007 13.2909C7.94349 13.1943 7.8125 13.14 7.67591 13.14ZM6.64491 14.428V13.655H7.67591V14.428H6.64491Z" fill="black"/>
<path d="M10.3231 9.44001H11.3541C11.4907 9.44001 11.6217 9.38576 11.7183 9.28918C11.8149 9.19259 11.8691 9.0616 11.8691 8.92501V8.15201C11.8683 8.01595 11.8137 7.88573 11.7172 7.78979C11.6207 7.69386 11.4902 7.64001 11.3541 7.64001H10.3231C10.1865 7.64001 10.0556 7.69427 9.95898 7.79086C9.8624 7.88744 9.80814 8.01843 9.80814 8.15501V8.92801C9.80893 9.06408 9.86354 9.1943 9.96003 9.29024C10.0565 9.38617 10.1871 9.44002 10.3231 9.44001ZM10.3231 8.15201H11.3541V8.92501H10.3231V8.15201Z" fill="black"/>
<path d="M9.77884 11.678C9.77884 11.8146 9.8331 11.9456 9.92968 12.0422C10.0263 12.1388 10.1573 12.193 10.2938 12.193C10.3594 12.1889 10.4209 12.16 10.4658 12.1122C10.5108 12.0643 10.5358 12.0012 10.5358 11.9355C10.5358 11.8699 10.5108 11.8067 10.4658 11.7589C10.4209 11.711 10.3594 11.6821 10.2938 11.678V10.905H11.3248C11.3904 10.9009 11.4519 10.872 11.4968 10.8242C11.5418 10.7763 11.5668 10.7132 11.5668 10.6475C11.5668 10.5819 11.5418 10.5187 11.4968 10.4708C11.4519 10.423 11.3904 10.3941 11.3248 10.39H10.2938C10.1573 10.39 10.0263 10.4443 9.92968 10.5409C9.8331 10.6374 9.77884 10.7684 9.77884 10.905V11.678Z" fill="black"/>
<path d="M3.60801 13.14H2.57701C2.50938 13.14 2.44241 13.1533 2.37993 13.1792C2.31745 13.2051 2.26067 13.243 2.21285 13.2908C2.16503 13.3386 2.12709 13.3954 2.10121 13.4579C2.07533 13.5204 2.06201 13.5874 2.06201 13.655V14.428C2.06201 14.4956 2.07533 14.5626 2.10121 14.6251C2.12709 14.6875 2.16503 14.7443 2.21285 14.7921C2.26067 14.84 2.31745 14.8779 2.37993 14.9038C2.44241 14.9297 2.50938 14.943 2.57701 14.943H3.60801C3.67564 14.943 3.74261 14.9297 3.80509 14.9038C3.86758 14.8779 3.92435 14.84 3.97217 14.7921C4.01999 14.7443 4.05793 14.6875 4.08381 14.6251C4.10969 14.5626 4.12301 14.4956 4.12301 14.428V13.655C4.12301 13.5874 4.10969 13.5204 4.08381 13.4579C4.05793 13.3954 4.01999 13.3386 3.97217 13.2908C3.92435 13.243 3.86758 13.2051 3.80509 13.1792C3.74261 13.1533 3.67564 13.14 3.60801 13.14ZM2.57701 14.428V13.655H3.60801V14.428H2.57701Z" fill="black"/>
<path d="M14.6498 11.3C13.9873 11.3 13.3396 11.4965 12.7887 11.8646C12.2378 12.2327 11.8084 12.7559 11.5548 13.3681C11.3013 13.9802 11.2349 14.6538 11.3642 15.3036C11.4935 15.9534 11.8125 16.5504 12.281 17.0189C12.7495 17.4874 13.3464 17.8064 13.9963 17.9357C14.6461 18.0649 15.3197 17.9986 15.9318 17.745C16.544 17.4915 17.0672 17.0621 17.4353 16.5112C17.8034 15.9603 17.9998 15.3126 17.9998 14.65C17.9998 13.7616 17.6469 12.9095 17.0186 12.2812C16.3904 11.653 15.5383 11.3 14.6498 11.3ZM14.6498 17.4851C14.0891 17.4851 13.541 17.3188 13.0748 17.0073C12.6086 16.6958 12.2452 16.253 12.0306 15.735C11.8161 15.2169 11.7599 14.6469 11.8693 14.097C11.9787 13.547 12.2487 13.0419 12.6452 12.6454C13.0417 12.2489 13.5468 11.9789 14.0968 11.8695C14.6467 11.7601 15.2167 11.8163 15.7347 12.0308C16.2528 12.2454 16.6955 12.6088 17.0071 13.075C17.3186 13.5412 17.4848 14.0893 17.4848 14.65C17.4848 15.4019 17.1862 16.123 16.6545 16.6547C16.1228 17.1864 15.4017 17.4851 14.6498 17.4851Z" fill="black"/>
<path d="M16.139 13.57L14.139 15.57L13.228 14.659C13.2048 14.6323 13.1763 14.6107 13.1444 14.5955C13.1124 14.5803 13.0777 14.5718 13.0423 14.5706C13.007 14.5694 12.9718 14.5754 12.9388 14.5884C12.9059 14.6014 12.876 14.621 12.851 14.646C12.826 14.671 12.8064 14.7009 12.7934 14.7338C12.7805 14.7667 12.7744 14.802 12.7756 14.8373C12.7768 14.8727 12.7853 14.9074 12.8005 14.9394C12.8157 14.9713 12.8373 14.9998 12.864 15.023L13.957 16.116C14.0054 16.1641 14.0708 16.1911 14.139 16.1911C14.2072 16.1911 14.2727 16.1641 14.321 16.116L16.508 13.929C16.5347 13.9058 16.5563 13.8773 16.5715 13.8454C16.5867 13.8134 16.5952 13.7787 16.5964 13.7433C16.5977 13.708 16.5916 13.6727 16.5786 13.6398C16.5656 13.6069 16.546 13.577 16.521 13.552C16.496 13.527 16.4661 13.5074 16.4332 13.4944C16.4003 13.4814 16.3651 13.4754 16.3297 13.4766C16.2943 13.4778 16.2596 13.4863 16.2277 13.5015C16.1957 13.5167 16.1673 13.5383 16.144 13.565L16.139 13.57Z" fill="black"/>
</svg>
