<svg width="37" height="30" viewBox="0 0 37 30" fill="none" xmlns="http://www.w3.org/2000/svg">
<path d="M35.3289 23.4825L35.2937 23.5286M35.3289 23.4825C35.8198 22.8245 36.1566 22.1028 35.9211 21.5522C35.9044 21.5119 35.8845 21.473 35.8617 21.4359C35.8628 21.4308 35.8628 21.4256 35.8617 21.4205C35.8444 21.3916 35.8253 21.3637 35.8044 21.3372C35.7125 21.2179 35.5901 21.1255 35.45 21.0696C35.356 21.0282 35.2512 21.0174 35.1506 21.0388C34.8601 21.1222 34.6531 21.4469 34.2415 21.7803C32.9713 22.8091 31.8135 22.899 31.2962 23.2829C31.1839 23.3641 31.1465 23.3838 31.1289 23.4496C31.1112 23.5198 31.1134 23.6295 31.0804 23.8884C31.0609 24.1275 30.9753 24.3566 30.8331 24.5502C30.6909 24.7438 30.4976 24.8944 30.2747 24.9852L30.387 25.0905C30.4046 25.0225 30.442 25.0049 30.5587 24.926C30.7657 24.8036 30.9876 24.7085 31.2191 24.643C32.0591 24.4211 32.8519 24.0495 33.5591 23.5462C33.984 23.2281 34.2041 22.9188 34.4991 22.842C34.5441 22.833 34.5905 22.833 34.6355 22.842C34.6752 22.8471 34.7142 22.8559 34.7522 22.8683L34.8116 22.8925L34.8337 22.9056C34.8636 22.9192 34.8924 22.9353 34.9195 22.9539L34.9591 22.9846C34.987 23.0047 35.0135 23.0267 35.0384 23.0504L35.078 23.0921L35.133 23.1623L35.144 23.1776M35.3289 23.4825C35.8198 22.8245 36.1566 22.1027 35.9255 21.5565C35.9088 21.5163 35.8889 21.4774 35.8661 21.4403C35.8672 21.4352 35.8672 21.43 35.8661 21.4249C35.8488 21.3959 35.8297 21.3681 35.8088 21.3415C35.7169 21.2223 35.5945 21.1298 35.4544 21.0739C35.5755 21.7035 35.34 22.344 34.9151 22.9495L34.9547 22.9802C34.9826 23.0003 35.0091 23.0222 35.034 23.046L35.0736 23.0877C35.0978 23.1162 35.122 23.1469 35.144 23.1776M35.2937 23.5286C35.2914 23.5085 35.287 23.4886 35.2805 23.4694C35.2737 23.4403 35.2649 23.4117 35.2541 23.3838M35.2937 23.5286C35.2852 23.4792 35.2719 23.4307 35.2541 23.3838M35.2541 23.3838C35.2335 23.3278 35.2069 23.2741 35.1749 23.2237C35.1659 23.2075 35.1556 23.1921 35.144 23.1776M21.6368 17.1429C21.4981 17.1166 20.7871 17.4764 19.8427 17.9765C18.0311 18.9373 15.3587 20.4202 14.2536 20.6769L13.0187 19.9881L12.8998 19.9179C13.2388 19.681 13.5998 19.4309 14.0005 19.1479L14.7951 19.4572C16.4637 18.424 20.2148 16.4081 21.1987 15.9781L21.3352 16.3335L21.6368 17.1429ZM21.6368 17.1429L21.6368 17.2855L21.5708 21.1485L21.5069 21.2012C19.1647 23.1754 16.4219 25.9942 13.3225 26.4001C12.1976 26.547 10.9913 26.3847 9.8642 25.0225C8.98368 23.952 8.76355 23.1359 8.32328 22.1269C8.6316 22.426 8.96199 22.7017 9.31167 22.9517L9.32708 22.9341C10.5334 21.539 11.5548 20.8568 12.9108 19.9179L13.0297 19.9881L14.2646 20.6769C15.3653 20.4202 18.0421 18.9373 19.8537 17.9765C20.7871 17.4764 21.4981 17.121 21.6368 17.1429ZM32.7842 26.8958C33.2223 26.547 34.0082 25.9833 34.5805 25.2813C35.056 24.6978 35.4038 24.0616 35.2497 23.5088C35.2474 23.4887 35.243 23.4688 35.2365 23.4496C35.2297 23.4205 35.2209 23.3919 35.2101 23.3641C35.1895 23.308 35.1629 23.2543 35.1308 23.2039C35.1219 23.1878 35.1115 23.1724 35.1 23.1579L35.089 23.1425L35.034 23.0723L34.9944 23.0306C34.9695 23.0069 34.943 22.9849 34.9151 22.9648L34.8755 22.9341C34.8483 22.9156 34.8196 22.8994 34.7896 22.8859L34.7676 22.8727L34.7082 22.8486C34.6702 22.8361 34.6312 22.8273 34.5915 22.8222C34.5465 22.8133 34.5001 22.8133 34.455 22.8222C34.1601 22.899 33.9399 23.2083 33.5151 23.5264C32.8079 24.0298 32.0151 24.4014 31.1751 24.6232C30.9436 24.6888 30.7217 24.7839 30.5147 24.9062C30.398 24.9852 30.3606 25.0027 30.343 25.0707C30.3378 25.0849 30.3341 25.0996 30.332 25.1146C30.3188 25.1826 30.3078 25.2945 30.2748 25.5007C30.2659 25.5511 30.2461 25.5972 30.2461 25.6433C30.2461 25.6542 30.2461 25.6542 30.2461 25.6542C30.2375 25.6936 30.2264 25.7324 30.2131 25.7705V25.7902C30.1977 25.8297 30.1823 25.8692 30.1647 25.9043C30.1659 25.9116 30.1659 25.919 30.1647 25.9262C30.149 25.9612 30.1306 25.995 30.1096 26.0271C30.0895 26.0631 30.0667 26.0976 30.0414 26.1302C29.7596 26.4944 29.2974 26.6567 28.7514 26.751L28.7624 26.7752C29.1763 27.6263 29.0926 27.9027 29.8785 28.3414M32.7842 26.8958C32.3286 27.4025 31.2543 29.0324 30.3958 28.9995C30.2241 28.9995 30.1251 28.7187 29.8785 28.3414M32.7842 26.8958C32.3264 27.4025 31.2543 29.0324 30.3936 28.9995C30.2241 28.9995 30.1229 28.7187 29.8785 28.3414M32.7842 26.8958C33.2201 26.5536 34.0082 25.9833 34.5827 25.2769C35.1 24.6408 35.4654 23.941 35.2563 23.3707C35.2173 23.2608 35.1567 23.1598 35.0781 23.0736C34.9995 22.9873 34.9044 22.9176 34.7984 22.8683C34.9679 24.0858 33.8673 25.2901 32.5465 26.1961C32.2515 26.3551 31.9846 26.5611 31.7562 26.8059C31.349 27.3543 30.7106 28.1528 29.8785 28.3414M35.2541 23.375C35.2313 23.316 35.2025 23.2594 35.1683 23.2061M31.1068 23.4409C31.0892 23.5045 31.0914 23.6142 31.0584 23.8796C31.0389 24.1187 30.9533 24.3478 30.8111 24.5414C30.6689 24.735 30.4756 24.8856 30.2527 24.9764L23.5872 18.7948L23.0677 18.1367C22.4073 17.4084 22.1057 17.1846 21.6346 17.2812V17.1386L21.322 16.3291C21.5128 16.2463 21.7157 16.1945 21.923 16.1756C22.4667 16.1251 22.9444 16.3949 23.4309 16.8885L31.1068 23.4409ZM30.365 25.0773C30.3598 25.0915 30.3561 25.1062 30.354 25.1212C30.3408 25.1892 30.3298 25.301 30.2968 25.5072C30.2968 25.5577 30.2791 25.6038 30.2681 25.6498C30.2681 25.6498 30.2681 25.6498 30.2681 25.6608C30.2595 25.7002 30.2484 25.739 30.2351 25.7771V25.7968C30.2197 25.8363 30.2043 25.8758 30.1867 25.9109C30.1879 25.9181 30.1879 25.9255 30.1867 25.9328C30.171 25.9678 30.1526 26.0015 30.1317 26.0337C30.1096 26.071 30.0854 26.1039 30.0634 26.1368C29.7816 26.501 29.3194 26.6633 28.7734 26.7576L28.7845 26.7817L24.5249 24.3797C23.7744 23.9561 23.1231 23.378 22.6142 22.684L21.5444 21.2231L21.5267 21.2011L21.5906 21.1485L21.6566 17.2855C22.1277 17.189 22.4359 17.4128 23.0897 18.141L23.6092 18.7991L30.2747 24.9808L30.365 25.0773ZM34.7368 22.8508C34.7573 22.8561 34.7772 22.8635 34.7962 22.8727L34.7368 22.8508ZM34.7896 22.8727C34.8785 22.9122 34.9592 22.968 35.0274 23.0372C35.0025 23.0135 34.976 22.9915 34.9481 22.9714L34.9085 22.9407C34.8814 22.9221 34.8526 22.906 34.8227 22.8924L34.7896 22.8727ZM35.0736 23.0789C35.0956 23.1074 35.1198 23.1359 35.1418 23.1666C35.1107 23.1198 35.0745 23.0764 35.034 23.0372L35.0736 23.0789ZM35.144 23.1688C35.144 23.182 35.1617 23.193 35.1705 23.2083L35.144 23.1688ZM12.1602 14.0894C12.1287 14.0916 12.097 14.0916 12.0655 14.0894C11.4051 14.3527 10.573 14.1311 9.84879 13.9622C9.76294 12.2643 9.24343 11.4571 8.32328 10.3734C8.73053 10.4655 9.10695 10.5577 9.39312 10.641C9.73381 10.7484 10.0651 10.8834 10.3837 11.0447C10.4652 9.99172 10.7315 9.16911 10.3375 7.65989C9.67709 7.49537 9.13116 7.35059 8.64247 6.97109C8.84703 6.69437 9.00126 6.38401 9.09814 6.05416C9.23809 5.58396 9.31217 5.09676 9.31828 4.60636C9.90318 4.87962 10.4458 5.23494 10.9296 5.6615C11.4557 6.15287 11.3963 6.57624 11.5834 7.3813C12.6334 9.73287 12.9967 10.0422 13.1794 12.7338C13.2278 13.7933 12.9967 13.8306 12.1602 14.0894ZM14.3174 18.9066L13.9916 19.1479C13.602 19.4309 13.241 19.681 12.891 19.9179C11.535 20.8567 10.5136 21.539 9.30726 22.9341L9.29185 22.9517C8.94217 22.7017 8.61178 22.426 8.30346 22.1269C8.04984 21.8833 7.78151 21.6555 7.49999 21.4446C5.03452 19.6108 2.70994 17.2373 1.71274 15.1774C0.328121 12.3257 1.05235 10.6476 3.09517 7.70375C3.10962 7.68951 3.12288 7.6741 3.13479 7.65769C3.46007 7.59974 3.79359 7.6057 4.11657 7.67524C4.27067 7.70814 4.41815 7.74762 4.55684 7.7915C4.70479 7.91079 4.86577 8.01307 5.03672 8.09641C5.36692 8.26971 5.47698 8.57681 5.54743 8.93876C5.61162 9.34983 5.64985 9.76451 5.66189 10.1804C5.3654 9.9341 5.05124 9.70975 4.72193 9.50911C2.11999 8.03938 0.552655 11.0973 2.00552 13.0759C2.68352 13.9973 4.41375 14.7014 5.51 15.0502C6.46097 15.3529 6.73393 15.3464 7.65848 15.3902C8.29026 15.3902 8.539 15.4692 8.84278 15.1906C8.91301 15.1191 8.96181 15.0294 8.98367 14.9318C9.16638 14.6992 9.22141 14.3636 9.2038 13.8108C9.15097 12.6482 8.74153 11.3869 8.17799 10.1979L8.32107 10.3668C9.24122 11.4505 9.76073 12.2577 9.84658 13.9556V14.175C11.3105 15.8048 12.7985 17.3404 14.3174 18.9066ZM9.32487 4.60415C9.31876 5.09455 9.24469 5.58176 9.10474 6.05195C9.00785 6.38181 8.85362 6.69216 8.64907 6.96889C8.08113 7.73446 7.25564 7.97357 6.80437 7.76517C6.75629 7.68211 6.71293 7.59643 6.6745 7.50852C6.55122 7.21019 6.58644 7.04347 6.37952 6.36344C6.19461 5.75581 5.77196 5.77775 5.0037 5.09991C4.81439 4.93101 4.75055 4.79939 5.10716 4.70725L5.37352 4.63925C5.54522 4.49886 5.51441 4.37382 5.14238 4.34969C5.05446 4.34302 4.96615 4.34302 4.87823 4.34969L4.96408 4.28608C5.14942 4.14497 5.36358 4.04613 5.59145 3.99652C5.88423 3.968 6.16379 4.34311 6.35531 4.67654C6.41034 4.89591 6.63267 5.33463 6.8572 5.42676C6.84747 4.82468 6.94051 4.22532 7.13237 3.65431C7.16457 3.56235 7.23084 3.48613 7.3176 3.44127C7.40436 3.39641 7.50505 3.3863 7.59904 3.41301C8.12259 3.57802 8.68272 3.58944 9.2126 3.44592C9.2126 3.44592 9.2126 3.44592 9.2126 3.45908C9.3023 3.83388 9.34008 4.21915 9.32487 4.60415ZM10.0029 2.95456C9.78891 3.19025 9.51278 3.36127 9.20599 3.44812C8.67611 3.59165 8.11598 3.58023 7.59243 3.41522C7.49844 3.38851 7.39775 3.39862 7.31099 3.44348C7.22423 3.48834 7.15796 3.56456 7.12576 3.65652C6.9339 4.22753 6.84086 4.82688 6.85059 5.42897C6.63046 5.33026 6.41033 4.9025 6.34869 4.67875C6.15718 4.34532 5.87761 3.97021 5.58484 3.99873C5.35697 4.04834 5.14281 4.14718 4.95747 4.28828L4.87161 4.3519C4.71934 4.35864 4.57239 4.40974 4.44896 4.49887C4.12977 4.73798 4.0087 5.1767 3.90524 5.63737L3.86562 5.83699C3.86345 5.5176 3.80994 5.20063 3.70712 4.89811C3.48699 4.16105 3.63228 2.81636 4.21122 2.19118L4.15399 2.22408C4.61406 1.74587 4.74834 1.55502 5.40653 1.37953C5.77354 1.1299 6.20813 0.997529 6.65247 1.00003C9.12454 1.05926 9.29184 2.98966 10.0029 2.95456ZM8.99247 14.9274C8.9706 15.0251 8.92181 15.1147 8.85158 15.1862C8.5412 15.4648 8.29905 15.3749 7.66728 15.3859C6.74273 15.342 6.46977 15.3486 5.5188 15.0458C4.41815 14.6927 2.69232 13.9885 2.01432 13.0716C0.561453 11.0973 2.12879 8.02624 4.73073 9.50474C5.06004 9.70538 5.37419 9.92973 5.67069 10.176C5.65865 9.76015 5.62042 9.34547 5.55622 8.9344C5.48578 8.57245 5.37572 8.27631 5.04552 8.09205C4.87456 8.00871 4.71359 7.90642 4.56563 7.78713C4.25305 7.53486 4.15399 7.24969 3.75115 6.61135C3.77215 6.35126 3.80891 6.09267 3.86122 5.837L3.90084 5.63738C3.99329 5.17671 4.12097 4.73799 4.44456 4.49888C4.56799 4.40975 4.71494 4.35865 4.86721 4.35191C4.95514 4.34524 5.04345 4.34524 5.13137 4.35191C5.50339 4.37604 5.53421 4.50108 5.36251 4.64147L5.09615 4.70947C4.73954 4.8016 4.80338 4.92883 4.99269 5.10213C5.76095 5.77996 6.1836 5.76022 6.36851 6.36566C6.57543 7.04569 6.54021 7.2124 6.66348 7.51074C6.70192 7.59864 6.74528 7.68433 6.79336 7.76739C6.89242 7.94069 7.0355 8.16444 7.22261 8.46716C7.57339 9.02765 7.89163 9.60772 8.17578 10.2045C8.73932 11.3935 9.14876 12.6548 9.20159 13.8174C9.23021 14.368 9.17518 14.708 8.99247 14.9274Z" stroke="white" stroke-width="0.7" stroke-linejoin="round"/>
</svg>
