<svg width="31" height="32" viewBox="0 0 31 32" fill="none" xmlns="http://www.w3.org/2000/svg">
<path d="M23.0358 16.1678C23.0119 16.0965 22.9712 16.0312 22.9181 15.9784L20.8523 13.9216L20.165 13.2373L20.1637 13.2359C19.5941 12.6688 18.6674 12.6688 18.0978 13.2359C17.6658 13.6661 17.5302 14.421 17.7535 14.95C17.7234 14.9939 17.7418 14.9072 17.7379 14.9344L17.4092 14.6071C16.8396 14.04 15.913 14.04 15.3434 14.6071C14.7738 15.1742 14.7738 16.0969 15.3434 16.664L12.2446 13.5787L11.2117 12.5503C10.6422 11.9832 9.71551 11.9832 9.14593 12.5503C8.57636 13.1174 8.57636 14.04 9.14593 14.6071L10.1788 15.6356L12.5879 17.9354V20.8406C12.5879 20.9691 12.639 21.0923 12.7304 21.1834L15.4849 23.9258C15.5595 24.0001 15.6564 24.0483 15.7603 24.0627L21.2935 25.6825C21.4452 25.7043 21.5985 25.6535 21.7067 25.5456L25.045 21.3367C25.1755 21.2068 25.2205 21.0146 25.1627 20.8406L23.0358 16.1678Z" fill="#9EC6C4"/>
<path d="M23.25 6.3125H7.75C4.5448 6.3125 1.9375 8.9198 1.9375 12.125C1.9375 15.3302 4.5448 17.9375 7.75 17.9375H11.1871L9.50964 16.3368L8.46237 15.2933C8.00259 14.8364 7.74905 14.2262 7.75 13.5781C7.75 12.9291 8.00354 12.3208 8.46332 11.8639C8.9212 11.4079 9.53046 11.1562 10.1794 11.1562C10.8275 11.1562 11.4367 11.4079 11.8956 11.8648L14.3458 14.3037C14.4357 14.1675 14.5407 14.0388 14.6599 13.9206C15.1187 13.4646 15.728 13.213 16.376 13.213C16.5605 13.213 16.7422 13.2338 16.9181 13.2726C17.0402 13.0039 17.2067 12.756 17.4148 12.5488C17.8727 12.0928 18.4819 11.8421 19.1309 11.8421C19.7799 11.8421 20.3892 12.0928 20.847 12.5488L23.6019 15.2914C23.759 15.4494 23.8791 15.6414 23.952 15.8505L24.8045 17.7201C27.2561 17.0379 29.0625 14.7911 29.0625 12.125C29.0625 8.9198 26.4552 6.3125 23.25 6.3125Z" fill="#71ABA6"/>
</svg>
