<svg width="24" height="25" viewBox="0 0 24 25" fill="none" xmlns="http://www.w3.org/2000/svg">
<path d="M22.0496 10.1922C21.5925 8.20505 20.5566 6.39801 19.0727 4.99946C17.5889 3.6009 15.7238 2.67361 13.7131 2.33479C11.7024 1.99596 9.63644 2.2608 7.77624 3.09585C5.91603 3.93089 4.34512 5.29865 3.26206 7.02626C2.28622 8.58585 1.74519 10.378 1.695 12.2171C1.64482 14.0561 2.08731 15.8751 2.97664 17.4856C3.86597 19.0961 5.16977 20.4395 6.75295 21.3766C8.33613 22.3136 10.1411 22.8103 11.9808 22.8152C12.7641 22.8148 13.5449 22.7258 14.3082 22.5499C16.9733 21.9374 19.286 20.2915 20.7377 17.974C22.1895 15.6566 22.6613 12.8575 22.0496 10.1922ZM19.9435 17.477C18.792 19.3151 17.0388 20.6971 14.9826 21.3874C12.9264 22.0778 10.6944 22.0338 8.66704 21.263C6.63963 20.4922 4.94222 19.0423 3.86403 17.1602C2.78584 15.2782 2.39358 13.0806 2.75408 10.9418C3.11459 8.80294 4.20556 6.8553 5.84111 5.43069C7.47665 4.00608 9.55556 3.19266 11.7236 3.12902C13.8917 3.06538 16.0147 3.75546 17.731 5.08169C19.4473 6.40791 20.6506 8.28821 21.136 10.4022C21.6923 12.8253 21.2633 15.3702 19.9435 17.477Z" fill="white"/>
<path d="M16.8483 4.76092C16.7392 4.69115 16.609 4.6619 16.4805 4.67826C16.352 4.69462 16.2334 4.75556 16.1452 4.85045L10.2568 11.0759C10.1321 11.2077 10.0349 11.3628 9.97082 11.5325L6.92394 19.5673C6.87691 19.688 6.87377 19.8214 6.91507 19.9442C6.95636 20.0669 7.03947 20.1713 7.14988 20.239C7.25901 20.3089 7.38925 20.3382 7.51779 20.3218C7.64633 20.3053 7.765 20.2442 7.853 20.149L13.7508 13.9006C13.8751 13.7693 13.972 13.6146 14.0358 13.4454L17.0724 5.43264C17.1195 5.31214 17.1229 5.17895 17.0819 5.05622C17.041 4.9335 16.9583 4.829 16.8483 4.76092ZM13.1611 13.1131C13.1409 13.1666 13.1101 13.2156 13.0707 13.257L8.47363 18.1278L10.8474 11.8644C10.8679 11.8107 10.8988 11.7616 10.9383 11.72L15.5283 6.86748L13.1611 13.1131Z" fill="white"/>
<path d="M12 12.9688C12.2589 12.9688 12.4688 12.7589 12.4688 12.5C12.4688 12.2411 12.2589 12.0312 12 12.0312C11.7411 12.0312 11.5312 12.2411 11.5312 12.5C11.5312 12.7589 11.7411 12.9688 12 12.9688Z" fill="white"/>
</svg>
