<svg width="17" height="19" viewBox="0 0 17 19" fill="none" xmlns="http://www.w3.org/2000/svg">
<path d="M8.617 8.366C12.6857 8.366 15.984 6.71706 15.984 4.683C15.984 2.64894 12.6857 1 8.617 1C4.54832 1 1.25 2.64894 1.25 4.683C1.25 6.71706 4.54832 8.366 8.617 8.366Z" stroke="#303841" stroke-miterlimit="10" stroke-linecap="round" stroke-linejoin="round"/>
<path d="M1.25 4.68298C1.26295 6.32036 1.83026 7.90505 2.85941 9.17864C3.88856 10.4522 5.31883 11.3396 6.917 11.696V16.335C6.917 16.7859 7.09611 17.2183 7.41492 17.5371C7.73373 17.8559 8.16613 18.035 8.617 18.035C9.06787 18.035 9.50027 17.8559 9.81908 17.5371C10.1379 17.2183 10.317 16.7859 10.317 16.335V11.696C11.915 11.3394 13.345 10.4519 14.374 9.17837C15.4029 7.9048 15.9701 6.32022 15.983 4.68298" stroke="#303841" stroke-miterlimit="10" stroke-linecap="round" stroke-linejoin="round"/>
</svg>
