<svg width="24" height="25" viewBox="0 0 24 25" fill="none" xmlns="http://www.w3.org/2000/svg">
<path d="M11.4701 4.34011C11.6107 4.19966 11.8013 4.12077 12.0001 4.12077C12.1988 4.12077 12.3895 4.19966 12.5301 4.34011L21.2201 13.0301C21.2887 13.1038 21.3715 13.1629 21.4635 13.2039C21.5555 13.2449 21.6549 13.2669 21.7556 13.2687C21.8563 13.2705 21.9563 13.252 22.0497 13.2142C22.1431 13.1765 22.2279 13.1204 22.2991 13.0492C22.3703 12.9779 22.4265 12.8931 22.4642 12.7997C22.5019 12.7063 22.5204 12.6063 22.5187 12.5056C22.5169 12.4049 22.4949 12.3056 22.4539 12.2136C22.4129 12.1216 22.3538 12.0388 22.2801 11.9701L13.5911 3.28011C13.3821 3.07118 13.1341 2.90544 12.8611 2.79237C12.5881 2.67929 12.2956 2.62109 12.0001 2.62109C11.7046 2.62109 11.412 2.67929 11.139 2.79237C10.8661 2.90544 10.618 3.07118 10.4091 3.28011L1.71908 11.9701C1.58253 12.1116 1.50702 12.3011 1.50882 12.4978C1.51062 12.6944 1.58959 12.8825 1.72871 13.0215C1.86783 13.1605 2.05598 13.2393 2.25263 13.2409C2.44928 13.2425 2.63869 13.1668 2.78008 13.0301L11.4701 4.34011Z" fill="#E60813"/>
<path d="M12 5.93169L20.159 14.0907C20.189 14.1207 20.219 14.1487 20.25 14.1767V20.3747C20.25 21.4097 19.41 22.2497 18.375 22.2497H15C14.8011 22.2497 14.6103 22.1707 14.4697 22.03C14.329 21.8894 14.25 21.6986 14.25 21.4997V16.9997C14.25 16.8008 14.171 16.61 14.0303 16.4694C13.8897 16.3287 13.6989 16.2497 13.5 16.2497H10.5C10.3011 16.2497 10.1103 16.3287 9.96967 16.4694C9.82902 16.61 9.75 16.8008 9.75 16.9997V21.4997C9.75 21.6986 9.67098 21.8894 9.53033 22.03C9.38968 22.1707 9.19891 22.2497 9 22.2497H5.625C5.12772 22.2497 4.65081 22.0521 4.29917 21.7005C3.94754 21.3489 3.75 20.872 3.75 20.3747V14.1767C3.78111 14.1489 3.81146 14.1202 3.841 14.0907L12 5.92969V5.93169Z" fill="#E60813"/>
</svg>
