<svg width="12" height="12" viewBox="0 0 12 12" fill="none" xmlns="http://www.w3.org/2000/svg">
<path d="M10.864 1.86401C10.5702 1.54385 10.2126 1.28882 9.81423 1.11537C9.41583 0.941923 8.9855 0.853911 8.551 0.857013C7.89177 0.854017 7.25109 1.0751 6.734 1.48401C6.45389 1.70324 6.20671 1.96154 6 2.25101C5.79331 1.96153 5.54612 1.70322 5.266 1.48401C4.74891 1.0751 4.10823 0.854017 3.449 0.857013C3.01466 0.854052 2.58453 0.942131 2.18632 1.11557C1.7881 1.28902 1.43065 1.54397 1.137 1.86401C0.531757 2.54171 0.203997 3.42252 0.218999 4.33101C0.245379 5.37839 0.653247 6.38011 1.366 7.14801C2.24871 8.12168 3.20849 9.0226 4.236 9.84201C4.636 10.181 5.085 10.565 5.553 10.974C5.67676 11.0822 5.83559 11.1419 6 11.1419C6.16441 11.1419 6.32324 11.0822 6.447 10.974C6.915 10.565 7.366 10.18 7.764 9.84101C8.79155 9.02165 9.75133 8.12072 10.634 7.14701C11.3468 6.37911 11.7546 5.37739 11.781 4.33001C11.7966 3.42129 11.4692 2.54006 10.864 1.86201V1.86401Z" fill="#FF6079"/>
</svg>
