<svg width="10" height="12" viewBox="0 0 10 12" fill="none" xmlns="http://www.w3.org/2000/svg">
<path d="M9.15405 4.53588H8.42105V3.55688C8.42882 3.10277 8.34608 2.65166 8.17767 2.22987C8.00926 1.80807 7.75855 1.42403 7.44016 1.10015C7.12176 0.776265 6.74207 0.519022 6.32321 0.343425C5.90436 0.167829 5.45472 0.0773926 5.00055 0.0773926C4.54638 0.0773926 4.09675 0.167829 3.67789 0.343425C3.25904 0.519022 2.87934 0.776265 2.56095 1.10015C2.24256 1.42403 1.99184 1.80807 1.82343 2.22987C1.65502 2.65166 1.57228 3.10277 1.58005 3.55688V4.53588H0.847054C0.782513 4.53561 0.720494 4.56093 0.674576 4.60628C0.628658 4.65164 0.602579 4.71334 0.602051 4.77788V10.8859C0.602316 11.1449 0.705331 11.3933 0.888496 11.5764C1.07166 11.7596 1.32001 11.8626 1.57905 11.8629H8.42005C8.67909 11.8626 8.92744 11.7596 9.1106 11.5764C9.29377 11.3933 9.39678 11.1449 9.39705 10.8859V4.77788C9.39652 4.71369 9.37072 4.65229 9.32523 4.60699C9.27975 4.56169 9.21825 4.53614 9.15405 4.53588ZM5.73205 9.63588C5.73585 9.67003 5.7324 9.7046 5.72192 9.73732C5.71143 9.77005 5.69415 9.80019 5.67121 9.82577C5.64827 9.85136 5.62019 9.87181 5.5888 9.88578C5.55741 9.89976 5.52341 9.90695 5.48905 9.90688H4.51205C4.47769 9.90695 4.4437 9.89976 4.41231 9.88578C4.38092 9.87181 4.35283 9.85136 4.32989 9.82577C4.30695 9.80019 4.28967 9.77005 4.27919 9.73732C4.26871 9.7046 4.26525 9.67003 4.26905 9.63588L4.42305 8.24988C4.29883 8.15997 4.19778 8.0418 4.12823 7.90514C4.05868 7.76847 4.02262 7.61722 4.02305 7.46388C4.02305 7.20463 4.12604 6.956 4.30936 6.77268C4.49267 6.58937 4.7413 6.48638 5.00055 6.48638C5.2598 6.48638 5.50843 6.58937 5.69175 6.77268C5.87507 6.956 5.97805 7.20463 5.97805 7.46388C5.97847 7.61722 5.94242 7.76847 5.87287 7.90514C5.80332 8.0418 5.70227 8.15997 5.57805 8.24988L5.73205 9.63588ZM6.95505 4.53588H3.04505V3.55688C3.0566 3.04617 3.2676 2.56027 3.63288 2.20315C3.99816 1.84604 4.48871 1.64609 4.99955 1.64609C5.51039 1.64609 6.00095 1.84604 6.36623 2.20315C6.73151 2.56027 6.9425 3.04617 6.95405 3.55688L6.95505 4.53588Z" fill="black"/>
</svg>
