<svg width="47" height="46" viewBox="0 0 47 46" fill="none" xmlns="http://www.w3.org/2000/svg">
<path fill-rule="evenodd" clip-rule="evenodd" d="M34.0852 14.1758V17.1147C37.3864 18.1452 39.7917 21.1336 39.7917 24.7029V34.1653C39.7917 38.5842 36.1283 42.1668 31.6118 42.1668H15.3902C10.8718 42.1668 7.20837 38.5842 7.20837 34.1653V24.7029C7.20837 21.1336 9.61561 18.1452 12.9148 17.1147V14.1758C12.9343 8.46184 17.667 3.8335 23.4708 3.8335C29.3526 3.8335 34.0852 8.46184 34.0852 14.1758ZM23.5098 7.16666C27.4634 7.16666 30.6769 10.3094 30.6769 14.1758V16.7014H16.3231V14.1377C16.3426 10.2903 19.5562 7.16666 23.5098 7.16666ZM25.2042 31.5388C25.2042 32.4721 24.4446 33.2149 23.4903 33.2149C22.5555 33.2149 21.7959 32.4721 21.7959 31.5388V27.3104C21.7959 26.3962 22.5555 25.6534 23.4903 25.6534C24.4446 25.6534 25.2042 26.3962 25.2042 27.3104V31.5388Z" fill="#141414"/>
</svg>
