<svg width="300" height="249" viewBox="0 0 300 249" fill="none" xmlns="http://www.w3.org/2000/svg">
<g clip-path="url(#clip0_342_2878)">
<path d="M226.322 56.2466C225.794 40.4161 220.373 21.2605 212.854 0.683105C157.559 16.7487 108.918 40.3265 75.5527 81.1455C109.783 123.162 156.436 149.058 211.9 163.522C220.07 148.52 223.808 128.57 224.38 105.093L197.972 104.611L195.088 124.763C170.398 121.326 141.79 105.731 110.591 81.6605C133.788 60.6128 161.947 46.1258 193.169 35.6804L196.053 58.676L226.322 56.2466Z" fill="url(#paint0_linear_342_2878)" stroke="white" stroke-miterlimit="10"/>
<path d="M138.098 80.6191C154.865 69.4235 170.88 60.9821 185.93 56.1792C188.444 74.0921 187.176 92.0049 183.237 109.727C165.774 100.782 150.612 91.1205 138.098 80.6191Z" fill="url(#paint1_linear_342_2878)" stroke="white" stroke-miterlimit="10"/>
<path d="M9.27024 234.513C9.25695 235.223 9.39747 235.928 9.68219 236.579C9.96691 237.231 10.3891 237.813 10.92 238.286C11.8912 239.192 13.1601 239.713 14.4889 239.753C15.2745 239.759 16.0515 239.59 16.7625 239.256C17.4735 238.923 18.1003 238.435 18.5965 237.827C19.3355 236.864 19.7305 235.681 19.7188 234.468C19.7094 233.791 19.839 233.119 20.0995 232.493C20.3601 231.867 20.7461 231.301 21.2339 230.83C22.2091 229.873 23.5249 229.342 24.8925 229.352H28.4727V234.558C28.4735 237.304 27.6613 239.989 26.1379 242.276C24.6146 244.563 22.448 246.35 19.91 247.414C17.3721 248.477 14.5759 248.768 11.8723 248.252C9.16881 247.736 6.67843 246.434 4.71373 244.511C2.04023 241.798 0.537609 238.149 0.527588 234.345V204.957C0.527588 201.26 1.99968 197.715 4.62004 195.101C7.2404 192.487 10.7944 191.019 14.5001 191.019C18.2059 191.019 21.7598 192.487 24.3802 195.101C27.0006 197.715 28.4727 201.26 28.4727 204.957V210.208H24.9711C23.5825 210.187 22.2567 209.627 21.2757 208.647C20.2948 207.666 19.7362 206.342 19.7188 204.957C19.7203 204.273 19.5863 203.595 19.3245 202.963C19.0628 202.331 18.6785 201.756 18.1936 201.273C17.7087 200.789 17.1328 200.405 16.499 200.144C15.8651 199.883 15.1859 199.75 14.5001 199.751C13.1176 199.776 11.7953 200.32 10.7966 201.274C10.2967 201.748 9.90019 202.319 9.63178 202.953C9.36337 203.587 9.22882 204.269 9.23657 204.957L9.27024 234.513Z" fill="url(#paint2_linear_342_2878)" stroke="white" stroke-miterlimit="10"/>
<path d="M44.9817 193.067C44.9937 193.662 44.8834 194.253 44.6575 194.804C44.4317 195.354 44.0951 195.853 43.6686 196.269C42.8129 197.11 41.6598 197.58 40.4588 197.579C39.8626 197.59 39.2703 197.48 38.7184 197.255C38.1664 197.029 37.6664 196.694 37.2491 196.269C36.8138 195.858 36.4691 195.361 36.2372 194.81C36.0053 194.258 35.8913 193.665 35.9023 193.067C35.8973 192.465 36.014 191.868 36.2454 191.313C36.4768 190.757 36.8182 190.253 37.2491 189.832C37.6664 189.407 38.1664 189.071 38.7184 188.846C39.2703 188.621 39.8626 188.51 40.4588 188.522C41.0541 188.522 41.6434 188.64 42.1925 188.869C42.7416 189.098 43.2395 189.434 43.6572 189.857C44.075 190.28 44.4042 190.782 44.6258 191.333C44.8474 191.884 44.9569 192.473 44.948 193.067H44.9817ZM44.8133 202.46V242.417C44.8148 243.213 44.6583 244.001 44.3527 244.736C44.0471 245.471 43.5986 246.138 43.033 246.699C42.4674 247.26 41.796 247.704 41.0575 248.005C40.319 248.306 39.5281 248.457 38.7305 248.452H36.0707V208.528C36.0625 207.725 36.2185 206.929 36.5291 206.187C36.8398 205.446 37.2986 204.776 37.8776 204.218C38.4322 203.649 39.0978 203.2 39.8332 202.898C40.5686 202.595 41.3582 202.446 42.1535 202.46H44.8133Z" fill="url(#paint3_linear_342_2878)" stroke="white" stroke-miterlimit="10"/>
<path d="M58.9877 204.543C61.1057 203.244 63.5323 202.532 66.0178 202.479C68.5034 202.426 70.9582 203.034 73.1298 204.242C75.3014 205.449 77.1114 207.212 78.3736 209.349C79.6358 211.485 80.3046 213.919 80.3113 216.399V248.452H77.5953C75.9915 248.44 74.4561 247.802 73.3188 246.673C72.1815 245.545 71.533 244.017 71.5125 242.417V216.399C71.4501 215.055 70.8713 213.788 69.8963 212.859C68.9213 211.93 67.625 211.412 66.277 211.412C64.9289 211.412 63.6327 211.93 62.6577 212.859C61.6827 213.788 61.1039 215.055 61.0415 216.399V242.417C61.0415 244.016 60.4057 245.549 59.2737 246.68C58.1417 247.812 56.606 248.449 55.0036 248.452H52.3325V202.438H55.0372C55.8203 202.427 56.5934 202.615 57.2842 202.983C57.975 203.351 58.5611 203.888 58.9877 204.543Z" fill="url(#paint4_linear_342_2878)" stroke="white" stroke-miterlimit="10"/>
<path d="M96.4163 228.613V234.424C96.4203 235.779 96.9374 237.082 97.864 238.073C98.3412 238.611 98.9292 239.039 99.5878 239.329C100.246 239.619 100.96 239.764 101.68 239.753C102.371 239.759 103.056 239.625 103.693 239.357C104.33 239.089 104.905 238.694 105.383 238.196C105.638 237.944 105.871 237.671 106.079 237.379C106.637 236.494 107.412 235.766 108.331 235.264C109.251 234.762 110.284 234.504 111.332 234.513H115.652C115.651 237.257 114.838 239.939 113.315 242.224C111.792 244.509 109.628 246.294 107.092 247.357C104.556 248.42 101.763 248.712 99.0609 248.198C96.3593 247.684 93.8699 246.385 91.9047 244.466C89.227 241.755 87.7203 238.106 87.7073 234.3V215.268C87.7107 211.46 89.2188 207.808 91.9047 205.102C93.8699 203.183 96.3593 201.885 99.0609 201.371C101.763 200.856 104.556 201.149 107.092 202.212C109.628 203.274 111.792 205.06 113.315 207.345C114.838 209.629 115.651 212.312 115.652 215.055V228.591L96.4163 228.613ZM106.898 215.078C106.898 213.691 106.346 212.361 105.363 211.381C104.38 210.4 103.047 209.849 101.657 209.849C100.267 209.849 98.9343 210.4 97.9514 211.381C96.9685 212.361 96.4163 213.691 96.4163 215.078V219.881H106.898V215.078Z" fill="url(#paint5_linear_342_2878)" stroke="white" stroke-miterlimit="10"/>
<path d="M166.975 190.985V248.451H164.304C163.51 248.451 162.724 248.295 161.991 247.992C161.257 247.688 160.591 247.244 160.03 246.683C159.47 246.123 159.025 245.457 158.722 244.725C158.419 243.993 158.264 243.209 158.266 242.417V209.715L150.006 248.451H140.511L131.757 209.625V242.417C131.759 243.209 131.604 243.993 131.301 244.725C130.998 245.457 130.554 246.123 129.993 246.683C129.432 247.244 128.766 247.688 128.033 247.992C127.299 248.295 126.513 248.451 125.719 248.451H123.048V190.985H128.312C130.006 190.973 131.654 191.533 132.988 192.573C134.323 193.614 135.265 195.074 135.663 196.717L145.191 234.905L154.237 196.84C154.628 195.163 155.587 193.672 156.953 192.619C158.268 191.573 159.905 191.011 161.588 191.029L166.975 190.985Z" fill="url(#paint6_linear_342_2878)" stroke="white" stroke-miterlimit="10"/>
<path d="M193.562 218.571V215.078C193.558 213.734 193.058 212.439 192.159 211.439C191.671 210.906 191.073 210.483 190.407 210.199C189.741 209.915 189.022 209.777 188.298 209.793C186.97 209.822 185.698 210.331 184.718 211.226C183.57 212.404 182.197 213.341 180.68 213.981C179.163 214.621 177.533 214.952 175.886 214.955H174.404C174.507 211.328 176.024 207.884 178.632 205.355C181.24 202.826 184.734 201.411 188.371 201.411C192.008 201.411 195.502 202.826 198.11 205.355C200.718 207.884 202.235 211.328 202.338 214.955V247.702H200.778C199.134 247.704 197.556 247.056 196.39 245.899C194.055 247.566 191.248 248.444 188.377 248.407C186.536 248.43 184.709 248.082 183.006 247.384C181.303 246.685 179.759 245.651 178.467 244.343C177.113 242.944 176.055 241.287 175.357 239.471C174.659 237.655 174.335 235.718 174.404 233.774C174.404 226.833 177.925 222.31 184.965 220.205L193.562 218.571ZM193.562 227.527L186.57 228.927C184.251 230.031 183.091 231.651 183.091 233.785C183.04 234.583 183.152 235.382 183.42 236.134C183.688 236.887 184.107 237.577 184.651 238.163C185.132 238.656 185.707 239.047 186.342 239.314C186.977 239.582 187.66 239.719 188.349 239.719C189.038 239.719 189.721 239.582 190.356 239.314C190.991 239.047 191.566 238.656 192.047 238.163C192.582 237.572 192.993 236.881 193.255 236.129C193.517 235.377 193.626 234.58 193.573 233.785L193.562 227.527Z" fill="url(#paint7_linear_342_2878)" stroke="white" stroke-miterlimit="10"/>
<path d="M214.796 202.438V190.985H217.467C218.261 190.983 219.047 191.138 219.781 191.44C220.515 191.742 221.182 192.186 221.743 192.745C222.305 193.305 222.751 193.969 223.055 194.701C223.359 195.432 223.516 196.216 223.516 197.008V202.438H228.768V211.17H223.493V234.401C223.502 235.622 223.921 236.805 224.683 237.76C225.109 238.228 225.592 238.641 226.12 238.991C226.938 239.513 227.611 240.233 228.074 241.085C228.538 241.937 228.776 242.892 228.768 243.861V248.418C226.931 248.427 225.11 248.072 223.411 247.375C221.711 246.678 220.167 245.651 218.868 244.355C217.569 243.059 216.54 241.519 215.841 239.824C215.142 238.129 214.787 236.312 214.796 234.48V211.193H209.7V202.438H214.796Z" fill="url(#paint8_linear_342_2878)" stroke="white" stroke-miterlimit="10"/>
<path d="M244.873 228.613V234.424C244.877 235.777 245.39 237.079 246.31 238.073C246.785 238.592 247.361 239.008 248.003 239.296C248.645 239.585 249.339 239.739 250.043 239.751C250.747 239.762 251.445 239.63 252.096 239.363C252.748 239.096 253.337 238.699 253.829 238.197C254.09 237.947 254.327 237.673 254.536 237.379C255.093 236.493 255.868 235.765 256.787 235.263C257.707 234.761 258.74 234.503 259.788 234.513H264.109C264.114 237.264 263.304 239.954 261.779 242.246C260.255 244.538 258.085 246.329 255.542 247.393C253 248.457 250.198 248.747 247.491 248.226C244.784 247.705 242.291 246.397 240.328 244.466C237.65 241.755 236.143 238.106 236.13 234.3V215.268C236.14 211.468 237.647 207.825 240.328 205.125C242.293 203.205 244.782 201.907 247.484 201.393C250.186 200.879 252.979 201.171 255.515 202.234C258.051 203.297 260.216 205.082 261.738 207.367C263.261 209.652 264.074 212.334 264.075 215.078V228.613H244.873ZM255.355 215.078C255.352 213.695 254.803 212.369 253.826 211.388C252.848 210.407 251.523 209.85 250.137 209.838C248.748 209.856 247.421 210.413 246.438 211.391C245.455 212.37 244.893 213.693 244.873 215.078V219.881H255.355V215.078Z" fill="url(#paint9_linear_342_2878)" stroke="white" stroke-miterlimit="10"/>
<path d="M299.439 235.901C299.519 237.645 299.189 239.383 298.476 240.977C297.763 242.571 296.686 243.977 295.331 245.082C292.563 247.356 289.062 248.549 285.478 248.44C283.642 248.442 281.825 248.082 280.129 247.382C278.433 246.682 276.892 245.656 275.594 244.361C274.297 243.067 273.267 241.529 272.566 239.838C271.864 238.146 271.504 236.333 271.505 234.502H276.6C277.49 234.503 278.363 234.748 279.123 235.21C279.883 235.672 280.501 236.333 280.91 237.122C281.142 237.518 281.433 237.877 281.774 238.185C282.252 238.683 282.827 239.078 283.464 239.346C284.101 239.613 284.787 239.748 285.478 239.741C286.763 239.785 288.037 239.487 289.17 238.879C289.69 238.585 290.112 238.145 290.383 237.613C290.654 237.082 290.763 236.483 290.696 235.89C290.696 233.785 287.502 231.274 281.112 228.356C274.722 225.437 271.52 221.213 271.505 215.682C271.457 213.895 271.8 212.12 272.509 210.478C273.219 208.837 274.278 207.369 275.613 206.177C278.297 203.713 281.831 202.377 285.478 202.449C289.177 202.467 292.719 203.941 295.334 206.552C297.949 209.162 299.424 212.697 299.439 216.387H294.95C293.924 216.386 292.916 216.12 292.024 215.616C291.131 215.112 290.384 214.387 289.855 213.51C289.627 213.186 289.368 212.886 289.08 212.615C288.565 212.117 287.952 211.733 287.279 211.486C286.607 211.239 285.89 211.136 285.175 211.182C283.95 211.186 282.763 211.604 281.808 212.368C281.29 212.757 280.877 213.266 280.605 213.852C280.333 214.438 280.21 215.082 280.248 215.727V215.817C280.248 218.354 283.454 220.881 289.866 223.396C296.278 225.911 299.469 230.08 299.439 235.901Z" fill="url(#paint10_linear_342_2878)" stroke="white" stroke-miterlimit="10"/>
</g>
<defs>
<linearGradient id="paint0_linear_342_2878" x1="151.431" y1="183.629" x2="150.571" y2="-19.6032" gradientUnits="userSpaceOnUse">
<stop stop-color="#DDDFDF"/>
<stop offset="0.46" stop-color="#ED5259"/>
<stop offset="1" stop-color="#E60813"/>
</linearGradient>
<linearGradient id="paint1_linear_342_2878" x1="163.114" y1="183.584" x2="162.254" y2="-19.6594" gradientUnits="userSpaceOnUse">
<stop offset="0.27" stop-color="white"/>
<stop offset="0.51" stop-color="#ED5259"/>
<stop offset="1" stop-color="#E60813"/>
</linearGradient>
<linearGradient id="paint2_linear_342_2878" x1="10.2354" y1="404.663" x2="16.2216" y2="145.687" gradientUnits="userSpaceOnUse">
<stop stop-color="#E60813"/>
<stop offset="0.54" stop-color="#ED5259"/>
<stop offset="1" stop-color="#DDDFDF" stop-opacity="0.99"/>
</linearGradient>
<linearGradient id="paint3_linear_342_2878" x1="36.0034" y1="405.256" x2="41.9895" y2="146.28" gradientUnits="userSpaceOnUse">
<stop stop-color="#E60813"/>
<stop offset="0.54" stop-color="#ED5259"/>
<stop offset="1" stop-color="#DDDFDF" stop-opacity="0.99"/>
</linearGradient>
<linearGradient id="paint4_linear_342_2878" x1="62.1526" y1="405.861" x2="68.1388" y2="146.885" gradientUnits="userSpaceOnUse">
<stop stop-color="#DDDFDF"/>
<stop offset="0.54" stop-color="#ED5259"/>
<stop offset="1" stop-color="#DDDFDF" stop-opacity="0.99"/>
</linearGradient>
<linearGradient id="paint5_linear_342_2878" x1="97.46" y1="406.678" x2="103.446" y2="147.702" gradientUnits="userSpaceOnUse">
<stop stop-color="#E60813"/>
<stop offset="0.54" stop-color="#ED5259"/>
<stop offset="1" stop-color="#DDDFDF" stop-opacity="0.99"/>
</linearGradient>
<linearGradient id="paint6_linear_342_2878" x1="140.646" y1="407.674" x2="146.632" y2="148.698" gradientUnits="userSpaceOnUse">
<stop stop-color="#E60813"/>
<stop offset="0.54" stop-color="#ED5259"/>
<stop offset="1" stop-color="#DDDFDF" stop-opacity="0.99"/>
</linearGradient>
<linearGradient id="paint7_linear_342_2878" x1="184.213" y1="408.682" x2="190.199" y2="149.706" gradientUnits="userSpaceOnUse">
<stop stop-color="#E60813"/>
<stop offset="0.54" stop-color="#ED5259"/>
<stop offset="1" stop-color="#DDDFDF" stop-opacity="0.99"/>
</linearGradient>
<linearGradient id="paint8_linear_342_2878" x1="214.964" y1="409.399" x2="220.95" y2="150.423" gradientUnits="userSpaceOnUse">
<stop stop-color="#E50914"/>
<stop offset="0.54" stop-color="#ED5259"/>
<stop offset="1" stop-color="#DDDFDF" stop-opacity="0.99"/>
</linearGradient>
<linearGradient id="paint9_linear_342_2878" x1="245.827" y1="410.104" x2="251.824" y2="151.139" gradientUnits="userSpaceOnUse">
<stop stop-color="#E60813"/>
<stop offset="0.54" stop-color="#ED5259"/>
<stop offset="1" stop-color="#DDDFDF" stop-opacity="0.99"/>
</linearGradient>
<linearGradient id="paint10_linear_342_2878" x1="281.168" y1="410.921" x2="287.154" y2="151.957" gradientUnits="userSpaceOnUse">
<stop stop-color="#E60813"/>
<stop offset="0.54" stop-color="#ED5259"/>
<stop offset="1" stop-color="#DDDFDF" stop-opacity="0.99"/>
</linearGradient>
<clipPath id="clip0_342_2878">
<rect width="300" height="249" fill="white"/>
</clipPath>
</defs>
</svg>
