<svg width="39" height="42" viewBox="0 0 39 42" fill="none" xmlns="http://www.w3.org/2000/svg">
<path d="M38 14.6487C37.8706 10.7601 36.5403 6.05466 34.695 1C21.125 4.94637 9.18825 10.7381 1 20.7649C9.40033 31.0859 20.8496 37.4469 34.4608 41C36.4659 37.3149 37.3831 32.4142 37.5235 26.6473L31.0429 26.529L30.335 31.4792C24.2758 30.6349 17.2553 26.8041 9.59863 20.8914C15.2916 15.7212 22.2019 12.1626 29.8641 9.59677L30.5719 15.2454L38 14.6487Z" fill="url(#paint0_linear_358_4936)" stroke="white" stroke-miterlimit="10"/>
<path d="M16.3491 20.6353C20.4639 17.8852 24.3942 15.8116 28.0875 14.6318C28.7045 19.032 28.3933 23.4321 27.4265 27.7855C23.141 25.5882 19.4201 23.2149 16.3491 20.6353Z" fill="url(#paint1_linear_358_4936)" stroke="white" stroke-miterlimit="10"/>
<defs>
<linearGradient id="paint0_linear_358_4936" x1="19.6212" y1="45.9392" x2="19.4097" y2="-3.98316" gradientUnits="userSpaceOnUse">
<stop stop-color="#1D1D1B"/>
<stop offset="0.46" stop-color="#ED5259"/>
<stop offset="1" stop-color="#E60813"/>
</linearGradient>
<linearGradient id="paint1_linear_358_4936" x1="22.4882" y1="45.9278" x2="22.2768" y2="-3.99725" gradientUnits="userSpaceOnUse">
<stop offset="0.27" stop-color="#1D1D1B"/>
<stop offset="0.51" stop-color="#ED5259"/>
<stop offset="1" stop-color="#E60813"/>
</linearGradient>
</defs>
</svg>
