<?xml version="1.0" encoding="UTF-8"?>
<svg version="1.1" viewBox="0 0 550 550" xmlns="http://www.w3.org/2000/svg" xmlns:xlink="http://www.w3.org/1999/xlink">
<svg width="550" height="550" viewBox="0 0 521.958 610.016" xmlns="http://www.w3.org/2000/svg" xmlns:xlink="http://www.w3.org/1999/xlink">
<defs>
<linearGradient id="a" x1="314" x2="435.99" y1="32.047" y2="334.1" gradientUnits="userSpaceOnUse">
<stop class="stopColor084185 svgShape" stop-color="#084185" offset="0"/>
<stop class="stopColor2a8ad3 svgShape" stop-color="#2a8ad3" offset="1"/>
</linearGradient>
<linearGradient id="q" x1="371.41" x2="493.4" y1="8.863" y2="310.92" xlink:href="#a"/>
<linearGradient id="p" x1="99.65" x2="221.63" y1="118.61" y2="420.66" xlink:href="#a"/>
<linearGradient id="o" x1="215.76" x2="337.74" y1="71.722" y2="373.77" xlink:href="#a"/>
<linearGradient id="n" x1="178.23" x2="300.21" y1="86.88" y2="388.93" xlink:href="#a"/>
<linearGradient id="m" x1="109.96" x2="231.95" y1="114.45" y2="416.5" xlink:href="#a"/>
<linearGradient id="l" x1="185.2" x2="307.18" y1="84.063" y2="386.12" xlink:href="#a"/>
<linearGradient id="k" x1="360.51" x2="482.49" y1="13.267" y2="315.32" xlink:href="#a"/>
<linearGradient id="j" x1="388.61" x2="510.59" y1="1.919" y2="303.97" xlink:href="#a"/>
</defs>
<g class="color000 svgShape" style="isolation:isolate">
<g class="color000 svgShape" style="mix-blend-mode:multiply">
<path d="M521.955 226.482c-3.845-23.848-24.364-44.391-48.983-46.158a53.778 53.778 0 0 0-9.112.256c-9.625.924-11.768 2.526-20.891-3.096-5.826-3.59-10.336-4.658-5.169-10.802 4.78-5.684 6.99-2.488 11.682 1.77 5.437 4.935 7.414 6.003 4.019 12.699a21.946 21.946 0 0 1-5.52 6.59c-12.758 10.58-32.678 4.671-45.78-1.93-13.779-6.943-24.501-17.14-35.638-27.581-8.844-8.293-18.758-16.786-31.365-17.883-8.776-.764-24.184 5.44-18.623 16.893 2.592 5.339 9.125 7.03 14.174 4.7 15.291-7.058 17.699-35.44 15.866-49.345-1.844-13.985-8.002-27.681-18.537-37.264-16.094-14.638-33.762-6.865-52.629-14.99-.11-.047-1.002-.368-1.125-.036-5.264 14.223-21.967 10.133-20.834 28.004.715 11.284 1.184 17.91-8.275 25.897-6.841 5.775-15.404 9.389-22.641 14.657-.907.66 3.088 4.923 4.47 3.917 14.42-10.496 33.867-16.229 31.88-37.111-.679-7.145-2.217-12.293 4.072-17.361 2.829-2.28 6.022-2.847 8.93-4.8 3.046-2.047 4.536-5.752 7.92-6.769 3.905-1.172 10.258 1.812 14.333 2.353 3.28.436 6.737-.034 9.952.413 13.571 1.887 27.619 10.493 33.202 23.283a64.87 64.87 0 0 1 4.257 36.63c-1.286 7.544-6.245 28.077-15.936 24.296-8.3-3.238 1.42-8.058 6.554-9.054 12.039-2.335 23.872 6.622 32.142 14.3 19.047 17.686 60.154 55.662 88.101 32.698 23.594-19.386-13.125-45.258-20.999-25.969-3.62 8.867 5.94 17.184 13.47 19.623 8.39 2.717 17.073-.42 25.545-.86 23.114-1.2 43.183 16.082 46.824 38.658.273 1.694 4.8 4.212 4.664 3.372Z" fill="url(#a)"/>
<path d="M450.998 34.994c-2.316-8.765-7.482-19.686-14.583-25.605C428.693 2.954 415.34 7.3 409 1.691c-.405-.359-5.469-2.668-4.914-1.217 2.84 7.44 7.837 6.651 13.243 10.879.9.703 5.03.353 5.388 1.224 7.545 18.357-2.127 5.557-3.676 5.875-1.33.273-7.558-1.602-9.828-1.216-1.27.216-.124 1.297.38 1.704 4.594 3.713 23.838 16.776 20.684 23.267-1.933 3.977-8.37 5.939-12.018 7.207-10.896 3.789-22.489 5.144-33.658 7.87-19.238 4.698-36.544 14.192-52.179 26.23-1.147.884 3.74 3.86 4.962 2.918 20.37-15.684 41.23-23.872 66.225-29.171 10.117-2.145 41.527-6.22 29.538-22.12-1.159-1.536-6.428-5.46-7.467-6.3-2.498-2.024-14.385-8.791-3.718-6.226 3.59.863 6.425 4.119 10.48 2.309 5.014-2.239 3.732-6.603.225-10.1-5.328-5.311-16.716-3.985-21.61-9.792 2.141.74 4.42 1.183 7.271 2.022 1.258.37 17.872 7.022 18.977 8.095 3.087 2.998 5.193 9.433 6.745 13.4 3.458 8.846 3.985 18.605-4.41 24.854-11.513 8.57-29.296 11.794-42.383 17.525-18.98 8.31-43.33 21.036-54.245 39.833a19.433 19.433 0 0 1 3.221 6.225c11.494-25.544 48.424-40.65 72.272-49.756 15.614-5.962 38.225-10.546 32.493-32.236Z" fill="url(#q)"/>
<path d="M269.974 415.487c-.628-1.225-1.358-2.395-2.095-3.562a223.54 223.54 0 0 1-45.898 11.185c-7.803 1.057-15.651 1.761-23.512 2.196-4.14.23-13.156 1.595-16.295-.021-5.96-3.069-10.43-17.794-10.564-24.18-.309-14.656 2.276-30.31 4.245-44.824a260.674 260.674 0 0 1 28.422-87.721c.777-1.47-2.087-6.135-2.62-5.125-17.44 32.997-26.724 67.071-30.478 104.113-1.96 19.324-12.948 61.166 16.974 63.656 26.312 2.189 56.181-3.17 82.845-13.281a19.941 19.941 0 0 0-1.024-2.436Z" fill="url(#p)"/>
<path d="M363.373 316.848c-7.994 9.96-16.429 20.559-28.343 25.963-9.16 4.154-23.108 3.175-29.406 12.368a14.195 14.195 0 0 0 6.653 21.087c1.003.37-.023-4.932-1.623-5.523l-2.41-10.44 5.898-4.8c2.708-1.52 5.829-2.209 8.785-3.044 7.12-2.014 13.512-3.182 19.889-7.25 6.074-3.877 11.178-8.974 15.894-14.41-11.81 29.693-34.05 51.944-60.988 67.368a19.639 19.639 0 0 1 2.036 3.008c.429.783.857 1.606 1.303 2.424 1.675-.983 3.378-1.95 4.987-2.97 28.912-18.343 51.077-45.77 60.06-79.024.257-.952-1.7-6.047-2.735-4.757Z" fill="url(#o)"/>
<path d="m305.74 372.84a100.85 100.85 0 0 1-24.597 9.623q1.224 1.57 2.592 3.005a100.75 100.75 0 0 0 27.199-10.147c0.968-0.541-3.716-3.308-5.194-2.48z" fill="url(#n)"/>
<path d="M257.546 389.39c-.445-.901-.9-1.796-1.402-2.669-9.19 1.001-18.512 1.63-27.915 2.538-1.577.153-6.62.533-12.556 1.35 12.838-16.057 19.407-32.726 20.443-53.688.086-1.757-5.529-3.06-5.579-2.05-.709 14.351-3.374 27.815-10.77 40.305A119.139 119.139 0 0 1 208.176 391c-.21.25-.466.592-.75.985-11.335 2.279-21.853 6.325-16.066 13.426 6.916 8.487 16.293-4.497 21.02-10.63.11-.018.214-.049.323-.067 14.916-3.121 29.985-3.89 44.844-5.325Zm-59.782 13.306q-.206-5.816 5.628-5.606c.178-.061.362-.102.54-.162-2.04 2.759-4.343 5.432-6.168 5.768Z" fill="url(#m)"/>
<path d="M412.001 216.974c-13.142-1.045-25.933 2.007-38.931 3.219-12.419 1.158-27.69 1.249-37.628-7.44 11.878-2.004 20.72-8.01 16.225-21.87-7.561-23.316-44.924-1.024-23.958 20.338a55.055 55.055 0 0 1-27.055-3.565 47.289 47.289 0 0 1-22.034-17.228 53.61 53.61 0 0 1-9.098-29.218c-.011-.98.017-1.954.07-2.924 6.065-5.504 13.646-10.343 18.487-16.884 4.604-6.222 4.18-15.195-5.378-14.777-13.232.58-18.225 17.614-18.747 31.967a72.03 72.03 0 0 0-7.748 6.81c-13.53 16.282-24.419 51.775-3.104 66.408 14.028 9.63 23.535 15.273 27.561 33.148 3.285 14.582 1.079 30.47-1.118 45.04-3.506 23.24-20.587 54.911-.811 74.075l.443.398a4.151 4.151 0 0 0 .437.39c11.054 9.878 21.52 19.237 27.575 33.18 6.724 15.485 8.483 32.529 8.132 49.253-.297 14.17-4.212 29.079-2.648 43.212 1.183 10.686 6.79 15.91 14.942 21.953 15.895 11.784 4.53 24.827 5.42 40.507.229 4.048 2.394 19.45 6.592 27.73-2.719-3.593-5.468-7.898-6.396-9.187a126.298 126.298 0 0 1-12.752-23.038c-7.362-16.772-10.962-34.39-14.244-52.293-8.026-43.793-27.285-87.28-46.265-128.289l-.507-1.09c-.063-.137-.126-.275-.19-.41-7.695-16.587-15.428-33.056-22.545-49.48-13.43-30.992-26.605-62.103-40.625-92.835-6.918-15.163-15.84-30.307-18.016-47.056-.911-7.013-.745-14.348 1.61-21.096 1.18-3.38 3.45-8.108 6.057-10.617a15.462 15.462 0 0 1 2.125-1.719c1.81.341 3.622.655 5.436.903 3.936.539 11.935 2.313 15.307-1.368 9.814-10.714-14.766-8.152-18.581-6.337a31.19 31.19 0 0 0-5.564 3.458 441.669 441.669 0 0 1-50.125-18.422c-14.397-6.31-28.175-14.22-42.949-19.645-11.355-4.17-23.287-6.925-35.45-6.309a82.911 82.911 0 0 0-11.645 1.697c-3.501.673-34.473 1.02-34.822 1.857 1.347-3.221 1.679-1.872 5.033-4.168 35.444-24.258 80.743-5.302 118.098 4.542 16.014 4.22 33.22 5.577 49.707 6.888 18.84 1.498 56.73-1.27 56.044 26.011-.036 1.432 5.905 1.582 5.942.113.453-18.008-16.652-23.6-31.62-25.695-29.451-4.125-58.493-4.248-87.468-11.796-23.27-6.062-46.512-13.143-70.643-14.524-20.32-1.163-35.419 9.883-53.775 16.902-.977.374-1.153 1.015-.028 1.429 8.243 3.029 16.74 5.484 25.627 5.093a52.067 52.067 0 0 0 11.38-1.918c16.753-4.034 30.275-5.396 47.062.408 25.998 8.988 49.917 23.782 75.929 33.15a198.125 198.125 0 0 0 21.233 6.48c-13.28 12.709-11.404 35.265-5.376 51.75 11.134 30.443 26.944 59.814 39.822 89.601q2.164 5.007 4.372 9.995 2.214 5.005 4.462 9.995 2.253 5.005 4.532 9.998 2.283 5.005 4.583 10.003 2.303 5.008 4.615 10.012l4.629 10.024q2.315 5.017 4.622 10.038 2.308 5.025 4.598 10.057c.362.794.701 1.598 1.063 2.392.18.396.367.791.564 1.18a11.666 11.666 0 0 1 .596 1.119c.116.311.185.619.325.93l.557 1.233 1.11 2.468q2.218 4.937 4.404 9.888 2.183 4.949 4.326 9.914 2.14 4.962 4.232 9.943 2.087 4.976 4.117 9.975 2.026 4.991 3.987 10.009 1.956 5.01 3.837 10.047 1.876 5.028 3.67 10.087 1.788 5.05 3.484 10.131 1.69 5.072 3.28 10.178c.301.969.586 1.943.895 2.91 9.39 30.857 10.664 63.171 25.979 92.205 4.753 9.009 13.29 25.666 22.693 30.595a10.782 10.782 0 0 0 8.757.146c.307-.146.525-.457.314-.772-6.205-9.268-9.672-19.698-11.338-30.697-1.452-9.588 1.578-16.435 2.697-25.73 2.473-20.527-21.468-21.929-23.8-41.34-2.386-19.86 3.967-40.415 2.169-60.601-1.643-18.45-7.349-37.332-19.685-51.55-4.735-5.457-12.009-10.46-17.309-15.308-.551-.536-1.105-1.068-1.63-1.636-7.496-8.108-7.998-17.747-6.055-28.094 4.503-23.976 11.822-46.894 12.011-71.605.117-15.106-3.457-31.51-15.213-42.005-6.44-5.75-15.443-7.369-20.524-14.789-7.313-10.678-5.716-27.11-1.74-38.618a64.786 64.786 0 0 1 13.328-22.426 48.04 48.04 0 0 0 .982 8.174c4.075 18.282 16.78 32.023 34.532 37.935 6.118 2.038 18.99 4.13 30.563 3.296.063.054.114.108.178.162 10.765 9.018 26.139 9.923 39.51 9.055 18.182-1.179 39.616-9.087 56.867.649 10.575 5.969 17.13 15.873 15.718 28.134-.15 1.302 5.762 1.68 5.942.113 2.425-21.064-17.678-33.053-36.258-34.53Zm-140.849-68.122c-.03.108 11.35-28.1 14.356-13.766.886 4.221-7.327 11.764-15.368 18.446a45.036 45.036 0 0 1 1.012-4.68Zm56.33 51.522a15.058 15.058 0 0 1 1.67-11.213l15.231-1.282c1.84 1.37 2.42 7.125 2 9.835-1.24 8.01-6.78 10.967-13.449 12.553-2.233-2.574-4.78-6.496-5.451-9.893Z" fill="url(#l)"/>
<path d="M377.229 188.879c12.722 10.637 28.024 17.516 44.722 18.538 12.114.742 22.938-3.876 34.77-4.76 29.938-2.238 42.5 20.02 44.32 44.396.112 1.497 5.622 3.15 5.511 1.662-1.571-21.046-12.15-40.45-33.012-47.389-7.86-2.615-15.701-2.461-23.786-1.064-25.147 4.345-46.494 6.937-68.094-11.123-1.013-.847-6.638-2.105-4.431-.26Z" fill="url(#k)"/>
<path d="M463.636 218.01c14.689.14 11.884 21.922 14.774 30.455a41.494 41.494 0 0 0 34.51 27.377c.948.1-1.548-4.555-3.269-4.738-15.095-1.605-25.94-11.524-28.85-26.84-1.266-6.665-.778-13.375-3.982-19.586-3.387-6.568-8.909-11.333-16.453-11.405-1.111-.01 1.576 4.721 3.27 4.738Z" fill="url(#j)"/>
</g>
</g>
</svg>
</svg>


