<svg width="72" height="69" viewBox="0 0 72 69" fill="none" xmlns="http://www.w3.org/2000/svg">
<path fill-rule="evenodd" clip-rule="evenodd" d="M40.2211 0.554814C42.0764 0.911314 44.7866 1.83898 46.0938 4.45331C48.9573 10.1803 46.5921 15.6236 44.0544 19.0085C42.3984 21.2165 40.2671 23.2941 37.7869 24.5668C37.2694 24.8351 36.2153 25.3335 35.0001 25.3335C32.7346 25.3335 30.5151 24.3023 28.6943 23.0143C28.3493 24.1873 28.0158 25.4753 27.7283 26.84C27.1596 29.4584 26.8515 32.1266 26.8083 34.8056C30.8448 33.5023 34.9733 33.6403 38.5306 35.649C41.2021 33.5465 44.2776 32.0159 47.5658 31.1525C52.5491 29.8453 58.5291 30.0255 63.9609 33.6442C67.8518 36.2393 70.7996 41.1268 71.3938 46.4743C72.0148 52.048 70.0789 58.143 64.2254 62.8273C60.0931 66.1316 53.7949 67.4081 47.9989 67.872C41.9998 68.355 35.6633 68.0253 30.7413 67.4771C21.6294 66.4651 14.6336 63.9198 9.74227 61.294C6.52993 59.569 2.14077 57.1847 0.749266 53.5315C-0.189901 51.0552 0.0554323 48.0498 0.285432 45.4738C0.592099 42.0966 1.34343 37.88 2.75027 33.3107C5.55627 24.1912 11.0494 13.4003 21.0583 5.12798C24.1364 2.58265 29.2884 1.00331 33.6009 0.474315C35.8243 0.202148 38.1626 0.163814 40.2211 0.554814Z" fill="#23548F"/>
</svg>
