<svg width="29" height="28" viewBox="0 0 29 28" fill="none" xmlns="http://www.w3.org/2000/svg">
<path d="M6.32581 28L5.46774 27.725L6.37097 25.0213L6.82258 18.239L6.37097 15.6268L4.7 12.1899C4.24839 13.4272 3.48064 14.2979 2.35161 14.8478C2.57742 16.3601 2.21613 17.8723 1.3129 19.3846L0.545161 18.9263C1.40323 17.5057 1.67419 16.0851 1.40323 14.6645L1.3129 14.2979L1.67419 14.1604C3.02903 13.6105 3.84194 12.5106 4.1129 10.8609L4.33871 9.48609L7.27419 15.4435L7.72581 18.239L7.22903 25.2962L6.32581 28ZM1.40323 6.36989L0.5 6.27823C0.770968 3.29951 1.71935 1.28314 3.39032 0L3.93226 0.733224C2.4871 1.83306 1.62903 3.66612 1.40323 6.36989ZM10.7968 14.1604C9.62258 14.1604 8.3129 13.748 7.45484 13.1064C6.46129 12.3732 5.64839 9.34861 5.46774 8.75286L6.32581 8.52373C6.6871 9.89853 7.40968 12.0065 7.95161 12.419C8.76452 13.0147 10.1645 13.3813 11.2484 13.2439C11.7903 13.1522 12.7387 12.7856 13.8226 12.1899C13.9581 12.0982 14.0484 11.9607 14.0484 11.8232V9.99018H14.9516V11.7774C14.9516 12.2815 14.6806 12.6939 14.2742 12.9231C13.4161 13.3813 12.2419 13.9771 11.3839 14.1146C11.2032 14.1146 10.9774 14.1604 10.7968 14.1604ZM12.0613 18.6972H10.8419C10.1645 18.6972 9.4871 18.3306 9.12581 17.7807L8.71936 17.1391L9.4871 16.635L9.89355 17.2766C10.1194 17.5974 10.4806 17.8265 10.8871 17.8265H12.1065C12.1968 17.8265 12.2419 17.8265 12.3323 17.7807L13.8677 17.4599C14.0032 17.4141 14.0935 17.3224 14.0935 17.1849V15.0311H14.9968V17.1849C14.9968 17.7349 14.5903 18.239 14.0484 18.3764L12.5129 18.6972C12.3774 18.6972 12.1968 18.6972 12.0613 18.6972ZM12.2871 22.8216H10.8419C10.1645 22.8216 9.4871 22.455 9.12581 21.9051L8.71936 21.2635L9.4871 20.7594L9.89355 21.401C10.1194 21.7218 10.4806 21.9509 10.8871 21.9509H12.3323C12.5129 21.9509 12.6935 21.9051 12.8742 21.8134L13.9581 21.2635C14.0484 21.2177 14.0935 21.126 14.0935 21.0344V19.2013H14.9968V21.0344C14.9968 21.4926 14.7258 21.9051 14.3645 22.0884L13.2806 22.6383C12.9645 22.7299 12.6484 22.8216 12.2871 22.8216ZM22.6742 28L21.771 25.1129L21.2742 18.239L21.771 15.3061L24.6613 9.44026L24.8871 10.8151C25.1581 12.5106 25.971 13.5646 27.3258 14.1146L27.6871 14.252L27.5968 14.6645C27.3258 16.0851 27.5968 17.5057 28.4548 18.9263L27.6871 19.3846C26.7839 17.8723 26.4677 16.3601 26.6484 14.8478C25.5194 14.2979 24.7516 13.4272 24.3 12.1899L22.629 15.6268L22.1774 18.239L22.629 25.0213L23.5323 27.725L22.6742 28ZM27.5968 6.36989C27.371 3.66612 26.5129 1.83306 25.0677 0.733224L25.6097 0C27.2806 1.28314 28.229 3.29951 28.5 6.27823L27.5968 6.36989Z" fill="#FBFBFB"/>
<path d="M18.1329 14.1029C17.9114 14.1029 17.7342 14.1029 17.557 14.0572C16.7152 13.9657 15.5633 13.3709 14.7215 12.8676C14.3228 12.6389 14.057 12.2271 14.057 11.7239V9.93954H14.943V11.7239C14.943 11.8611 15.0316 11.9984 15.1646 12.0899C16.2278 12.6846 17.1139 13.0964 17.6899 13.1422C18.7532 13.2794 20.1266 12.9134 20.9241 12.3186C21.4557 11.9069 22.1646 9.80229 22.519 8.42974L23.3608 8.6585C23.2278 9.25327 22.3861 12.2729 21.4114 13.0049C20.5696 13.6912 19.2848 14.1029 18.1329 14.1029ZM18.0886 18.6324H16.8924C16.7595 18.6324 16.6266 18.6324 16.4937 18.5866L14.9873 18.2663C14.4557 18.1748 14.057 17.6716 14.057 17.1225V14.9722H14.943V17.1225C14.943 17.2598 15.0316 17.3513 15.1646 17.3971L16.6709 17.7173C16.7595 17.7173 16.8038 17.7631 16.8924 17.7631H18.0886C18.4873 17.7631 18.8418 17.5801 19.0633 17.2141L19.462 16.5735L20.2152 17.0768L19.7722 17.7173C19.3734 18.2663 18.7532 18.6324 18.0886 18.6324ZM18.0886 22.75H16.6709C16.3608 22.75 16.0506 22.6585 15.7405 22.5212L14.6772 21.9722C14.3228 21.7892 14.057 21.3775 14.057 20.9199V19.0899H14.943V20.9199C14.943 21.0114 14.9873 21.1029 15.0759 21.1487L16.1392 21.6977C16.3165 21.7892 16.4937 21.835 16.6709 21.835H18.0886C18.4873 21.835 18.8418 21.652 19.0633 21.2859L19.462 20.6454L20.2152 21.1487L19.7722 21.835C19.3734 22.384 18.7532 22.75 18.0886 22.75ZM4.66456 7.51471L4 6.91993C4.57595 6.23366 4.79747 5.31863 4.79747 5.27288L4.84177 5.04412L5.01899 4.95261C6.74684 4.03758 7.4557 2.02451 7.4557 2.02451L8.29747 2.34477C8.25316 2.43627 7.5 4.5866 5.59494 5.68464C5.46203 6.05065 5.1962 6.82843 4.66456 7.51471ZM13.1709 3.53431C11.3987 3.44281 9.93671 2.57353 9.8481 2.57353L10.2911 1.79575C10.2911 1.79575 11.6203 2.57353 13.1709 2.66503V3.53431ZM24.3354 7.51471C23.8038 6.87418 23.4937 6.05065 23.4051 5.68464C21.5 4.5866 20.7468 2.43627 20.7025 2.34477L21.5443 2.02451C21.5443 2.02451 22.2532 4.08333 23.981 4.95261L24.1582 5.04412L24.2025 5.27288C24.2025 5.27288 24.4241 6.23366 25 6.91993L24.3354 7.51471ZM15.8291 3.53431V2.61928C17.3797 2.52778 18.7089 1.75 18.7089 1.75L19.1519 2.52778C19.1076 2.57353 17.6456 3.44281 15.8291 3.53431Z" fill="#FBFBFB"/>
<path d="M15.375 7.875H13.625V8.75H15.375V7.875Z" fill="#FBFBFB"/>
<path d="M19.4045 28L18.5457 27.7941C18.9525 26.8333 20.0374 26.2843 20.0826 26.25L20.5798 26.799L20.3538 26.5245L20.625 26.799C20.625 26.799 19.7661 27.2794 19.4045 28ZM9.55028 28C9.23386 27.2794 8.375 26.799 8.375 26.799L8.87223 26.25C8.91744 26.2843 9.9571 26.8333 10.4091 27.7941L9.55028 28Z" fill="#FBFBFB"/>
</svg>
