<svg width="39" height="40" viewBox="0 0 39 40" fill="none" xmlns="http://www.w3.org/2000/svg">
<path fill-rule="evenodd" clip-rule="evenodd" d="M29.1038 24.9859C29.8973 24.9859 30.5413 24.3419 30.5413 23.5484V19.9987C30.5413 19.2052 29.8973 18.5612 29.1038 18.5612H18.1942C17.5732 16.5161 15.691 15.0134 13.4447 15.0134C10.6962 15.0134 8.45942 17.2502 8.45942 19.9987C8.45942 22.7491 10.6962 24.9859 13.4447 24.9859C15.691 24.9859 17.5732 23.4832 18.1942 21.4362H22.2422V23.5484C22.2422 24.3419 22.8862 24.9859 23.6797 24.9859C24.4732 24.9859 25.1172 24.3419 25.1172 23.5484V21.4362H27.6663V23.5484C27.6663 24.3419 28.3103 24.9859 29.1038 24.9859ZM11.1926 0.832031H27.8082C34.3018 0.832031 38.6661 5.38986 38.6661 12.1729V27.8264C38.6661 34.6094 34.3018 39.1654 27.8063 39.1654H11.1926C4.69701 39.1654 0.332756 34.6094 0.332756 27.8264V12.1729C0.332756 5.38986 4.69701 0.832031 11.1926 0.832031ZM11.3327 20.0004C11.3327 18.8351 12.2814 17.8883 13.4449 17.8883C14.6083 17.8883 15.557 18.8351 15.557 20.0004C15.557 21.1638 14.6083 22.1107 13.4449 22.1107C12.2814 22.1107 11.3327 21.1638 11.3327 20.0004Z" fill="#141414"/>
</svg>
