<svg width="17" height="22" viewBox="0 0 17 22" fill="none" xmlns="http://www.w3.org/2000/svg">
<path d="M11.4901 4.47998C11.8857 4.47998 12.2724 4.36268 12.6013 4.14292C12.9302 3.92316 13.1865 3.6108 13.3379 3.24535C13.4893 2.8799 13.5289 2.47776 13.4517 2.0898C13.3745 1.70184 13.1841 1.34547 12.9044 1.06577C12.6246 0.786063 12.2683 0.595581 11.8803 0.518411C11.4924 0.44124 11.0902 0.480847 10.7248 0.632222C10.3593 0.783598 10.047 1.03994 9.8272 1.36884C9.60743 1.69774 9.49014 2.08442 9.49014 2.47998C9.49172 3.00993 9.70294 3.51772 10.0777 3.89245C10.4524 4.26718 10.9602 4.4784 11.4901 4.47998ZM7.89014 18.38L8.89014 13.98L10.9901 15.98V21.98H12.9901V14.48L10.8901 12.48L11.4901 9.47998C12.1763 10.264 13.0218 10.8926 13.9703 11.3237C14.9187 11.7548 15.9483 11.9786 16.9901 11.98V9.97998C16.1257 9.99309 15.2731 9.77815 14.5182 9.35681C13.7633 8.93546 13.1328 8.32261 12.6901 7.57998L11.6901 5.97998C11.5129 5.68454 11.2644 5.43823 10.9675 5.26355C10.6705 5.08886 10.3345 4.99137 9.99014 4.97998C9.69014 4.97998 9.49014 5.07998 9.19014 5.07998L3.99014 7.27998V11.98H5.99014V8.57998L7.79014 7.87998L6.19014 15.98L1.29014 14.98L0.890137 16.98L7.89014 18.38Z" fill="white"/>
</svg>
