<svg width="13" height="20" viewBox="0 0 13 20" fill="none" xmlns="http://www.w3.org/2000/svg">
<path d="M3.28571 11.7856H3.99999V12.4999H3.28571V11.7856ZM7.21428 17.857H5.78571C5.69099 17.857 5.60014 17.8946 5.53317 17.9616C5.46619 18.0286 5.42856 18.1194 5.42856 18.2141C5.42856 18.3089 5.46619 18.3997 5.53317 18.4667C5.60014 18.5337 5.69099 18.5713 5.78571 18.5713H7.21428C7.309 18.5713 7.39984 18.5337 7.46681 18.4667C7.53379 18.3997 7.57142 18.3089 7.57142 18.2141C7.57142 18.1194 7.53379 18.0286 7.46681 17.9616C7.39984 17.8946 7.309 17.857 7.21428 17.857ZM3.28571 6.07129H3.99999V6.78557H3.28571V6.07129Z" fill="#AED0CE"/>
<path d="M12.9286 1.42857C12.9286 1.04969 12.778 0.686328 12.5101 0.418419C12.2422 0.15051 11.8789 0 11.5 0H1.49998C1.1211 0 0.757739 0.15051 0.48983 0.418419C0.221921 0.686328 0.0714111 1.04969 0.0714111 1.42857V18.5714C0.0714111 18.9503 0.221921 19.3137 0.48983 19.5816C0.757739 19.8495 1.1211 20 1.49998 20H11.5C11.8789 20 12.2422 19.8495 12.5101 19.5816C12.778 19.3137 12.9286 18.9503 12.9286 18.5714V1.42857ZM8.2857 8.57143H8.99998V10.3571H8.2857V8.57143ZM5.42855 0.714286H7.57141V1.42857H5.42855V0.714286ZM5.42855 5.35714H7.57141V6.07143H6.85712V6.78571H7.57141V7.5H6.85712V7.85714H6.14284V6.07143H5.42855V5.35714ZM7.57141 8.57143V9.28571H6.49998V8.57143H7.57141ZM3.99998 0.714286H4.71427V1.42857H3.99998V0.714286ZM2.57141 5.71429C2.57141 5.61957 2.60904 5.52872 2.67602 5.46175C2.74299 5.39477 2.83383 5.35714 2.92855 5.35714H4.35713C4.45185 5.35714 4.54269 5.39477 4.60966 5.46175C4.67664 5.52872 4.71427 5.61957 4.71427 5.71429V7.14286C4.71427 7.23758 4.67664 7.32842 4.60966 7.3954C4.54269 7.46237 4.45185 7.5 4.35713 7.5H2.92855C2.83383 7.5 2.74299 7.46237 2.67602 7.3954C2.60904 7.32842 2.57141 7.23758 2.57141 7.14286V5.71429ZM2.57141 8.21429H3.2857V8.92857H4.35713V8.21429H5.07141V8.92857H5.7857V9.64286H4.71427V10.3571H3.99998V9.64286H3.2857V10.3571H2.57141V8.21429ZM4.35713 13.2143H2.92855C2.83383 13.2143 2.74299 13.1767 2.67602 13.1097C2.60904 13.0427 2.57141 12.9519 2.57141 12.8571V11.4286C2.57141 11.3339 2.60904 11.243 2.67602 11.176C2.74299 11.1091 2.83383 11.0714 2.92855 11.0714H4.35713C4.45185 11.0714 4.54269 11.1091 4.60966 11.176C4.67664 11.243 4.71427 11.3339 4.71427 11.4286V12.8571C4.71427 12.9519 4.67664 13.0427 4.60966 13.1097C4.54269 13.1767 4.45185 13.2143 4.35713 13.2143ZM7.21427 19.2857H5.7857C5.50154 19.2857 5.22901 19.1728 5.02808 18.9719C4.82715 18.771 4.71427 18.4984 4.71427 18.2143C4.71427 17.9301 4.82715 17.6576 5.02808 17.4567C5.22901 17.2557 5.50154 17.1429 5.7857 17.1429H7.21427C7.49843 17.1429 7.77095 17.2557 7.97188 17.4567C8.17281 17.6576 8.2857 17.9301 8.2857 18.2143C8.2857 18.4984 8.17281 18.771 7.97188 18.9719C7.77095 19.1728 7.49843 19.2857 7.21427 19.2857ZM8.2857 13.2143H5.42855V12.5H6.49998V11.7857H5.42855V11.0714H6.49998V10H7.21427V11.0714H7.57141V11.7857H7.21427V12.5H8.2857V13.2143ZM8.2857 11.0714H8.99998V11.7857H8.2857V11.0714ZM10.4286 12.8571C10.4286 12.9519 10.3909 13.0427 10.3239 13.1097C10.257 13.1767 10.1661 13.2143 10.0714 13.2143H8.99998V12.5H9.71427V11.7857H10.4286V12.8571ZM10.4286 11.0714H9.71427V8.21429H10.4286V11.0714ZM10.4286 7.14286C10.4286 7.23758 10.3909 7.32842 10.3239 7.3954C10.257 7.46237 10.1661 7.5 10.0714 7.5H8.64284C8.54812 7.5 8.45728 7.46237 8.3903 7.3954C8.32332 7.32842 8.2857 7.23758 8.2857 7.14286V5.71429C8.2857 5.61957 8.32332 5.52872 8.3903 5.46175C8.45728 5.39477 8.54812 5.35714 8.64284 5.35714H10.0714C10.1661 5.35714 10.257 5.39477 10.3239 5.46175C10.3909 5.52872 10.4286 5.61957 10.4286 5.71429V7.14286Z" fill="#63A29D"/>
<path d="M9 6.07129H9.71429V6.78557H9V6.07129Z" fill="#AED0CE"/>
</svg>
