<svg width="32" height="32" viewBox="0 0 32 32" fill="none" xmlns="http://www.w3.org/2000/svg">
<path d="M24.9454 13.2105C24.5268 13.2105 24.1859 12.868 24.1804 12.4417V11.3197C24.194 10.3672 23.8348 9.44846 23.1822 8.76621C22.5297 8.08395 21.6373 7.69434 20.7022 7.6834H19.8862C19.4637 7.6834 19.1212 7.33454 19.1212 6.9042C19.1212 6.47386 19.4637 6.125 19.8862 6.125H20.7022C23.4949 6.15914 25.7411 8.4749 25.7409 11.3197V12.4313C25.7465 12.636 25.6704 12.8343 25.5302 12.9811C25.39 13.1278 25.1974 13.2106 24.9964 13.2105H24.9454ZM7.0955 13.2106C6.89356 13.2133 6.69894 13.1335 6.55518 12.989C6.41141 12.8446 6.33049 12.6474 6.33051 12.4417V11.3197C6.31415 9.94771 6.83779 8.62622 7.78452 7.65019C8.73125 6.67417 10.0222 6.1249 11.3693 6.125H12.2057C12.6282 6.125 12.9707 6.47386 12.9707 6.9042C12.9707 7.33454 12.6282 7.6834 12.2057 7.6834H11.3795C10.4364 7.68046 9.5319 8.06431 8.86987 8.7484C8.20785 9.4325 7.84405 10.3592 7.8605 11.3197V12.4417C7.85492 12.868 7.51405 13.2106 7.0955 13.2106Z" fill="#AED0CE"/>
<path d="M25.7103 17.8129V20.7323C25.6777 23.5409 23.4593 25.8143 20.7022 25.8646H19.876C19.5835 25.8992 19.2975 25.7597 19.1405 25.5059C18.9836 25.2521 18.9836 24.9291 19.1405 24.6754C19.2975 24.4216 19.5835 24.2821 19.876 24.3166H20.7022C22.6473 24.3109 24.2212 22.7032 24.2212 20.7219V17.8129H25.7103ZM12.9707 25.0958C12.9652 25.5238 12.6259 25.8694 12.2057 25.875H11.3693C8.57657 25.8409 6.33031 23.5251 6.33051 20.6804V17.8129H7.8605V20.7323C7.86046 22.7095 9.42813 24.3156 11.3693 24.327H12.2057C12.4076 24.3243 12.6022 24.404 12.746 24.5485C12.8897 24.693 12.9707 24.8901 12.9707 25.0958ZM27.6177 17.0337C27.6177 17.4641 27.2752 17.8129 26.8527 17.8129H5.14732C4.72482 17.8129 4.38232 17.4641 4.38232 17.0337C4.38232 16.6034 4.72482 16.2545 5.14732 16.2545H26.8221C27.0303 16.246 27.2328 16.3244 27.383 16.4714C27.5331 16.6185 27.6177 16.8216 27.6177 17.0337Z" fill="#63A29D"/>
<path d="M21.3142 14.374V13.0338C21.3142 12.3863 21.0616 11.7652 20.6121 11.3074C20.1626 10.8495 19.5529 10.5923 18.9172 10.5923H13.0828C11.759 10.5923 10.6859 11.6854 10.6859 13.0338V14.374C10.6911 14.5324 10.816 14.6595 10.9714 14.6649H21.0286C21.1841 14.6595 21.3089 14.5324 21.3142 14.374Z" fill="#AED0CE"/>
<path d="M21.3142 17.813V18.9766C21.3142 20.325 20.241 21.4181 18.9172 21.4181H13.0828C11.759 21.4181 10.6859 20.325 10.6859 18.9766V17.813H21.3142Z" fill="#63A29D"/>
</svg>
