<svg width="29" height="28" viewBox="0 0 29 28" fill="none" xmlns="http://www.w3.org/2000/svg">
<path d="M27.2695 0H23.0586C22.9498 0 22.8455 0.0432128 22.7686 0.120132C22.6917 0.197051 22.6484 0.301376 22.6484 0.410156C22.6484 0.518936 22.6917 0.623261 22.7686 0.700181C22.8455 0.7771 22.9498 0.820312 23.0586 0.820312H27.2695C27.3783 0.820428 27.4825 0.863678 27.5594 0.940572C27.6363 1.01747 27.6796 1.12172 27.6797 1.23047V5.44141C27.6797 5.55019 27.7229 5.65451 27.7998 5.73143C27.8767 5.80835 27.9811 5.85156 28.0898 5.85156C28.1986 5.85156 28.3029 5.80835 28.3799 5.73143C28.4568 5.65451 28.5 5.55019 28.5 5.44141V1.23047C28.4996 0.904239 28.3699 0.591475 28.1392 0.360796C27.9085 0.130116 27.5958 0.000361874 27.2695 0ZM0.910156 5.85156C1.01894 5.85156 1.12326 5.80835 1.20018 5.73143C1.2771 5.65451 1.32031 5.55019 1.32031 5.44141V1.23047C1.32043 1.12172 1.36368 1.01747 1.44057 0.940572C1.51747 0.863678 1.62172 0.820428 1.73047 0.820312H5.94141C6.05019 0.820312 6.15451 0.7771 6.23143 0.700181C6.30835 0.623261 6.35156 0.518936 6.35156 0.410156C6.35156 0.301376 6.30835 0.197051 6.23143 0.120132C6.15451 0.0432128 6.05019 0 5.94141 0H1.73047C1.40424 0.000361874 1.09147 0.130116 0.860796 0.360796C0.630116 0.591475 0.500362 0.904239 0.5 1.23047V5.44141C0.5 5.55019 0.543213 5.65451 0.620132 5.73143C0.697051 5.80835 0.801376 5.85156 0.910156 5.85156ZM28.0898 22.1484C27.9811 22.1484 27.8767 22.1917 27.7998 22.2686C27.7229 22.3455 27.6797 22.4498 27.6797 22.5586V26.7695C27.6796 26.8783 27.6363 26.9825 27.5594 27.0594C27.4825 27.1363 27.3783 27.1796 27.2695 27.1797H23.0586C22.9498 27.1797 22.8455 27.2229 22.7686 27.2998C22.6917 27.3767 22.6484 27.4811 22.6484 27.5898C22.6484 27.6986 22.6917 27.8029 22.7686 27.8799C22.8455 27.9568 22.9498 28 23.0586 28H27.2695C27.5958 27.9996 27.9085 27.8699 28.1392 27.6392C28.3699 27.4085 28.4996 27.0958 28.5 26.7695V22.5586C28.5 22.4498 28.4568 22.3455 28.3799 22.2686C28.3029 22.1917 28.1986 22.1484 28.0898 22.1484ZM5.94141 27.1797H1.73047C1.62172 27.1796 1.51747 27.1363 1.44057 27.0594C1.36368 26.9825 1.32043 26.8783 1.32031 26.7695V22.5586C1.32031 22.4498 1.2771 22.3455 1.20018 22.2686C1.12326 22.1917 1.01894 22.1484 0.910156 22.1484C0.801376 22.1484 0.697051 22.1917 0.620132 22.2686C0.543213 22.3455 0.5 22.4498 0.5 22.5586V26.7695C0.500362 27.0958 0.630116 27.4085 0.860796 27.6392C1.09147 27.8699 1.40424 27.9996 1.73047 28H5.94141C6.05019 28 6.15451 27.9568 6.23143 27.8799C6.30835 27.8029 6.35156 27.6986 6.35156 27.5898C6.35156 27.4811 6.30835 27.3767 6.23143 27.2998C6.15451 27.2229 6.05019 27.1797 5.94141 27.1797ZM4.60156 6.15234V10.3633C4.60217 10.907 4.81843 11.4283 5.20289 11.8127C5.58736 12.1972 6.10863 12.4135 6.65234 12.4141H10.8633C11.407 12.4135 11.9283 12.1972 12.3127 11.8127C12.6972 11.4283 12.9135 10.907 12.9141 10.3633V6.15234C12.9135 5.60863 12.6972 5.08736 12.3127 4.70289C11.9283 4.31843 11.407 4.10217 10.8633 4.10156H6.65234C6.10863 4.10217 5.58736 4.31843 5.20289 4.70289C4.81843 5.08736 4.60217 5.60863 4.60156 6.15234ZM5.42188 6.15234C5.42224 5.82611 5.55199 5.51335 5.78267 5.28267C6.01335 5.05199 6.32611 4.92224 6.65234 4.92188H10.8633C11.1895 4.92224 11.5023 5.05199 11.733 5.28267C11.9636 5.51335 12.0934 5.82611 12.0938 6.15234V10.3633C12.0934 10.6895 11.9636 11.0023 11.733 11.233C11.5023 11.4636 11.1895 11.5934 10.8633 11.5938H6.65234C6.32611 11.5934 6.01335 11.4636 5.78267 11.233C5.55199 11.0023 5.42224 10.6895 5.42188 10.3633V6.15234ZM7.74609 9.54297H9.76953C9.84205 9.54297 9.9116 9.51416 9.96288 9.46288C10.0142 9.4116 10.043 9.34205 10.043 9.26953V7.24609C10.043 7.17357 10.0142 7.10402 9.96288 7.05274C9.9116 7.00146 9.84205 6.97266 9.76953 6.97266H7.74609C7.67357 6.97266 7.60402 7.00146 7.55274 7.05274C7.50146 7.10402 7.47266 7.17357 7.47266 7.24609V9.26953C7.47266 9.34205 7.50146 9.4116 7.55274 9.46288C7.60402 9.51416 7.67357 9.54297 7.74609 9.54297ZM18.1367 12.4141H22.3477C22.8914 12.4135 23.4126 12.1972 23.7971 11.8127C24.1816 11.4283 24.3978 10.907 24.3984 10.3633V6.15234C24.3978 5.60863 24.1816 5.08736 23.7971 4.70289C23.4126 4.31843 22.8914 4.10217 22.3477 4.10156H18.1367C17.593 4.10217 17.0717 4.31843 16.6873 4.70289C16.3028 5.08736 16.0865 5.60863 16.0859 6.15234V10.3633C16.0865 10.907 16.3028 11.4283 16.6873 11.8127C17.0717 12.1972 17.593 12.4135 18.1367 12.4141ZM16.9062 6.15234C16.9066 5.82611 17.0364 5.51335 17.267 5.28267C17.4977 5.05199 17.8105 4.92224 18.1367 4.92188H22.3477C22.6739 4.92224 22.9867 5.05199 23.2173 5.28267C23.448 5.51335 23.5778 5.82611 23.5781 6.15234V10.3633C23.5778 10.6895 23.448 11.0023 23.2173 11.233C22.9867 11.4636 22.6739 11.5934 22.3477 11.5938H18.1367C17.8105 11.5934 17.4977 11.4636 17.267 11.233C17.0364 11.0023 16.9066 10.6895 16.9062 10.3633V6.15234ZM19.2305 9.54297H21.2539C21.3264 9.54297 21.396 9.51416 21.4473 9.46288C21.4985 9.4116 21.5273 9.34205 21.5273 9.26953V7.24609C21.5273 7.17357 21.4985 7.10402 21.4473 7.05274C21.396 7.00146 21.3264 6.97266 21.2539 6.97266H19.2305C19.1579 6.97266 19.0884 7.00146 19.0371 7.05274C18.9858 7.10402 18.957 7.17357 18.957 7.24609V9.26953C18.957 9.34205 18.9858 9.4116 19.0371 9.46288C19.0884 9.51416 19.1579 9.54297 19.2305 9.54297ZM21.1172 16.4062V15.5859H20.2969V16.4062H21.1172ZM21.9375 20.5078H22.7578V19.6875H21.9375V20.5078ZM20.2969 19.6875H19.4766V20.5078H20.2969V19.6875ZM19.4766 17.2266H20.2969V16.4062H19.4766V17.2266ZM14.0898 11.5938V12.4141H14.9102V11.5938H14.0898ZM24.3984 23.4336V20.9727C24.3984 20.8639 24.3552 20.7596 24.2783 20.6826C24.2014 20.6057 24.0971 20.5625 23.9883 20.5625H23.332C23.2233 20.5625 23.1189 20.6057 23.042 20.6826C22.9651 20.7596 22.9219 20.8639 22.9219 20.9727C22.9219 21.0814 22.9651 21.1858 23.042 21.2627C23.1189 21.3396 23.2233 21.3828 23.332 21.3828H23.5781V23.0234H18.2461C18.1373 23.0234 18.033 23.0667 17.9561 23.1436C17.8792 23.2205 17.8359 23.3248 17.8359 23.4336C17.8359 23.5424 17.8792 23.6467 17.9561 23.7236C18.033 23.8005 18.1373 23.8438 18.2461 23.8438H23.9883C24.0971 23.8438 24.2014 23.8005 24.2783 23.7236C24.3552 23.6467 24.3984 23.5424 24.3984 23.4336ZM18.1367 18.9219H22.3477C22.4564 18.9219 22.5608 18.8787 22.6377 18.8017C22.7146 18.7248 22.7578 18.6205 22.7578 18.5117C22.7578 18.4029 22.7146 18.2986 22.6377 18.2217C22.5608 18.1448 22.4564 18.1016 22.3477 18.1016H18.1367C18.0279 18.1016 17.9236 18.1448 17.8467 18.2217C17.7698 18.2986 17.7266 18.4029 17.7266 18.5117C17.7266 18.6205 17.7698 18.7248 17.8467 18.8017C17.9236 18.8787 18.0279 18.9219 18.1367 18.9219ZM19.7773 22.2031H21.5273C21.6361 22.2031 21.7404 22.1599 21.8174 22.083C21.8943 22.0061 21.9375 21.9017 21.9375 21.793C21.9375 21.6842 21.8943 21.5799 21.8174 21.5029C21.7404 21.426 21.6361 21.3828 21.5273 21.3828H19.7773C19.6686 21.3828 19.5642 21.426 19.4873 21.5029C19.4104 21.5799 19.3672 21.6842 19.3672 21.793C19.3672 21.9017 19.4104 22.0061 19.4873 22.083C19.5642 22.1599 19.6686 22.2031 19.7773 22.2031ZM9.76953 18.457H7.74609C7.67357 18.457 7.60402 18.4858 7.55274 18.5371C7.50146 18.5884 7.47266 18.6579 7.47266 18.7305V20.7539C7.47266 20.8264 7.50146 20.896 7.55274 20.9473C7.60402 20.9985 7.67357 21.0273 7.74609 21.0273H9.76953C9.84205 21.0273 9.9116 20.9985 9.96288 20.9473C10.0142 20.896 10.043 20.8264 10.043 20.7539V18.7305C10.043 18.6579 10.0142 18.5884 9.96288 18.5371C9.9116 18.4858 9.84205 18.457 9.76953 18.457ZM10.8633 15.5859H6.65234C6.10863 15.5865 5.58736 15.8028 5.20289 16.1873C4.81843 16.5717 4.60217 17.093 4.60156 17.6367V21.8477C4.60217 22.3914 4.81843 22.9126 5.20289 23.2971C5.58736 23.6816 6.10863 23.8978 6.65234 23.8984H10.8633C11.407 23.8978 11.9283 23.6816 12.3127 23.2971C12.6972 22.9126 12.9135 22.3914 12.9141 21.8477V17.6367C12.9135 17.093 12.6972 16.5717 12.3127 16.1873C11.9283 15.8028 11.407 15.5865 10.8633 15.5859ZM12.0938 21.8477C12.0934 22.1739 11.9636 22.4867 11.733 22.7173C11.5023 22.948 11.1895 23.0778 10.8633 23.0781H6.65234C6.32611 23.0778 6.01335 22.948 5.78267 22.7173C5.55199 22.4867 5.42224 22.1739 5.42188 21.8477V17.6367C5.42224 17.3105 5.55199 16.9977 5.78267 16.767C6.01335 16.5364 6.32611 16.4066 6.65234 16.4062H10.8633C11.1895 16.4066 11.5023 16.5364 11.733 16.767C11.9636 16.9977 12.0934 17.3105 12.0938 17.6367V21.8477ZM14.5 18.0469C14.3912 18.0469 14.2869 18.0901 14.21 18.167C14.1331 18.2439 14.0898 18.3483 14.0898 18.457V23.4883C14.0898 23.5971 14.1331 23.7014 14.21 23.7783C14.2869 23.8552 14.3912 23.8984 14.5 23.8984C14.6088 23.8984 14.7131 23.8552 14.79 23.7783C14.8669 23.7014 14.9102 23.5971 14.9102 23.4883V18.457C14.9102 18.3483 14.8669 18.2439 14.79 18.167C14.7131 18.0901 14.6088 18.0469 14.5 18.0469ZM14.0898 16.4062H14.9102V15.5859H14.0898V16.4062ZM16.0859 23.8438H16.9062V23.0234H16.0859V23.8438ZM16.4961 15.5859C16.3873 15.5859 16.283 15.6291 16.2061 15.7061C16.1291 15.783 16.0859 15.8873 16.0859 15.9961V21.0273C16.0859 21.1361 16.1291 21.2404 16.2061 21.3174C16.283 21.3943 16.3873 21.4375 16.4961 21.4375C16.6049 21.4375 16.7092 21.3943 16.7861 21.3174C16.863 21.2404 16.9062 21.1361 16.9062 21.0273V15.9961C16.9062 15.8873 16.863 15.783 16.7861 15.7061C16.7092 15.6291 16.6049 15.5859 16.4961 15.5859ZM17.8359 20.043V21.793C17.8359 21.9017 17.8792 22.0061 17.9561 22.083C18.033 22.1599 18.1373 22.2031 18.2461 22.2031C18.3549 22.2031 18.4592 22.1599 18.5361 22.083C18.613 22.0061 18.6562 21.9017 18.6562 21.793V20.043C18.6562 19.9342 18.613 19.8299 18.5361 19.7529C18.4592 19.676 18.3549 19.6328 18.2461 19.6328C18.1373 19.6328 18.033 19.676 17.9561 19.7529C17.8792 19.8299 17.8359 19.9342 17.8359 20.043ZM23.9883 18.9766C24.0971 18.9766 24.2014 18.9333 24.2783 18.8564C24.3552 18.7795 24.3984 18.6752 24.3984 18.5664V15.9961C24.3984 15.8873 24.3552 15.783 24.2783 15.7061C24.2014 15.6291 24.0971 15.5859 23.9883 15.5859H22.4004C22.2916 15.5859 22.1873 15.6291 22.1104 15.7061C22.0335 15.783 21.9903 15.8873 21.9903 15.9961C21.9903 16.1049 22.0335 16.2092 22.1104 16.2861C22.1873 16.363 22.2916 16.4062 22.4004 16.4062H23.5781V18.5664C23.5781 18.6752 23.6213 18.7795 23.6983 18.8564C23.7752 18.9333 23.8795 18.9766 23.9883 18.9766ZM13.5568 4.92188H14.0898V10.3633C14.0898 10.4721 14.1331 10.5764 14.21 10.6533C14.2869 10.7302 14.3912 10.7734 14.5 10.7734C14.6088 10.7734 14.7131 10.7302 14.79 10.6533C14.8669 10.5764 14.9102 10.4721 14.9102 10.3633V4.51172C14.9102 4.40294 14.8669 4.29861 14.79 4.22169C14.7131 4.14478 14.6088 4.10156 14.5 4.10156H13.5568C13.448 4.10156 13.3436 4.14478 13.2667 4.22169C13.1898 4.29861 13.1466 4.40294 13.1466 4.51172C13.1466 4.6205 13.1898 4.72482 13.2667 4.80174C13.3436 4.87866 13.448 4.92188 13.5568 4.92188ZM26.8047 14C26.8047 13.8912 26.7615 13.7869 26.6846 13.71C26.6076 13.6331 26.5033 13.5898 26.3945 13.5898H2.60547C2.49669 13.5898 2.39236 13.6331 2.31544 13.71C2.23853 13.7869 2.19531 13.8912 2.19531 14C2.19531 14.1088 2.23853 14.2131 2.31544 14.29C2.39236 14.3669 2.49669 14.4102 2.60547 14.4102H26.3945C26.5033 14.4102 26.6076 14.3669 26.6846 14.29C26.7615 14.2131 26.8047 14.1088 26.8047 14Z" fill="#FBFBFB"/>
</svg>
