<svg xmlns="http://www.w3.org/2000/svg" fill="none" viewBox="0 0 96 96" id="SubscribeNow"><g filter="url(#filter0_d)" fill="#23548f" class="color000000 svgShape"><path stroke="#1e80f7" stroke-width="3.5" d="M47.815 77.5323H47.8151C60.9192 77.5143 72.7388 68.6569 76.3225 56.1292C79.9934 43.3117 74.9022 29.842 63.6787 22.6912L63.6779 22.6907C63.3459 22.4795 63.0474 22.2988 62.7712 22.1317C62.2092 21.7916 61.7395 21.5074 61.2682 21.1348L61.2677 21.1344C60.7475 20.7234 60.5234 20.284 60.4598 19.9164C60.397 19.5539 60.4663 19.1307 60.7697 18.6851C61.0493 18.2755 61.2852 18.1745 61.4578 18.1442C61.6725 18.1066 62.109 18.1273 62.8396 18.5222L62.8403 18.5225C72.8793 23.9421 78.7591 32.2256 80.4053 43.4962C82.9411 60.8585 70.4003 78.2696 51.3529 80.5711H51.3527C34.7022 82.5845 18.3827 70.6544 15.3185 53.9608C14.1601 47.6398 14.7855 41.5746 17.0709 35.6052L17.0715 35.6036C17.4149 34.7042 17.807 34.3181 18.0691 34.1683C18.2823 34.0465 18.59 33.9733 19.1187 34.1609C19.6715 34.3587 19.9267 34.6474 20.0619 34.9645C20.2178 35.3302 20.2928 35.9328 20.0851 36.8267L20.0849 36.8273C19.9132 37.5676 19.7142 38.3405 19.5091 39.1372C18.8369 41.7487 18.099 44.6156 18.0378 47.4269L18.0377 47.4275C17.6802 64.0702 31.2139 77.5539 47.815 77.5323Z" class="colorStrokef7861e svgStroke"></path><path stroke="#1e80f6" stroke-width="3.5" d="M46.4159 51.0444L46.413 51.0431C45.8261 50.779 45.3355 50.418 45.0826 50.087 39.8663 43.2213 34.6723 36.3364 29.4844 29.4465 36.337 34.6417 43.1833 39.8349 49.9928 45.0764 51.4139 46.1703 51.7117 48.0953 50.6518 49.7667 49.828 51.0648 47.8389 51.6879 46.4159 51.0444zM47.658 14.7513H47.6588C49.4982 14.6984 51.2156 16.3393 51.2411 18.2364 51.2665 20.2931 49.8513 21.7611 47.7821 21.8103 45.7606 21.8561 44.2365 20.3888 44.1998 18.3972 44.1659 16.4508 45.7431 14.8054 47.658 14.7513z" class="colorStrokef6861e svgStroke"></path></g><defs><filter id="filter0_d" width="100" height="100" x="-2" y="0" color-interpolation-filters="sRGB" filterUnits="userSpaceOnUse"><feFlood flood-opacity="0" result="BackgroundImageFix"></feFlood><feColorMatrix in="SourceAlpha" values="0 0 0 0 0 0 0 0 0 0 0 0 0 0 0 0 0 0 127 0"></feColorMatrix><feOffset dy="2"></feOffset><feGaussianBlur stdDeviation="1"></feGaussianBlur><feColorMatrix values="0 0 0 0 0 0 0 0 0 0 0 0 0 0 0 0 0 0 0.25 0"></feColorMatrix><feBlend in2="BackgroundImageFix" result="effect1_dropShadow"></feBlend><feBlend in="SourceGraphic" in2="effect1_dropShadow" result="shape"></feBlend></filter></defs></svg>