<svg width="19" height="19" viewBox="0 0 19 19" fill="none" xmlns="http://www.w3.org/2000/svg">
<path d="M13.5 12H12.71L12.43 11.73C13.5266 10.4524 14.0856 8.79962 13.9895 7.11869C13.8934 5.43775 13.1499 3.8594 11.9149 2.71501C10.6799 1.57063 9.04962 0.949219 7.36625 0.981252C5.68287 1.01328 4.07738 1.69627 2.88684 2.88681C1.6963 4.07735 1.01331 5.68284 0.981282 7.36622C0.949249 9.04959 1.57066 10.6799 2.71504 11.9149C3.85943 13.1498 5.43778 13.8934 7.11872 13.9895C8.79965 14.0855 10.4524 13.5266 11.73 12.43L12 12.71V13.5L17 18.49L18.49 17L13.5 12ZM7.50004 12C6.61003 12 5.74 11.7361 4.99998 11.2416C4.25996 10.7472 3.68318 10.0444 3.34259 9.22209C3.00199 8.39982 2.91288 7.49502 3.08651 6.62211C3.26014 5.74919 3.68873 4.94737 4.31806 4.31803C4.9474 3.6887 5.74922 3.26011 6.62214 3.08648C7.49505 2.91285 8.39985 3.00196 9.22212 3.34256C10.0444 3.68315 10.7472 4.25993 11.2417 4.99995C11.7361 5.73997 12 6.61 12 7.50001C12.0008 8.09118 11.885 8.6767 11.6591 9.22302C11.4332 9.76934 11.1018 10.2657 10.6838 10.6838C10.2658 11.1018 9.76937 11.4332 9.22305 11.6591C8.67673 11.8849 8.09121 12.0008 7.50004 12Z" fill="#303841"/>
</svg>
