<svg width="23" height="22" viewBox="0 0 23 22" fill="none" xmlns="http://www.w3.org/2000/svg">
<path d="M11.9922 21.999C9.8166 21.999 7.68986 21.3539 5.88092 20.1452C4.07198 18.9365 2.66208 17.2185 1.82952 15.2085C0.996954 13.1985 0.779117 10.9868 1.20355 8.853C1.62799 6.71921 2.67564 4.7592 4.21402 3.22082C5.7524 1.68245 7.71241 0.634797 9.8462 0.21036C11.98 -0.214078 14.1917 0.00375909 16.2017 0.836323C18.2117 1.66889 19.9297 3.07878 21.1384 4.88773C22.3471 6.69667 22.9922 8.8234 22.9922 10.999C22.989 13.9154 21.8291 16.7115 19.7669 18.7737C17.7046 20.8359 14.9086 21.9958 11.9922 21.999ZM11.9922 1.256C10.0652 1.256 8.1815 1.82741 6.57927 2.89799C4.97704 3.96856 3.72826 5.49021 2.99083 7.27051C2.25341 9.05081 2.06047 11.0098 2.4364 12.8998C2.81234 14.7897 3.74027 16.5258 5.10285 17.8883C6.46543 19.2509 8.20147 20.1789 10.0914 20.5548C11.9814 20.9307 13.9404 20.7378 15.7207 20.0004C17.501 19.2629 19.0226 18.0141 20.0932 16.4119C21.1638 14.8097 21.7352 12.926 21.7352 10.999C21.7323 8.41589 20.7049 5.93941 18.8783 4.11287C17.0518 2.28634 14.5753 1.25891 11.9922 1.256Z" fill="black"/>
<path d="M15.5332 16.688C15.4394 16.6882 15.3465 16.6699 15.2598 16.634C15.1731 16.5982 15.0944 16.5455 15.0282 16.479L11.1982 12.649C11.1319 12.5827 11.0793 12.504 11.0434 12.4173C11.0075 12.3307 10.9891 12.2378 10.9892 12.144V4.03999C10.9892 3.85062 11.0644 3.66902 11.1983 3.53511C11.3322 3.40121 11.5138 3.32599 11.7032 3.32599C11.8926 3.32599 12.0742 3.40121 12.2081 3.53511C12.342 3.66902 12.4172 3.85062 12.4172 4.03999V11.848L16.0382 15.469C16.1378 15.5685 16.2058 15.6953 16.2335 15.8334C16.2612 15.9715 16.2475 16.1147 16.1941 16.245C16.1406 16.3753 16.0498 16.4868 15.9331 16.5657C15.8164 16.6445 15.679 16.6871 15.5382 16.688H15.5332Z" fill="black"/>
</svg>
