<svg width="12" height="12" viewBox="0 0 12 12" fill="none" xmlns="http://www.w3.org/2000/svg">
<path d="M5.521 11.043C4.42909 11.043 3.36171 10.7192 2.4538 10.1126C1.5459 9.50601 0.83826 8.64381 0.420359 7.63504C0.00245842 6.62626 -0.106934 5.51623 0.106014 4.44528C0.318962 3.37434 0.844687 2.39059 1.61671 1.61843C2.38874 0.846261 3.37239 0.320358 4.4433 0.107216C5.5142 -0.105926 6.62426 0.00326562 7.6331 0.420984C8.64195 0.838702 9.50428 1.54619 10.1111 2.45398C10.7178 3.36177 11.0418 4.4291 11.042 5.52101C11.0407 6.98496 10.4586 8.38858 9.42354 9.42384C8.38846 10.4591 6.98495 11.0414 5.521 11.043ZM5.521 0.63101C4.55385 0.63101 3.60842 0.917803 2.80426 1.45512C2.00011 1.99244 1.37334 2.75616 1.00323 3.64969C0.633119 4.54322 0.536281 5.52643 0.724962 6.475C0.913644 7.42357 1.37937 8.29488 2.06325 8.97876C2.74713 9.66264 3.61844 10.1284 4.56701 10.317C5.51558 10.5057 6.49879 10.4089 7.39232 10.0388C8.28586 9.66867 9.04957 9.0419 9.58689 8.23775C10.1242 7.43359 10.411 6.48816 10.411 5.52101C10.4084 4.22491 9.89232 2.98266 8.97584 2.06618C8.05935 1.1497 6.8171 0.633652 5.521 0.63101Z" fill="#00ADB5"/>
<path d="M7.21505 7.53001C7.17365 7.53013 7.13264 7.52207 7.09437 7.50628C7.0561 7.49049 7.02132 7.46729 6.99205 7.43801L5.29806 5.74501C5.26882 5.7157 5.24565 5.68093 5.22986 5.64266C5.21408 5.6044 5.20599 5.5634 5.20606 5.52201V1.93901C5.21059 1.8584 5.24581 1.78259 5.30448 1.72714C5.36315 1.67168 5.44082 1.64078 5.52156 1.64078C5.60229 1.64078 5.67996 1.67168 5.73863 1.72714C5.7973 1.78259 5.83251 1.8584 5.83705 1.93901V5.39101L7.43705 6.99101C7.48107 7.0352 7.51102 7.09142 7.52314 7.1526C7.53526 7.21379 7.52901 7.27718 7.50516 7.33482C7.48132 7.39245 7.44095 7.44174 7.38915 7.47647C7.33735 7.5112 7.27642 7.52983 7.21405 7.53001H7.21505Z" fill="#00ADB5"/>
</svg>
