<svg width="29" height="28" viewBox="0 0 29 28" fill="none" xmlns="http://www.w3.org/2000/svg">
<path d="M26.1667 1.86667H22.9V1.4C22.9 0.628133 22.2719 0 21.5 0C20.7281 0 20.1 0.628133 20.1 1.4V1.86667H8.9V1.4C8.9 0.628133 8.27187 0 7.5 0C6.72813 0 6.1 0.628133 6.1 1.4V1.86667H2.83333C1.54673 1.86667 0.5 2.9134 0.5 4.2V25.6667C0.5 26.9533 1.54673 28 2.83333 28H26.1667C27.4533 28 28.5 26.9533 28.5 25.6667V4.2C28.5 2.9134 27.4533 1.86667 26.1667 1.86667ZM20.1023 5.15667C20.1084 5.52351 20.2583 5.87329 20.5197 6.13075C20.7811 6.38821 21.1331 6.53277 21.5 6.53333C21.8669 6.53277 22.2189 6.38821 22.4803 6.13075C22.7417 5.87329 22.8916 5.52351 22.8977 5.15667C23.1615 5.21023 23.3987 5.35328 23.5692 5.56162C23.7397 5.76995 23.833 6.03079 23.8333 6.3C23.8333 6.94353 23.3102 7.46667 22.6667 7.46667H20.3333C20.024 7.46642 19.7274 7.34342 19.5086 7.12468C19.2899 6.90595 19.1669 6.60934 19.1667 6.3C19.1667 5.7358 19.5694 5.264 20.1023 5.15667ZM21.0333 1.4C21.0333 1.27623 21.0825 1.15753 21.17 1.07002C21.2575 0.9825 21.3762 0.933333 21.5 0.933333C21.6238 0.933333 21.7425 0.9825 21.83 1.07002C21.9175 1.15753 21.9667 1.27623 21.9667 1.4V5.13333C21.9667 5.2571 21.9175 5.3758 21.83 5.46332C21.7425 5.55083 21.6238 5.6 21.5 5.6C21.3762 5.6 21.2575 5.55083 21.17 5.46332C21.0825 5.3758 21.0333 5.2571 21.0333 5.13333V1.4ZM6.10233 5.15667C6.10845 5.52351 6.25832 5.87329 6.51971 6.13075C6.7811 6.38821 7.13311 6.53277 7.5 6.53333C7.86689 6.53277 8.2189 6.38821 8.48029 6.13075C8.74168 5.87329 8.89155 5.52351 8.89767 5.15667C9.16149 5.21023 9.39872 5.35328 9.56922 5.56162C9.73972 5.76995 9.83302 6.03079 9.83333 6.3C9.83333 6.94353 9.3102 7.46667 8.66667 7.46667H6.33333C6.02399 7.46642 5.72739 7.34342 5.50865 7.12468C5.28991 6.90595 5.16691 6.60934 5.16667 6.3C5.16667 5.7358 5.5694 5.264 6.10233 5.15667ZM7.03333 1.4C7.03333 1.27623 7.0825 1.15753 7.17002 1.07002C7.25753 0.9825 7.37623 0.933333 7.5 0.933333C7.62377 0.933333 7.74247 0.9825 7.82998 1.07002C7.9175 1.15753 7.96667 1.27623 7.96667 1.4V5.13333C7.96667 5.2571 7.9175 5.3758 7.82998 5.46332C7.74247 5.55083 7.62377 5.6 7.5 5.6C7.37623 5.6 7.25753 5.55083 7.17002 5.46332C7.0825 5.3758 7.03333 5.2571 7.03333 5.13333V1.4ZM2.83333 2.8H6.1V4.2238C5.0528 4.3414 4.23333 5.222 4.23333 6.3C4.23333 7.4578 5.17553 8.4 6.33333 8.4H8.66667C9.82447 8.4 10.7667 7.4578 10.7667 6.3C10.7667 5.222 9.9472 4.3414 8.9 4.2238V2.8H20.1V4.2238C19.0528 4.3414 18.2333 5.222 18.2333 6.3C18.2333 7.4578 19.1755 8.4 20.3333 8.4H22.6667C23.8245 8.4 24.7667 7.4578 24.7667 6.3C24.7667 5.222 23.9472 4.3414 22.9 4.2238V2.8H26.1667C26.9385 2.8 27.5667 3.42813 27.5667 4.2V9.33333H1.43333V4.2C1.43333 3.42813 2.06147 2.8 2.83333 2.8ZM26.1667 27.0667H2.83333C2.06147 27.0667 1.43333 26.4385 1.43333 25.6667V10.2667H27.5667V25.6667C27.5667 26.4385 26.9385 27.0667 26.1667 27.0667Z" fill="white"/>
<path d="M25.7 11.2H26.6333V12.1333H25.7V11.2ZM23.8333 11.2H24.7667V12.1333H23.8333V11.2ZM21.9667 11.2H22.9V12.1333H21.9667V11.2ZM25.7 15.4H23.3667V14.4667C23.3667 14.3429 23.3175 14.2242 23.23 14.1367C23.1425 14.0492 23.0238 14 22.9 14H20.1C19.9762 14 19.8575 14.0492 19.77 14.1367C19.6825 14.2242 19.6333 14.3429 19.6333 14.4667V18.2H9.36667V14.4667C9.36667 14.3429 9.3175 14.2242 9.22998 14.1367C9.14247 14.0492 9.02377 14 8.9 14H6.1C5.97623 14 5.85753 14.0492 5.77002 14.1367C5.6825 14.2242 5.63333 14.3429 5.63333 14.4667V15.4H3.3C3.17623 15.4 3.05753 15.4492 2.97002 15.5367C2.8825 15.6242 2.83333 15.7429 2.83333 15.8667V23.3333C2.83333 23.4571 2.8825 23.5758 2.97002 23.6633C3.05753 23.7508 3.17623 23.8 3.3 23.8H5.63333V24.7333C5.63333 24.8571 5.6825 24.9758 5.77002 25.0633C5.85753 25.1508 5.97623 25.2 6.1 25.2H8.9C9.02377 25.2 9.14247 25.1508 9.22998 25.0633C9.3175 24.9758 9.36667 24.8571 9.36667 24.7333V21H19.6333V24.7333C19.6333 24.8571 19.6825 24.9758 19.77 25.0633C19.8575 25.1508 19.9762 25.2 20.1 25.2H22.9C23.0238 25.2 23.1425 25.1508 23.23 25.0633C23.3175 24.9758 23.3667 24.8571 23.3667 24.7333V23.8H25.7C25.8238 23.8 25.9425 23.7508 26.03 23.6633C26.1175 23.5758 26.1667 23.4571 26.1667 23.3333V15.8667C26.1667 15.7429 26.1175 15.6242 26.03 15.5367C25.9425 15.4492 25.8238 15.4 25.7 15.4ZM3.76667 22.8667V16.3333H5.63333V22.8667H3.76667ZM8.43333 24.2667H6.56667V14.9333H8.43333V24.2667ZM9.36667 20.0667V19.1333H19.6333V20.0667H9.36667ZM22.4333 24.2667H20.5667V14.9333H22.4333V24.2667ZM25.2333 22.8667H23.3667V16.3333H25.2333V22.8667Z" fill="white"/>
</svg>
