<svg width="35" height="14" viewBox="0 0 35 14" fill="none" xmlns="http://www.w3.org/2000/svg">
<path d="M6.42924 13.6085L6.62219 8.56019L2.136 11.2679L0.978271 9.34039L5.70566 6.99981L0.978271 4.65923L2.136 2.73169L6.62219 5.43942L6.42924 0.391113H8.74469L8.55174 5.43942L13.0379 2.73169L14.1957 4.65923L9.46827 6.99981L14.1957 9.34039L13.0379 11.2679L8.55174 8.56019L8.74469 13.6085H6.42924Z" fill="white"/>
<path d="M26.2553 13.6085L26.4483 8.56019L21.9621 11.2679L20.8044 9.34039L25.5317 6.99981L20.8044 4.65923L21.9621 2.73169L26.4483 5.43942L26.2553 0.391113H28.5708L28.3778 5.43942L32.864 2.73169L34.0217 4.65923L29.2944 6.99981L34.0217 9.34039L32.864 11.2679L28.3778 8.56019L28.5708 13.6085H26.2553Z" fill="white"/>
</svg>
